FiraSans-LightItalic.ufo
<glyph name="parenleft" format="2">
  <advance width="329"/>
  <unicode hex="0028"/>
  <outline>
    <contour>
      <point x="327" y="825" type="line"/>
      <point x="170" y="635"/>
      <point x="84" y="485"/>
      <point x="84" y="233" type="curve" smooth="yes"/>
      <point x="84" y="79"/>
      <point x="136" y="-18"/>
      <point x="194" y="-125" type="curve"/>
      <point x="196" y="-124" type="line"/>
      <point x="138" y="-17"/>
      <point x="86" y="79"/>
      <point x="86" y="233" type="curve" smooth="yes"/>
      <point x="86" y="484"/>
      <point x="171" y="632"/>
      <point x="328" y="824" type="curve"/>
    </contour>
  </outline>
</glyph>
<glyph name="parenright" format="2">
  <advance width="327"/>
  <unicode hex="0029"/>
  <outline>
    <contour>
      <point x="160" y="825" type="curve"/>
      <point x="158" y="824" type="line"/>
      <point x="216" y="717"/>
      <point x="266" y="621"/>
      <point x="266" y="466" type="curve" smooth="yes"/>
      <point x="266" y="215"/>
      <point x="183" y="69"/>
      <point x="25" y="-124" type="curve"/>
      <point x="27" y="-125" type="line"/>
      <point x="184" y="66"/>
      <point x="268" y="213"/>
      <point x="268" y="466" type="curve" smooth="yes"/>
      <point x="268" y="621"/>
      <point x="218" y="717"/>
    </contour>
  </outline>
</glyph>
<glyph name="hyphen" format="2">
  <advance width="400"/>
  <unicode hex="002D"/>
  <outline>
    <contour>
      <point x="93" y="311" type="line"/>
      <point x="323" y="311" type="line"/>
      <point x="323" y="313" type="line"/>
      <point x="93" y="313" type="line"/>
    </contour>
  </outline>
</glyph>
<glyph name="period" format="2">
  <advance width="120"/>
  <unicode hex="002E"/>
  <outline>
    <contour>
      <point x="24" y="-4" type="curve" smooth="yes"/>
      <point x="28" y="-4"/>
      <point x="31" y="-1"/>
      <point x="31" y="3" type="curve"/>
      <point x="31" y="7"/>
      <point x="28" y="10"/>
      <point x="24" y="10" type="curve" smooth="yes"/>
      <point x="20" y="10"/>
      <point x="17" y="7"/>
      <point x="17" y="3" type="curve" smooth="yes"/>
      <point x="17" y="-1"/>
      <point x="20" y="-4"/>
    </contour>
  </outline>
</glyph>
<glyph name="zero" format="2">
  <advance width="536"/>
  <unicode hex="0030"/>
  <outline>
    <contour>
      <point x="329" y="670" type="curve" smooth="yes"/>
      <point x="427" y="670"/>
      <point x="476" y="597"/>
      <point x="476" y="453" type="curve" smooth="yes"/>
      <point x="476" y="239"/>
      <point x="402" y="-9"/>
      <point x="227" y="-9" type="curve" smooth="yes"/>
      <point x="130" y="-9"/>
      <point x="81" y="63"/>
      <point x="81" y="205" type="curve" smooth="yes"/>
      <point x="81" y="422"/>
      <point x="153" y="670"/>
    </contour>
    <contour>
      <point x="329" y="668" type="curve"/>
      <point x="155" y="668"/>
      <point x="83" y="421"/>
      <point x="83" y="205" type="curve" smooth="yes"/>
      <point x="83" y="65"/>
      <point x="131" y="-7"/>
      <point x="227" y="-7" type="curve"/>
      <point x="401" y="-6"/>
      <point x="474" y="240"/>
      <point x="474" y="453" type="curve" smooth="yes"/>
      <point x="474" y="597"/>
      <point x="425" y="668"/>
    </contour>
  </outline>
</glyph>
<glyph name="five" format="2">
  <advance width="470"/>
  <unicode hex="0035"/>
  <outline>
    <contour>
      <point x="435" y="660" type="line"/>
      <point x="147" y="660" type="line"/>
      <point x="106" y="360" type="line"/>
      <point x="108" y="360" type="line"/>
      <point x="151" y="390"/>
      <point x="191" y="407"/>
      <point x="249" y="407" type="curve" smooth="yes"/>
      <point x="341" y="407"/>
      <point x="394" y="352"/>
      <point x="394" y="255" type="curve" smooth="yes"/>
      <point x="394" y="141"/>
      <point x="339" y="-7"/>
      <point x="174" y="-7" type="curve" smooth="yes"/>
      <point x="109" y="-7"/>
      <point x="55" y="20"/>
      <point x="24" y="64" type="curve"/>
      <point x="22" y="63" type="line"/>
      <point x="55" y="18"/>
      <point x="108" y="-9"/>
      <point x="174" y="-9" type="curve" smooth="yes"/>
      <point x="340" y="-9"/>
      <point x="396" y="140"/>
      <point x="396" y="255" type="curve" smooth="yes"/>
      <point x="396" y="353"/>
      <point x="342" y="409"/>
      <point x="249" y="409" type="curve" smooth="yes"/>
      <point x="190" y="409"/>
      <point x="147" y="390"/>
      <point x="108" y="362" type="curve"/>
      <point x="149" y="658" type="line"/>
      <point x="435" y="658" type="line"/>
    </contour>
  </outline>
</glyph>
<glyph name="six" format="2">
  <advance width="505"/>
  <unicode hex="0036"/>
  <outline>
    <contour>
      <point x="357" y="670" type="curve" smooth="yes"/>
      <point x="179" y="670"/>
      <point x="78" y="415"/>
      <point x="78" y="201" type="curve" smooth="yes"/>
      <point x="78" y="80"/>
      <point x="122" y="-9"/>
      <point x="233" y="-9" type="curve" smooth="yes"/>
      <point x="392" y="-9"/>
      <point x="438" y="166"/>
      <point x="438" y="269" type="curve" smooth="yes"/>
      <point x="438" y="372"/>
      <point x="385" y="423"/>
      <point x="300" y="423" type="curve" smooth="yes"/>
      <point x="207" y="423"/>
      <point x="137" y="359"/>
      <point x="85" y="289" type="curve"/>
      <point x="84" y="285" type="line"/>
      <point x="137" y="357"/>
      <point x="208" y="421"/>
      <point x="300" y="421" type="curve" smooth="yes"/>
      <point x="384" y="421"/>
      <point x="436" y="371"/>
      <point x="436" y="269" type="curve" smooth="yes"/>
      <point x="436" y="170"/>
      <point x="392" y="-7"/>
      <point x="233" y="-7" type="curve" smooth="yes"/>
      <point x="123" y="-7"/>
      <point x="80" y="81"/>
      <point x="80" y="201" type="curve" smooth="yes"/>
      <point x="80" y="228"/>
      <point x="81" y="257"/>
      <point x="85" y="287" type="curve"/>
      <point x="85" y="288" type="line"/>
      <point x="111" y="492"/>
      <point x="211" y="668"/>
      <point x="357" y="668" type="curve" smooth="yes"/>
      <point x="398" y="668"/>
      <point x="428" y="654"/>
      <point x="450" y="633" type="curve"/>
      <point x="452" y="634" type="line"/>
      <point x="429" y="656"/>
      <point x="398" y="670"/>
    </contour>
  </outline>
</glyph>
<glyph name="A" format="2">
  <advance width="556"/>
  <unicode hex="0041"/>
  <anchor x="242" y="0" name="bottom"/>
  <anchor x="495" y="0" name="ogonek"/>
  <anchor x="337" y="680" name="top"/>
  <anchor x="229" y="680" name="topleft"/>
  <outline>
    <contour>
      <point x="337" y="680" type="line"/>
      <point x="336" y="680" type="line"/>
      <point x="-1" y="0" type="line"/>
      <point x="1" y="0" type="line"/>
      <point x="336" y="676" type="line"/>
      <point x="483" y="0" type="line"/>
      <point x="485" y="0" type="line"/>
    </contour>
    <contour>
      <point x="437" y="215" type="line"/>
      <point x="107" y="215" type="line"/>
      <point x="105" y="213" type="line"/>
      <point x="438" y="213" type="line"/>
    </contour>
  </outline>
</glyph>
<glyph name="B" format="2">
  <advance width="581"/>
  <unicode hex="0042"/>
  <anchor x="338" y="680" name="top"/>
  <outline>
    <contour>
      <point x="323" y="680" type="curve" smooth="yes"/>
      <point x="189" y="680" type="line"/>
      <point x="94" y="0" type="line"/>
      <point x="251" y="0" type="line" smooth="yes"/>
      <point x="441" y="0"/>
      <point x="507" y="99"/>
      <point x="507" y="212" type="curve" smooth="yes"/>
      <point x="507" y="305"/>
      <point x="437" y="355"/>
      <point x="351" y="360" type="curve"/>
      <point x="438" y="371"/>
      <point x="516" y="439"/>
      <point x="516" y="541" type="curve" smooth="yes"/>
      <point x="516" y="630"/>
      <point x="450" y="680"/>
    </contour>
    <contour>
      <point x="324" y="678" type="line" smooth="yes"/>
      <point x="449" y="678"/>
      <point x="514" y="629"/>
      <point x="514" y="541" type="curve" smooth="yes"/>
      <point x="514" y="419"/>
      <point x="406" y="361"/>
      <point x="336" y="361" type="curve" smooth="yes"/>
      <point x="146" y="361" type="line"/>
      <point x="146" y="359" type="line"/>
      <point x="332" y="359" type="line" smooth="yes"/>
      <point x="435" y="359"/>
      <point x="505" y="304"/>
      <point x="505" y="212" type="curve" smooth="yes"/>
      <point x="505" y="100"/>
      <point x="440" y="2"/>
      <point x="252" y="2" type="curve" smooth="yes"/>
      <point x="96" y="2" type="line"/>
      <point x="191" y="678" type="line"/>
    </contour>
  </outline>
</glyph>
<glyph name="D" format="2">
  <advance width="613"/>
  <unicode hex="0044"/>
  <anchor x="252" y="0" name="bottom"/>
  <anchor x="321" y="340" name="center"/>
  <anchor x="348" y="680" name="top"/>
  <outline>
    <contour>
      <point x="293" y="680" type="curve" smooth="yes"/>
      <point x="189" y="680" type="line"/>
      <point x="94" y="0" type="line"/>
      <point x="205" y="0" type="line" smooth="yes"/>
      <point x="461" y="0"/>
      <point x="547" y="233"/>
      <point x="547" y="436" type="curve" smooth="yes"/>
      <point x="547" y="638"/>
      <point x="421" y="680"/>
    </contour>
    <contour>
      <point x="293" y="678" type="line" smooth="yes"/>
      <point x="420" y="678"/>
      <point x="545" y="636"/>
      <point x="545" y="436" type="curve" smooth="yes"/>
      <point x="545" y="234"/>
      <point x="459" y="2"/>
      <point x="205" y="2" type="curve" smooth="yes"/>
      <point x="96" y="2" type="line"/>
      <point x="191" y="678" type="line"/>
    </contour>
  </outline>
</glyph>
<glyph name="E" format="2">
  <advance width="495"/>
  <unicode hex="0045"/>
  <anchor x="248" y="0" name="bottom"/>
  <anchor x="389" y="0" name="ogonek"/>
  <anchor x="343" y="680" name="top"/>
  <anchor x="139" y="680" name="topleft"/>
  <outline>
    <contour>
      <point x="494" y="680" type="line"/>
      <point x="189" y="680" type="line"/>
      <point x="94" y="0" type="line"/>
      <point x="409" y="0" type="line"/>
      <point x="409" y="2" type="line"/>
      <point x="96" y="2" type="line"/>
      <point x="147" y="360" type="line"/>
      <point x="407" y="360" type="line"/>
      <point x="407" y="362" type="line"/>
      <point x="147" y="362" type="line"/>
      <point x="191" y="678" type="line"/>
      <point x="494" y="678" type="line"/>
    </contour>
  </outline>
</glyph>
<glyph name="F" format="2">
  <advance width="470"/>
  <unicode hex="0046"/>
  <anchor x="95" y="0" name="bottom"/>
  <anchor x="339" y="680" name="top"/>
  <outline>
    <contour>
      <point x="489" y="680" type="line"/>
      <point x="189" y="680" type="line"/>
      <point x="94" y="0" type="line"/>
      <point x="96" y="0" type="line"/>
      <point x="144" y="345" type="line"/>
      <point x="402" y="345" type="line"/>
      <point x="402" y="347" type="line"/>
      <point x="144" y="347" type="line"/>
      <point x="191" y="678" type="line"/>
      <point x="489" y="678" type="line"/>
    </contour>
  </outline>
</glyph>
<glyph name="H" format="2">
  <advance width="654"/>
  <unicode hex="0048"/>
  <anchor x="304" y="0" name="bottom"/>
  <anchor x="498" y="0" name="bottomright"/>
  <anchor x="338" y="340" name="center"/>
  <anchor x="385" y="680" name="top"/>
  <anchor x="139" y="680" name="topleft"/>
  <outline>
    <contour>
      <point x="94" y="0" type="line"/>
      <point x="96" y="0" type="line"/>
      <point x="147" y="365" type="line"/>
      <point x="537" y="365" type="line"/>
      <point x="486" y="0" type="line"/>
      <point x="488" y="0" type="line"/>
      <point x="583" y="680" type="line"/>
      <point x="581" y="680" type="line"/>
      <point x="537" y="367" type="line"/>
      <point x="147" y="367" type="line"/>
      <point x="191" y="680" type="line"/>
      <point x="189" y="680" type="line"/>
    </contour>
  </outline>
</glyph>
<glyph name="I" format="2">
  <advance width="262"/>
  <unicode hex="0049"/>
  <anchor x="95" y="0" name="bottom"/>
  <anchor x="106" y="0" name="ogonek"/>
  <anchor x="190" y="680" name="top"/>
  <anchor x="140" y="680" name="topleft"/>
  <outline>
    <contour>
      <point x="191" y="680" type="line"/>
      <point x="189" y="680" type="line"/>
      <point x="94" y="0" type="line"/>
      <point x="96" y="0" type="line"/>
    </contour>
  </outline>
</glyph>
<glyph name="K" format="2">
  <advance width="504"/>
  <unicode hex="004B"/>
  <anchor x="248" y="0" name="bottom"/>
  <anchor x="343" y="680" name="top"/>
  <outline>
    <contour>
      <point x="450" y="0" type="line"/>
      <point x="453" y="0" type="line"/>
      <point x="153" y="366" type="line"/>
      <point x="532" y="680" type="line"/>
      <point x="529" y="680" type="line"/>
      <point x="150" y="366" type="line"/>
    </contour>
    <contour>
      <point x="94" y="1" type="line"/>
      <point x="96" y="1" type="line"/>
      <point x="191" y="680" type="line"/>
      <point x="189" y="680" type="line"/>
    </contour>
  </outline>
</glyph>
<glyph name="L" format="2">
  <advance width="445"/>
  <unicode hex="004C"/>
  <anchor x="239" y="0" name="bottom"/>
  <anchor x="363" y="355" name="center"/>
  <anchor x="190" y="680" name="top"/>
  <anchor x="251" y="680" name="topright"/>
  <outline>
    <contour>
      <point x="191" y="680" type="line"/>
      <point x="189" y="680" type="line"/>
      <point x="94" y="0" type="line"/>
      <point x="384" y="0" type="line"/>
      <point x="384" y="2" type="line"/>
      <point x="96" y="2" type="line"/>
    </contour>
  </outline>
</glyph>
<glyph name="O" format="2">
  <advance width="687"/>
  <unicode hex="004F"/>
  <anchor x="306" y="0" name="bottom"/>
  <anchor x="401" y="680" name="top"/>
  <anchor x="162" y="679" name="topleft"/>
  <anchor x="577" y="680" name="topright"/>
  <outline>
    <contour>
      <point x="403" y="690" type="curve" smooth="yes"/>
      <point x="169" y="690"/>
      <point x="90" y="418"/>
      <point x="90" y="251" type="curve" smooth="yes"/>
      <point x="90" y="86"/>
      <point x="169" y="-9"/>
      <point x="306" y="-9" type="curve" smooth="yes"/>
      <point x="551" y="-9"/>
      <point x="621" y="261"/>
      <point x="621" y="429" type="curve" smooth="yes"/>
      <point x="621" y="596"/>
      <point x="541" y="690"/>
    </contour>
    <contour>
      <point x="403" y="688" type="curve" smooth="yes"/>
      <point x="540" y="688"/>
      <point x="619" y="595"/>
      <point x="619" y="429" type="curve" smooth="yes"/>
      <point x="619" y="262"/>
      <point x="550" y="-7"/>
      <point x="306" y="-7" type="curve" smooth="yes"/>
      <point x="170" y="-7"/>
      <point x="92" y="87"/>
      <point x="92" y="251" type="curve" smooth="yes"/>
      <point x="92" y="417"/>
      <point x="170" y="688"/>
    </contour>
  </outline>
</glyph>
<glyph name="R" format="2">
  <advance width="561"/>
  <unicode hex="0052"/>
  <anchor x="265" y="0" name="bottom"/>
  <anchor x="340" y="680" name="top"/>
  <outline>
    <contour>
      <point x="326" y="680" type="curve" smooth="yes"/>
      <point x="189" y="680" type="line"/>
      <point x="94" y="0" type="line"/>
      <point x="96" y="0" type="line"/>
      <point x="191" y="678" type="line"/>
      <point x="326" y="678" type="line" smooth="yes"/>
      <point x="467" y="678"/>
      <point x="517" y="621"/>
      <point x="517" y="533" type="curve" smooth="yes"/>
      <point x="517" y="431"/>
      <point x="448" y="336"/>
      <point x="317" y="336" type="curve" smooth="yes"/>
      <point x="142" y="336" type="line"/>
      <point x="142" y="334" type="line"/>
      <point x="317" y="334" type="line"/>
      <point x="449" y="334"/>
      <point x="519" y="430"/>
      <point x="519" y="533" type="curve" smooth="yes"/>
      <point x="519" y="622"/>
      <point x="468" y="680"/>
    </contour>
    <contour>
      <point x="324" y="335" type="line"/>
      <point x="322" y="335" type="line"/>
      <point x="467" y="0" type="line"/>
      <point x="470" y="0" type="line"/>
    </contour>
  </outline>
</glyph>
<glyph name="T" format="2">
  <advance width="472"/>
  <unicode hex="0054"/>
  <anchor x="200" y="0" name="bottom"/>
  <anchor x="211" y="0" name="bottomright"/>
  <anchor x="248" y="340" name="center"/>
  <anchor x="295" y="680" name="top"/>
  <outline>
    <contour>
      <point x="511" y="680" type="line"/>
      <point x="79" y="680" type="line"/>
      <point x="79" y="678" type="line"/>
      <point x="294" y="678" type="line"/>
      <point x="199" y="0" type="line"/>
      <point x="201" y="0" type="line"/>
      <point x="296" y="678" type="line"/>
      <point x="511" y="678" type="line"/>
    </contour>
  </outline>
</glyph>
<glyph name="U" format="2">
  <advance width="635"/>
  <unicode hex="0055"/>
  <anchor x="281" y="0" name="bottom"/>
  <anchor x="362" y="0" name="ogonek"/>
  <anchor x="377" y="680" name="top"/>
  <anchor x="584" y="680" name="topright"/>
  <outline>
    <contour>
      <point x="574" y="680" type="line"/>
      <point x="572" y="680" type="line"/>
      <point x="505" y="206" type="line" smooth="yes"/>
      <point x="489" y="84"/>
      <point x="424" y="-7"/>
      <point x="281" y="-7" type="curve" smooth="yes"/>
      <point x="137" y="-7"/>
      <point x="99" y="84"/>
      <point x="115" y="206" type="curve" smooth="yes"/>
      <point x="182" y="680" type="line"/>
      <point x="180" y="680" type="line"/>
      <point x="113" y="206" type="line" smooth="yes"/>
      <point x="97" y="83"/>
      <point x="135" y="-9"/>
      <point x="281" y="-9" type="curve" smooth="yes"/>
      <point x="425" y="-9"/>
      <point x="491" y="83"/>
      <point x="507" y="206" type="curve" smooth="yes"/>
    </contour>
  </outline>
</glyph>
<glyph name="V" format="2">
  <advance width="523"/>
  <unicode hex="0056"/>
  <anchor x="227" y="0" name="bottom"/>
  <anchor x="320.738" y="680" name="top"/>
  <outline>
    <contour>
      <point x="547" y="680" type="line"/>
      <point x="545" y="680" type="line"/>
      <point x="227" y="2" type="line"/>
      <point x="96" y="680" type="line"/>
      <point x="94" y="680" type="line"/>
      <point x="226" y="0" type="line"/>
      <point x="228" y="0" type="line"/>
    </contour>
  </outline>
</glyph>
<glyph name="Y" format="2">
  <advance width="479"/>
  <unicode hex="0059"/>
  <anchor x="204" y="0" name="bottom"/>
  <anchor x="299" y="680" name="top"/>
  <anchor x="73" y="680" name="topleft"/>
  <outline>
    <contour>
      <point x="513" y="680" type="line"/>
      <point x="511" y="680" type="line"/>
      <point x="241" y="273" type="line"/>
      <point x="86" y="680" type="line"/>
      <point x="84" y="680" type="line"/>
      <point x="240" y="271" type="line"/>
      <point x="203" y="0" type="line"/>
      <point x="205" y="0" type="line"/>
      <point x="242" y="271" type="line"/>
    </contour>
  </outline>
</glyph>
<glyph name="Z" format="2">
  <advance width="504"/>
  <unicode hex="005A"/>
  <anchor x="208" y="0" name="bottom"/>
  <anchor x="313" y="680" name="top"/>
  <outline>
    <contour>
      <point x="9" y="0" type="line"/>
      <point x="401" y="0" type="line"/>
      <point x="401" y="2" type="line"/>
      <point x="12" y="2" type="line"/>
      <point x="513" y="678" type="line"/>
      <point x="513" y="680" type="line"/>
      <point x="141" y="680" type="line"/>
      <point x="141" y="678" type="line"/>
      <point x="510" y="678" type="line"/>
      <point x="9" y="2" type="line"/>
    </contour>
  </outline>
</glyph>
<glyph name="asciicircum" format="2">
  <advance width="528"/>
  <unicode hex="005E"/>
  <outline>
    <contour>
      <point x="338" y="817" type="line"/>
      <point x="336" y="817" type="line"/>
      <point x="127" y="527" type="line"/>
      <point x="129" y="527" type="line"/>
      <point x="337" y="816" type="line"/>
      <point x="463" y="527" type="line"/>
      <point x="465" y="527" type="line"/>
    </contour>
  </outline>
</glyph>
<glyph name="d" format="2">
  <advance width="566"/>
  <unicode hex="0064"/>
  <anchor x="247" y="0" name="bottom"/>
  <anchor x="283" y="259" name="center"/>
  <anchor x="339" y="727" name="top"/>
  <anchor x="556" y="727" name="topright"/>
  <outline>
    <contour>
      <point x="505" y="730" type="line"/>
      <point x="462" y="424" type="line"/>
      <point x="444" y="473"/>
      <point x="398" y="527"/>
      <point x="312" y="527" type="curve" smooth="yes"/>
      <point x="137" y="527"/>
      <point x="74" y="315"/>
      <point x="74" y="182" type="curve" smooth="yes"/>
      <point x="74" y="61"/>
      <point x="133" y="-9"/>
      <point x="225" y="-9" type="curve" smooth="yes"/>
      <point x="320" y="-9"/>
      <point x="377" y="65"/>
      <point x="424" y="149" type="curve"/>
      <point x="403" y="0" type="line"/>
      <point x="405" y="0" type="line"/>
      <point x="507" y="730" type="line"/>
    </contour>
    <contour>
      <point x="312" y="525" type="curve" smooth="yes"/>
      <point x="397" y="525"/>
      <point x="443" y="472"/>
      <point x="462" y="420" type="curve"/>
      <point x="424" y="152" type="line"/>
      <point x="377" y="68"/>
      <point x="320" y="-7"/>
      <point x="225" y="-7" type="curve" smooth="yes"/>
      <point x="134" y="-7"/>
      <point x="76" y="62"/>
      <point x="76" y="182" type="curve" smooth="yes"/>
      <point x="76" y="314"/>
      <point x="138" y="525"/>
    </contour>
  </outline>
</glyph>
<glyph name="e" format="2">
  <advance width="508"/>
  <unicode hex="0065"/>
  <anchor x="233" y="0" name="bottom"/>
  <anchor x="343" y="10" name="ogonek"/>
  <anchor x="307" y="517" name="top"/>
  <outline>
    <contour>
      <point x="327" y="527" type="curve"/>
      <point x="136" y="527"/>
      <point x="74" y="310"/>
      <point x="74" y="190" type="curve"/>
      <point x="74" y="61"/>
      <point x="136" y="-9"/>
      <point x="238" y="-9" type="curve"/>
      <point x="303" y="-9"/>
      <point x="348" y="12"/>
      <point x="400" y="50" type="curve"/>
      <point x="399" y="52" type="line"/>
      <point x="347" y="14"/>
      <point x="303" y="-7"/>
      <point x="238" y="-7" type="curve"/>
      <point x="137" y="-7"/>
      <point x="76" y="62"/>
      <point x="76" y="190" type="curve"/>
      <point x="76" y="310"/>
      <point x="138" y="525"/>
      <point x="327" y="525" type="curve"/>
      <point x="404" y="525"/>
      <point x="462" y="487"/>
      <point x="462" y="414" type="curve"/>
      <point x="462" y="308"/>
      <point x="347" y="233"/>
      <point x="76" y="220" type="curve"/>
      <point x="76" y="218" type="line"/>
      <point x="347" y="231"/>
      <point x="464" y="306"/>
      <point x="464" y="414" type="curve"/>
      <point x="464" y="488"/>
      <point x="405" y="527"/>
    </contour>
  </outline>
</glyph>
<glyph name="l" format="2">
  <advance width="274.935"/>
  <unicode hex="006C"/>
  <anchor x="138" y="0" name="bottom"/>
  <anchor x="272" y="375" name="center"/>
  <anchor x="187" y="730" name="top"/>
  <anchor x="237" y="727" name="topright"/>
  <outline>
    <contour>
      <point x="188" y="730" type="line"/>
      <point x="186" y="730" type="line"/>
      <point x="93" y="64" type="line" smooth="yes"/>
      <point x="87" y="19"/>
      <point x="103" y="-9"/>
      <point x="145" y="-9" type="curve" smooth="yes"/>
      <point x="159" y="-9"/>
      <point x="174" y="-6"/>
      <point x="187" y="-1" type="curve"/>
      <point x="187" y="1" type="line"/>
      <point x="174" y="-4"/>
      <point x="159" y="-7"/>
      <point x="145" y="-7" type="curve" smooth="yes"/>
      <point x="104" y="-7"/>
      <point x="89" y="21"/>
      <point x="95" y="64" type="curve" smooth="yes"/>
    </contour>
  </outline>
</glyph>
<glyph name="t" format="2">
  <advance width="322"/>
  <unicode hex="0074"/>
  <anchor x="189" y="0" name="bottom"/>
  <anchor x="145" y="259" name="center"/>
  <anchor x="173" y="649" name="top"/>
  <anchor x="243" y="730" name="topright"/>
  <outline>
    <contour>
      <point x="174" y="651" type="line"/>
      <point x="172" y="651" type="line"/>
      <point x="153" y="516" type="line"/>
      <point x="97" y="113" type="line" smooth="yes"/>
      <point x="86" y="35"/>
      <point x="118" y="-9"/>
      <point x="183" y="-9" type="curve" smooth="yes"/>
      <point x="224" y="-9"/>
      <point x="254" y="4"/>
      <point x="281" y="19" type="curve"/>
      <point x="280" y="21" type="line"/>
      <point x="252" y="5"/>
      <point x="223" y="-7"/>
      <point x="183" y="-7" type="curve" smooth="yes"/>
      <point x="119" y="-7"/>
      <point x="88" y="37"/>
      <point x="99" y="113" type="curve" smooth="yes"/>
    </contour>
    <contour>
      <point x="301" y="517" type="line"/>
      <point x="66" y="517" type="line"/>
      <point x="66" y="515" type="line"/>
      <point x="301" y="515" type="line"/>
    </contour>
  </outline>
</glyph>
<glyph name="v" format="2">
  <advance width="435"/>
  <unicode hex="0076"/>
  <anchor x="187" y="0" name="bottom"/>
  <anchor x="254" y="517" name="top"/>
  <outline>
    <contour>
      <point x="441" y="517" type="line"/>
      <point x="439" y="517" type="line"/>
      <point x="187" y="2" type="line"/>
      <point x="68" y="517" type="line"/>
      <point x="66" y="517" type="line"/>
      <point x="186" y="0" type="line"/>
      <point x="188" y="0" type="line"/>
    </contour>
  </outline>
</glyph>
<glyph name="w" format="2">
  <advance width="672"/>
  <unicode hex="0077"/>
  <anchor x="300" y="0" name="bottom"/>
  <anchor x="372" y="517" name="top"/>
  <outline>
    <contour>
      <point x="668" y="517" type="line"/>
      <point x="666" y="517" type="line"/>
      <point x="454" y="2" type="line"/>
      <point x="373" y="517" type="line"/>
      <point x="371" y="517" type="line"/>
      <point x="146" y="2" type="line"/>
      <point x="78" y="517" type="line"/>
      <point x="76" y="517" type="line"/>
      <point x="145" y="0" type="line"/>
      <point x="147" y="0" type="line"/>
      <point x="372" y="514" type="line"/>
      <point x="453" y="0" type="line"/>
      <point x="455" y="0" type="line"/>
    </contour>
  </outline>
</glyph>
<glyph name="x" format="2">
  <advance width="424"/>
  <unicode hex="0078"/>
  <anchor x="169" y="0" name="bottom"/>
  <anchor x="371" y="0" name="bottomright"/>
  <anchor x="242" y="517" name="top"/>
  <outline>
    <contour>
      <point x="90" y="517" type="line"/>
      <point x="88" y="517" type="line"/>
      <point x="212" y="278" type="line"/>
      <point x="213" y="277" type="line"/>
      <point x="361" y="0" type="line"/>
      <point x="363" y="0" type="line"/>
      <point x="214" y="278" type="line"/>
      <point x="213" y="279" type="line"/>
    </contour>
    <contour>
      <point x="408" y="517" type="line"/>
      <point x="406" y="517" type="line"/>
      <point x="213" y="279" type="line"/>
      <point x="212" y="278" type="line"/>
      <point x="-11" y="0" type="line"/>
      <point x="-9" y="0" type="line"/>
      <point x="213" y="277" type="line"/>
      <point x="214" y="278" type="line"/>
    </contour>
  </outline>
</glyph>
<glyph name="cent" format="2">
  <advance width="469"/>
  <unicode hex="00A2"/>
  <anchor x="249" y="-1" name="bottom"/>
  <anchor x="305" y="517" name="top"/>
  <outline>
    <contour>
      <point x="335" y="672" type="line"/>
      <point x="333" y="672" type="line"/>
      <point x="313" y="526" type="line"/>
      <point x="315" y="526" type="line"/>
    </contour>
    <contour>
      <point x="233" y="-8" type="line"/>
      <point x="214" y="-144" type="line"/>
      <point x="216" y="-144" type="line"/>
      <point x="235" y="-8" type="line"/>
    </contour>
    <component base="c"/>
  </outline>
</glyph>
<glyph name="section" format="2">
  <advance width="530"/>
  <unicode hex="00A7"/>
  <outline>
    <contour>
      <point x="329" y="670" type="curve"/>
      <point x="226" y="670"/>
      <point x="175" y="608"/>
      <point x="175" y="548" type="curve" smooth="yes"/>
      <point x="175" y="491"/>
      <point x="206" y="459"/>
      <point x="303" y="424" type="curve" smooth="yes"/>
      <point x="390" y="392"/>
      <point x="424" y="355"/>
      <point x="424" y="298" type="curve" smooth="yes"/>
      <point x="424" y="242"/>
      <point x="400" y="198"/>
      <point x="318" y="156" type="curve"/>
      <point x="319" y="154" type="line"/>
      <point x="400" y="196"/>
      <point x="426" y="240"/>
      <point x="426" y="298" type="curve" smooth="yes"/>
      <point x="426" y="356"/>
      <point x="392" y="394"/>
      <point x="304" y="426" type="curve" smooth="yes"/>
      <point x="207" y="461"/>
      <point x="177" y="492"/>
      <point x="177" y="548" type="curve" smooth="yes"/>
      <point x="177" y="607"/>
      <point x="227" y="668"/>
      <point x="329" y="668" type="curve"/>
      <point x="384" y="668"/>
      <point x="422" y="655"/>
      <point x="461" y="628" type="curve"/>
      <point x="462" y="630" type="line"/>
      <point x="422" y="657"/>
      <point x="384" y="670"/>
    </contour>
    <contour>
      <point x="234" y="457" type="line"/>
      <point x="140" y="403"/>
      <point x="117" y="360"/>
      <point x="117" y="309" type="curve" smooth="yes"/>
      <point x="117" y="248"/>
      <point x="156" y="217"/>
      <point x="245" y="186" type="curve" smooth="yes"/>
      <point x="339" y="155"/>
      <point x="369" y="123"/>
      <point x="369" y="68" type="curve" smooth="yes"/>
      <point x="369" y="0"/>
      <point x="319" y="-57"/>
      <point x="217" y="-57" type="curve"/>
      <point x="160" y="-57"/>
      <point x="113" y="-44"/>
      <point x="77" y="-16" type="curve"/>
      <point x="76" y="-18" type="line"/>
      <point x="114" y="-46"/>
      <point x="160" y="-59"/>
      <point x="217" y="-59" type="curve"/>
      <point x="320" y="-59"/>
      <point x="371" y="-1"/>
      <point x="371" y="68" type="curve" smooth="yes"/>
      <point x="371" y="123"/>
      <point x="342" y="156"/>
      <point x="247" y="187" type="curve" smooth="yes"/>
      <point x="158" y="218"/>
      <point x="119" y="249"/>
      <point x="119" y="309" type="curve" smooth="yes"/>
      <point x="119" y="359"/>
      <point x="140" y="400"/>
      <point x="235" y="455" type="curve"/>
    </contour>
  </outline>
</glyph>
<glyph name="copyright" format="2">
  <advance width="810"/>
  <unicode hex="00A9"/>
  <outline>
    <contour>
      <point x="430" y="711" type="curve"/>
      <point x="275" y="711"/>
      <point x="163" y="596"/>
      <point x="163" y="435" type="curve"/>
      <point x="163" y="271"/>
      <point x="275" y="159"/>
      <point x="430" y="159" type="curve"/>
      <point x="585" y="159"/>
      <point x="697" y="274"/>
      <point x="697" y="435" type="curve"/>
      <point x="697" y="599"/>
      <point x="585" y="711"/>
    </contour>
    <contour>
      <point x="428" y="602" type="curve"/>
      <point x="372" y="602"/>
      <point x="302" y="557"/>
      <point x="302" y="437" type="curve" smooth="yes"/>
      <point x="302" y="323"/>
      <point x="358" y="271"/>
      <point x="426" y="271" type="curve"/>
      <point x="471" y="271"/>
      <point x="498" y="285"/>
      <point x="516" y="301" type="curve"/>
      <point x="515" y="303" type="line"/>
      <point x="496" y="287"/>
      <point x="471" y="273"/>
      <point x="426" y="273" type="curve"/>
      <point x="359" y="273"/>
      <point x="304" y="324"/>
      <point x="304" y="437" type="curve" smooth="yes"/>
      <point x="304" y="556"/>
      <point x="373" y="600"/>
      <point x="428" y="600" type="curve"/>
      <point x="465" y="600"/>
      <point x="487" y="588"/>
      <point x="504" y="574" type="curve"/>
      <point x="505" y="576" type="line"/>
      <point x="488" y="590"/>
      <point x="465" y="602"/>
    </contour>
    <contour>
      <point x="430" y="709" type="curve"/>
      <point x="584" y="709"/>
      <point x="695" y="598"/>
      <point x="695" y="435" type="curve"/>
      <point x="695" y="275"/>
      <point x="584" y="161"/>
      <point x="430" y="161" type="curve"/>
      <point x="276" y="161"/>
      <point x="165" y="272"/>
      <point x="165" y="435" type="curve"/>
      <point x="165" y="595"/>
      <point x="276" y="709"/>
    </contour>
  </outline>
</glyph>
<glyph name="registered" format="2">
  <advance width="634"/>
  <unicode hex="00AE"/>
  <outline>
    <contour>
      <point x="351" y="709" type="curve"/>
      <point x="215" y="709"/>
      <point x="144" y="614"/>
      <point x="144" y="499" type="curve"/>
      <point x="144" y="384"/>
      <point x="225" y="294"/>
      <point x="351" y="294" type="curve"/>
      <point x="487" y="294"/>
      <point x="558" y="389"/>
      <point x="558" y="504" type="curve"/>
      <point x="558" y="619"/>
      <point x="477" y="709"/>
    </contour>
    <contour>
      <point x="365" y="496" type="line"/>
      <point x="363" y="496" type="line"/>
      <point x="438" y="371" type="line"/>
      <point x="440" y="371" type="line"/>
    </contour>
    <contour>
      <point x="351" y="707" type="curve"/>
      <point x="477" y="707"/>
      <point x="556" y="617"/>
      <point x="556" y="504" type="curve"/>
      <point x="556" y="391"/>
      <point x="487" y="296"/>
      <point x="351" y="296" type="curve"/>
      <point x="225" y="296"/>
      <point x="146" y="386"/>
      <point x="146" y="499" type="curve"/>
      <point x="146" y="612"/>
      <point x="215" y="707"/>
    </contour>
    <contour>
      <point x="340" y="639" type="curve"/>
      <point x="284" y="639" type="line"/>
      <point x="284" y="372" type="line"/>
      <point x="286" y="372" type="line"/>
      <point x="286" y="637" type="line"/>
      <point x="340" y="637" type="line"/>
      <point x="396" y="637"/>
      <point x="429" y="614"/>
      <point x="429" y="566" type="curve"/>
      <point x="429" y="519"/>
      <point x="397" y="497"/>
      <point x="364" y="497" type="curve"/>
      <point x="285" y="497" type="line"/>
      <point x="285" y="495" type="line"/>
      <point x="364" y="495" type="line"/>
      <point x="365" y="495" type="line"/>
      <point x="398" y="495"/>
      <point x="431" y="518"/>
      <point x="431" y="566" type="curve"/>
      <point x="431" y="615"/>
      <point x="397" y="639"/>
    </contour>
  </outline>
</glyph>
<glyph name="degree" format="2">
  <advance width="521"/>
  <unicode hex="00B0"/>
  <outline>
    <contour>
      <point x="243" y="421" type="curve"/>
      <point x="334" y="421"/>
      <point x="389" y="493"/>
      <point x="389" y="580" type="curve" smooth="yes"/>
      <point x="389" y="645"/>
      <point x="350" y="690"/>
      <point x="280" y="690" type="curve"/>
      <point x="199" y="690"/>
      <point x="135" y="619"/>
      <point x="135" y="534" type="curve" smooth="yes"/>
      <point x="135" y="465"/>
      <point x="178" y="421"/>
    </contour>
    <contour>
      <point x="243" y="423" type="curve"/>
      <point x="179" y="423"/>
      <point x="137" y="466"/>
      <point x="137" y="534" type="curve" smooth="yes"/>
      <point x="137" y="618"/>
      <point x="200" y="688"/>
      <point x="280" y="688" type="curve"/>
      <point x="349" y="688"/>
      <point x="387" y="644"/>
      <point x="387" y="580" type="curve" smooth="yes"/>
      <point x="387" y="494"/>
      <point x="333" y="423"/>
    </contour>
  </outline>
</glyph>
<glyph name="paragraph" format="2">
  <advance width="683"/>
  <unicode hex="00B6"/>
  <outline>
    <contour>
      <point x="552" y="680" type="line"/>
      <point x="401" y="680" type="line"/>
      <point x="400" y="678" type="line"/>
      <point x="278" y="-190" type="line"/>
      <point x="280" y="-190" type="line"/>
      <point x="402" y="678" type="line"/>
      <point x="550" y="678" type="line"/>
      <point x="428" y="-190" type="line"/>
      <point x="430" y="-190" type="line"/>
    </contour>
    <contour>
      <point x="401" y="680" type="line"/>
      <point x="260" y="680"/>
      <point x="161" y="598"/>
      <point x="161" y="468" type="curve" smooth="yes"/>
      <point x="161" y="381"/>
      <point x="214" y="312"/>
      <point x="350" y="312" type="curve"/>
    </contour>
  </outline>
</glyph>
<glyph name="ordmasculine" format="2">
  <advance width="500"/>
  <unicode hex="00BA"/>
  <outline>
    <contour>
      <point x="310" y="680" type="curve" smooth="yes"/>
      <point x="184" y="680"/>
      <point x="117" y="561"/>
      <point x="117" y="431" type="curve" smooth="yes"/>
      <point x="117" y="334"/>
      <point x="166" y="278"/>
      <point x="252" y="278" type="curve" smooth="yes"/>
      <point x="377" y="278"/>
      <point x="445" y="398"/>
      <point x="445" y="529" type="curve" smooth="yes"/>
      <point x="445" y="625"/>
      <point x="395" y="680"/>
    </contour>
    <contour>
      <point x="310" y="678" type="curve" smooth="yes"/>
      <point x="394" y="678"/>
      <point x="443" y="624"/>
      <point x="443" y="529" type="curve" smooth="yes"/>
      <point x="443" y="399"/>
      <point x="376" y="280"/>
      <point x="252" y="280" type="curve" smooth="yes"/>
      <point x="167" y="280"/>
      <point x="119" y="335"/>
      <point x="119" y="431" type="curve" smooth="yes"/>
      <point x="119" y="560"/>
      <point x="185" y="678"/>
    </contour>
    <component base="minus" xOffset="-35" yOffset="-330"/>
  </outline>
</glyph>
<glyph name="Eth" format="2">
  <advance width="615"/>
  <unicode hex="00D0"/>
  <anchor x="254" y="0" name="bottom"/>
  <anchor x="323" y="340" name="center"/>
  <anchor x="350" y="680" name="top"/>
  <outline>
    <contour>
      <point x="345" y="354" type="line"/>
      <point x="147" y="354" type="line"/>
      <point x="53" y="354" type="line"/>
      <point x="53" y="352" type="line"/>
      <point x="345" y="352" type="line"/>
    </contour>
    <component base="D" xOffset="2"/>
  </outline>
</glyph>
<glyph name="multiply" format="2">
  <advance width="479"/>
  <unicode hex="00D7"/>
  <outline>
    <contour>
      <point x="397" y="444" type="line"/>
      <point x="247" y="309" type="line"/>
      <point x="133" y="444" type="line"/>
      <point x="131" y="443" type="line"/>
      <point x="245" y="308" type="line"/>
      <point x="94" y="172" type="line"/>
      <point x="96" y="171" type="line"/>
      <point x="247" y="307" type="line"/>
      <point x="360" y="171" type="line"/>
      <point x="362" y="172" type="line"/>
      <point x="249" y="308" type="line"/>
      <point x="399" y="443" type="line"/>
    </contour>
  </outline>
</glyph>
<glyph name="ae" format="2">
  <advance width="815"/>
  <unicode hex="00E6"/>
  <anchor x="369" y="0" name="bottom"/>
  <anchor x="446" y="517" name="top"/>
  <outline>
    <contour>
      <point x="285" y="527" type="curve" smooth="yes"/>
      <point x="239" y="527"/>
      <point x="191" y="516"/>
      <point x="133" y="493" type="curve"/>
      <point x="133" y="491" type="line"/>
      <point x="192" y="514"/>
      <point x="239" y="525"/>
      <point x="285" y="525" type="curve" smooth="yes"/>
      <point x="354" y="525"/>
      <point x="420" y="482"/>
      <point x="422" y="378" type="curve"/>
      <point x="408" y="348"/>
      <point x="402" y="328"/>
      <point x="394" y="295" type="curve"/>
      <point x="270" y="295" type="line" smooth="yes"/>
      <point x="109" y="295"/>
      <point x="46" y="214"/>
      <point x="46" y="119" type="curve" smooth="yes"/>
      <point x="46" y="45"/>
      <point x="90" y="-9"/>
      <point x="177" y="-9" type="curve" smooth="yes"/>
      <point x="263" y="-9"/>
      <point x="321" y="32"/>
      <point x="389" y="123" type="curve"/>
      <point x="408" y="39"/>
      <point x="461" y="-9"/>
      <point x="545" y="-9" type="curve" smooth="yes"/>
      <point x="610" y="-9"/>
      <point x="655" y="12"/>
      <point x="707" y="50" type="curve"/>
      <point x="706" y="52" type="line"/>
      <point x="654" y="14"/>
      <point x="610" y="-7"/>
      <point x="545" y="-7" type="curve" smooth="yes"/>
      <point x="403" y="-7"/>
      <point x="378" y="132"/>
      <point x="384" y="218" type="curve"/>
      <point x="654" y="231"/>
      <point x="771" y="306"/>
      <point x="771" y="414" type="curve" smooth="yes"/>
      <point x="771" y="488"/>
      <point x="712" y="527"/>
      <point x="634" y="527" type="curve" smooth="yes"/>
      <point x="490" y="527"/>
      <point x="437" y="408"/>
      <point x="424" y="382" type="curve"/>
      <point x="421" y="484"/>
      <point x="353" y="527"/>
    </contour>
    <contour>
      <point x="393" y="293" type="line"/>
      <point x="377" y="219"/>
      <point x="378" y="170"/>
      <point x="388" y="125" type="curve"/>
      <point x="321" y="37"/>
      <point x="265" y="-7"/>
      <point x="177" y="-7" type="curve" smooth="yes"/>
      <point x="91" y="-7"/>
      <point x="48" y="46"/>
      <point x="48" y="119" type="curve" smooth="yes"/>
      <point x="48" y="213"/>
      <point x="110" y="293"/>
      <point x="270" y="293" type="curve" smooth="yes"/>
    </contour>
    <contour>
      <point x="634" y="525" type="curve" smooth="yes"/>
      <point x="711" y="525"/>
      <point x="769" y="487"/>
      <point x="769" y="414" type="curve" smooth="yes"/>
      <point x="769" y="308"/>
      <point x="654" y="233"/>
      <point x="384" y="220" type="curve"/>
      <point x="391" y="301"/>
      <point x="435" y="525"/>
    </contour>
  </outline>
</glyph>
<glyph name="eth" format="2">
  <advance width="551"/>
  <unicode hex="00F0"/>
  <anchor x="226" y="0" name="bottom"/>
  <anchor x="354" y="727" name="top"/>
  <outline>
    <contour>
      <point x="218" y="734" type="curve"/>
      <point x="218" y="732" type="line"/>
      <point x="265" y="720"/>
      <point x="313" y="699"/>
      <point x="352" y="669" type="curve"/>
      <point x="464" y="581"/>
      <point x="474" y="458"/>
      <point x="464" y="335" type="curve"/>
      <point x="464" y="334" type="line"/>
      <point x="451" y="196"/>
      <point x="390" y="-9"/>
      <point x="226" y="-9" type="curve" smooth="yes"/>
      <point x="128" y="-9"/>
      <point x="73" y="64"/>
      <point x="73" y="174" type="curve" smooth="yes"/>
      <point x="73" y="278"/>
      <point x="130" y="455"/>
      <point x="287" y="455" type="curve" smooth="yes"/>
      <point x="371" y="455"/>
      <point x="425" y="405"/>
      <point x="465" y="332" type="curve"/>
      <point x="465" y="335" type="line"/>
      <point x="427" y="407"/>
      <point x="371" y="457"/>
      <point x="287" y="457" type="curve" smooth="yes"/>
      <point x="129" y="457"/>
      <point x="71" y="279"/>
      <point x="71" y="174" type="curve" smooth="yes"/>
      <point x="71" y="63"/>
      <point x="127" y="-11"/>
      <point x="226" y="-11" type="curve" smooth="yes"/>
      <point x="391" y="-11"/>
      <point x="469" y="200"/>
      <point x="469" y="409" type="curve" smooth="yes"/>
      <point x="469" y="527"/>
      <point x="430" y="612"/>
      <point x="354" y="670" type="curve"/>
      <point x="315" y="701"/>
      <point x="266" y="722"/>
    </contour>
    <contour>
      <point x="425" y="737" type="line"/>
      <point x="352" y="670" type="line"/>
      <point x="352" y="670" type="line"/>
      <point x="250" y="577" type="line"/>
      <point x="252" y="576" type="line"/>
      <point x="354" y="669" type="line"/>
      <point x="354" y="669" type="line"/>
      <point x="427" y="736" type="line"/>
    </contour>
  </outline>
</glyph>
<glyph name="oslash" format="2">
  <advance width="559"/>
  <unicode hex="00F8"/>
  <anchor x="241" y="0" name="bottom"/>
  <anchor x="316" y="517" name="top"/>
  <outline>
    <contour>
      <point x="242" y="-9" type="curve" smooth="yes"/>
      <point x="426" y="-9"/>
      <point x="484" y="198"/>
      <point x="484" y="328" type="curve" smooth="yes"/>
      <point x="484" y="455"/>
      <point x="423" y="527"/>
      <point x="318" y="527" type="curve" smooth="yes"/>
      <point x="136" y="527"/>
      <point x="75" y="325"/>
      <point x="75" y="192" type="curve" smooth="yes"/>
      <point x="75" y="65"/>
      <point x="136" y="-9"/>
    </contour>
    <contour>
      <point x="242" y="-7" type="curve" smooth="yes"/>
      <point x="137" y="-7"/>
      <point x="77" y="66"/>
      <point x="77" y="192" type="curve" smooth="yes"/>
      <point x="77" y="324"/>
      <point x="137" y="525"/>
      <point x="318" y="525" type="curve" smooth="yes"/>
      <point x="422" y="525"/>
      <point x="482" y="454"/>
      <point x="482" y="328" type="curve" smooth="yes"/>
      <point x="482" y="199"/>
      <point x="425" y="-7"/>
    </contour>
    <contour>
      <point x="161" y="9" type="line"/>
      <point x="104" y="-112" type="line"/>
      <point x="106" y="-112" type="line"/>
      <point x="163" y="8" type="line"/>
      <point x="164" y="10" type="line"/>
      <point x="397" y="508" type="line"/>
      <point x="398" y="510" type="line"/>
      <point x="454" y="630" type="line"/>
      <point x="452" y="630" type="line"/>
      <point x="396" y="511" type="line"/>
      <point x="395" y="509" type="line"/>
      <point x="162" y="11" type="line"/>
    </contour>
  </outline>
</glyph>
<glyph name="thorn" format="2">
  <advance width="565"/>
  <unicode hex="00FE"/>
  <anchor x="348.343" y="727" name="top"/>
  <outline>
    <contour>
      <point x="341" y="527" type="curve" smooth="yes"/>
      <point x="258" y="527"/>
      <point x="199.409" y="482.089"/>
      <point x="149.79" y="422.173" type="curve"/>
      <point x="193" y="730" type="line"/>
      <point x="191" y="730" type="line"/>
      <point x="62" y="-190" type="line"/>
      <point x="64" y="-189" type="line"/>
      <point x="94.183" y="26.029" type="line"/>
      <point x="149.047" y="1.715"/>
      <point x="188.796" y="-9"/>
      <point x="247" y="-9" type="curve" smooth="yes"/>
      <point x="423" y="-9"/>
      <point x="487" y="207"/>
      <point x="487" y="339" type="curve" smooth="yes"/>
      <point x="487" y="459"/>
      <point x="437" y="527"/>
    </contour>
    <contour>
      <point x="247" y="-7" type="curve" smooth="yes"/>
      <point x="190.15" y="-7"/>
      <point x="151.198" y="2.95"/>
      <point x="94.433" y="27.81" type="curve"/>
      <point x="149.443" y="419.7" type="line"/>
      <point x="203.981" y="483.731"/>
      <point x="259.717" y="525"/>
      <point x="341" y="525" type="curve" smooth="yes"/>
      <point x="436" y="525"/>
      <point x="485" y="458"/>
      <point x="485" y="339" type="curve" smooth="yes"/>
      <point x="485" y="208"/>
      <point x="422" y="-7"/>
    </contour>
  </outline>
</glyph>
<glyph name="dcroat" format="2">
  <advance width="567"/>
  <unicode hex="0111"/>
  <anchor x="247" y="0" name="bottom"/>
  <anchor x="283" y="259" name="center"/>
  <anchor x="339" y="727" name="top"/>
  <anchor x="556" y="727" name="topright"/>
  <outline>
    <contour>
      <point x="569" y="640" type="line"/>
      <point x="312" y="640" type="line"/>
      <point x="312" y="638" type="line"/>
      <point x="494" y="638" type="line"/>
      <point x="569" y="638" type="line"/>
    </contour>
    <component base="d"/>
  </outline>
</glyph>
<glyph name="Hbar" format="2">
  <advance width="668"/>
  <unicode hex="0126"/>
  <anchor x="311" y="0" name="bottom"/>
  <anchor x="505" y="0" name="bottomright"/>
  <anchor x="345" y="340" name="center"/>
  <anchor x="392" y="680" name="top"/>
  <anchor x="146" y="680" name="topleft"/>
  <outline>
    <contour>
      <point x="620" y="528" type="line"/>
      <point x="567" y="528" type="line"/>
      <point x="122" y="528" type="line"/>
      <point x="122" y="526" type="line"/>
      <point x="175" y="526" type="line"/>
      <point x="620" y="526" type="line"/>
    </contour>
    <component base="H" xOffset="7"/>
  </outline>
</glyph>
<glyph name="hbar" format="2">
  <advance width="580"/>
  <unicode hex="0127"/>
  <anchor x="257" y="0" name="bottom"/>
  <anchor x="281" y="259" name="center"/>
  <anchor x="321" y="727" name="top"/>
  <outline>
    <contour>
      <point x="373" y="640" type="line"/>
      <point x="105" y="640" type="line"/>
      <point x="105" y="638" type="line"/>
      <point x="179" y="638" type="line"/>
      <point x="373" y="638" type="line"/>
    </contour>
    <component base="h"/>
  </outline>
</glyph>
<glyph name="dotlessi" format="2">
  <advance width="252"/>
  <unicode hex="0131"/>
  <anchor x="90" y="0" name="bottom"/>
  <anchor x="101" y="0" name="ogonek"/>
  <anchor x="162" y="517" name="top"/>
  <outline>
    <contour>
      <point x="163" y="517" type="line"/>
      <point x="161" y="517" type="line"/>
      <point x="89" y="0" type="line"/>
      <point x="91" y="0" type="line"/>
    </contour>
  </outline>
</glyph>
<glyph name="kgreenlandic" format="2">
  <advance width="446"/>
  <unicode hex="0138"/>
  <anchor x="186.67" y="0" name="bottom"/>
  <anchor x="259.33" y="517" name="top"/>
  <outline>
    <contour>
      <point x="430" y="517" type="line"/>
      <point x="427" y="517" type="line"/>
      <point x="134" y="273" type="line"/>
      <point x="382" y="0" type="line"/>
      <point x="385" y="0" type="line"/>
      <point x="137" y="273" type="line"/>
    </contour>
    <contour>
      <point x="163" y="517" type="line"/>
      <point x="161" y="517" type="line"/>
      <point x="89" y="0" type="line"/>
      <point x="91" y="0" type="line"/>
    </contour>
  </outline>
</glyph>
<glyph name="Lslash" format="2">
  <advance width="455"/>
  <unicode hex="0141"/>
  <anchor x="249" y="0" name="bottom"/>
  <anchor x="373" y="355" name="center"/>
  <anchor x="200" y="680" name="top"/>
  <anchor x="261" y="680" name="topright"/>
  <outline>
    <contour>
      <point x="149" y="324" type="line"/>
      <point x="379" y="454" type="line"/>
      <point x="378" y="456" type="line"/>
      <point x="64" y="278" type="line"/>
      <point x="65" y="276" type="line"/>
    </contour>
    <component base="L" xOffset="10"/>
  </outline>
</glyph>
<glyph name="lslash" format="2">
  <advance width="275"/>
  <unicode hex="0142"/>
  <anchor x="138" y="0" name="bottom"/>
  <anchor x="272" y="375" name="center"/>
  <anchor x="187" y="730" name="top"/>
  <anchor x="237" y="727" name="topright"/>
  <outline>
    <contour>
      <point x="259" y="444" type="line"/>
      <point x="61" y="329" type="line"/>
      <point x="62" y="327" type="line"/>
      <point x="260" y="442" type="line"/>
    </contour>
    <component base="l"/>
  </outline>
</glyph>
<glyph name="napostrophe" format="2">
  <advance width="636"/>
  <unicode hex="0149"/>
  <anchor x="313" y="0" name="bottom"/>
  <anchor x="386" y="517" name="top"/>
  <anchor x="207" y="517" name="topleft"/>
  <outline>
    <contour>
      <point x="162" y="733" type="curve" smooth="yes"/>
      <point x="159" y="733"/>
      <point x="157" y="731"/>
      <point x="157" y="728" type="curve" smooth="yes"/>
      <point x="157" y="725"/>
      <point x="159" y="723"/>
      <point x="162" y="723" type="curve"/>
      <point x="122" y="601" type="line"/>
      <point x="123" y="601" type="line"/>
      <point x="164" y="717" type="line" smooth="yes"/>
      <point x="166" y="722"/>
      <point x="167" y="726"/>
      <point x="167" y="728" type="curve" smooth="yes"/>
      <point x="167" y="731"/>
      <point x="165" y="733"/>
    </contour>
    <component base="n" xOffset="56"/>
  </outline>
</glyph>
<glyph name="oe" format="2">
  <advance width="917"/>
  <unicode hex="0153"/>
  <anchor x="451" y="0" name="bottom"/>
  <anchor x="499" y="517" name="top"/>
  <outline>
    <contour>
      <point x="318" y="527" type="curve" smooth="yes"/>
      <point x="136" y="527"/>
      <point x="75" y="325"/>
      <point x="75" y="192" type="curve" smooth="yes"/>
      <point x="75" y="65"/>
      <point x="136" y="-9"/>
      <point x="242" y="-9" type="curve" smooth="yes"/>
      <point x="426" y="-9"/>
      <point x="484" y="198"/>
      <point x="484" y="328" type="curve" smooth="yes"/>
      <point x="484" y="455"/>
      <point x="423" y="527"/>
    </contour>
    <contour>
      <point x="318" y="525" type="curve" smooth="yes"/>
      <point x="422" y="525"/>
      <point x="482" y="454"/>
      <point x="482" y="328" type="curve" smooth="yes"/>
      <point x="482" y="199"/>
      <point x="425" y="-7"/>
      <point x="242" y="-7" type="curve" smooth="yes"/>
      <point x="137" y="-7"/>
      <point x="77" y="66"/>
      <point x="77" y="192" type="curve" smooth="yes"/>
      <point x="77" y="324"/>
      <point x="137" y="525"/>
    </contour>
    <contour>
      <point x="725" y="527" type="curve"/>
      <point x="533" y="527"/>
      <point x="472" y="310"/>
      <point x="472" y="190" type="curve"/>
      <point x="472" y="61"/>
      <point x="534" y="-9"/>
      <point x="636" y="-9" type="curve"/>
      <point x="701" y="-9"/>
      <point x="746" y="12"/>
      <point x="798" y="50" type="curve"/>
      <point x="797" y="52" type="line"/>
      <point x="745" y="14"/>
      <point x="701" y="-7"/>
      <point x="636" y="-7" type="curve"/>
      <point x="535" y="-7"/>
      <point x="474" y="62"/>
      <point x="474" y="190" type="curve"/>
      <point x="474" y="310"/>
      <point x="535" y="525"/>
      <point x="725" y="525" type="curve"/>
      <point x="801" y="525"/>
      <point x="860" y="487"/>
      <point x="860" y="414" type="curve"/>
      <point x="860" y="308"/>
      <point x="745" y="233"/>
      <point x="474" y="220" type="curve"/>
      <point x="474" y="218" type="line"/>
      <point x="745" y="231"/>
      <point x="862" y="306"/>
      <point x="862" y="414" type="curve"/>
      <point x="862" y="488"/>
      <point x="802" y="527"/>
    </contour>
  </outline>
</glyph>
<glyph name="tbar" format="2">
  <advance width="322"/>
  <unicode hex="0167"/>
  <anchor x="189" y="0" name="bottom"/>
  <anchor x="145" y="259" name="center"/>
  <anchor x="173" y="649" name="top"/>
  <anchor x="243" y="730" name="topright"/>
  <outline>
    <contour>
      <point x="277" y="335" type="line"/>
      <point x="129" y="335" type="line"/>
      <point x="42" y="335" type="line"/>
      <point x="42" y="333" type="line"/>
      <point x="277" y="333" type="line"/>
    </contour>
    <component base="t"/>
  </outline>
</glyph>
<glyph name="bstroke" format="2">
  <advance width="562"/>
  <unicode hex="0180"/>
  <anchor x="245" y="0" name="bottom"/>
  <anchor x="352" y="727" name="top"/>
  <outline>
    <contour>
      <point x="373" y="640" type="line"/>
      <point x="105" y="640" type="line"/>
      <point x="105" y="638" type="line"/>
      <point x="179" y="638" type="line"/>
      <point x="373" y="638" type="line"/>
    </contour>
    <component base="b"/>
  </outline>
</glyph>
<glyph name="dtopbar" format="2">
  <advance width="572"/>
  <unicode hex="018C"/>
  <anchor x="249.67" y="0" name="bottom"/>
  <anchor x="351.843" y="727" name="top"/>
  <outline>
    <contour>
      <point x="271" y="725" type="line"/>
      <point x="511" y="725" type="line"/>
      <point x="512" y="727" type="line"/>
      <point x="271" y="727" type="line"/>
    </contour>
    <contour>
      <point x="511" y="727" type="line"/>
      <point x="468.417" y="423.595" type="line"/>
      <point x="450.018" y="473.162"/>
      <point x="404.076" y="527"/>
      <point x="318" y="527" type="curve" smooth="yes"/>
      <point x="139" y="527"/>
      <point x="80" y="315"/>
      <point x="80" y="182" type="curve" smooth="yes"/>
      <point x="80" y="61"/>
      <point x="139" y="-9"/>
      <point x="229" y="-9" type="curve" smooth="yes"/>
      <point x="326.157" y="-9"/>
      <point x="383" y="65"/>
      <point x="430" y="149" type="curve"/>
      <point x="409" y="0" type="line"/>
      <point x="411" y="0" type="line"/>
      <point x="513" y="727" type="line"/>
    </contour>
    <contour>
      <point x="318" y="525" type="curve" smooth="yes"/>
      <point x="402.731" y="525"/>
      <point x="448" y="474"/>
      <point x="468" y="420" type="curve"/>
      <point x="430" y="152" type="line"/>
      <point x="383" y="68"/>
      <point x="326.395" y="-7"/>
      <point x="229" y="-7" type="curve" smooth="yes"/>
      <point x="140" y="-7"/>
      <point x="82" y="62"/>
      <point x="82" y="182" type="curve" smooth="yes"/>
      <point x="82" y="314"/>
      <point x="140" y="525"/>
    </contour>
  </outline>
</glyph>
<glyph name="Iotaafrican" format="2">
  <advance width="313"/>
  <unicode hex="0196"/>
  <anchor x="121" y="0" name="bottom"/>
  <anchor x="180" y="680" name="top"/>
  <outline>
    <contour>
      <point x="181" y="680" type="line"/>
      <point x="179" y="680" type="line"/>
      <point x="109" y="183" type="line"/>
      <point x="111" y="183" type="line"/>
    </contour>
    <component base="hookHELPERright.case" xOffset="102" yOffset="183"/>
  </outline>
</glyph>
<glyph name="Nhookleft" format="2">
  <advance width="654"/>
  <unicode hex="019D"/>
  <anchor x="285" y="0" name="bottom"/>
  <anchor x="390" y="680" name="top"/>
  <outline>
    <contour>
      <point x="-15" y="-192" type="curve" smooth="yes"/>
      <point x="35" y="-192"/>
      <point x="74" y="-159"/>
      <point x="83" y="-97" type="curve" smooth="yes"/>
      <point x="96" y="0" type="line"/>
      <point x="94" y="0" type="line"/>
      <point x="81" y="-97" type="line" smooth="yes"/>
      <point x="72" y="-158"/>
      <point x="34" y="-190"/>
      <point x="-15" y="-190" type="curve" smooth="yes"/>
      <point x="-52" y="-190"/>
      <point x="-72" y="-178"/>
      <point x="-89" y="-162" type="curve"/>
      <point x="-90" y="-164" type="line"/>
      <point x="-74" y="-179"/>
      <point x="-53" y="-192"/>
    </contour>
    <component base="N"/>
  </outline>
</glyph>
<glyph name="phook" format="2">
  <advance width="567"/>
  <unicode hex="01A5"/>
  <anchor x="349.343" y="727" name="top"/>
  <outline>
    <contour>
      <point x="63" y="-189" type="line"/>
      <point x="65" y="-189" type="line"/>
      <point x="95" y="26" type="line"/>
      <point x="151" y="2"/>
      <point x="191" y="-9"/>
      <point x="251" y="-9" type="curve" smooth="yes"/>
      <point x="425" y="-9"/>
      <point x="489" y="207"/>
      <point x="489" y="339" type="curve" smooth="yes"/>
      <point x="489" y="459"/>
      <point x="439" y="527"/>
      <point x="343" y="527" type="curve" smooth="yes"/>
      <point x="260" y="527"/>
      <point x="200" y="483"/>
      <point x="150" y="420" type="curve"/>
      <point x="163" y="516" type="line"/>
      <point x="161" y="516" type="line"/>
    </contour>
    <contour>
      <point x="251" y="-7" type="curve" smooth="yes"/>
      <point x="192" y="-7"/>
      <point x="153" y="3"/>
      <point x="95" y="28" type="curve"/>
      <point x="150" y="418" type="line"/>
      <point x="205" y="484"/>
      <point x="261" y="525"/>
      <point x="343" y="525" type="curve" smooth="yes"/>
      <point x="438" y="525"/>
      <point x="487" y="458"/>
      <point x="487" y="339" type="curve" smooth="yes"/>
      <point x="487" y="208"/>
      <point x="424" y="-7"/>
    </contour>
    <component base="hookaboveHELPER" xOffset="82"/>
  </outline>
</glyph>
<glyph name="Zstroke" format="2">
  <advance width="504"/>
  <unicode hex="01B5"/>
  <anchor x="215.67" y="0" name="bottom"/>
  <anchor x="311.238" y="680" name="top"/>
  <outline>
    <contour>
      <point x="9" y="0" type="line"/>
      <point x="401" y="0" type="line"/>
      <point x="401" y="2" type="line"/>
      <point x="12" y="2" type="line"/>
      <point x="513" y="678" type="line"/>
      <point x="513" y="680" type="line"/>
      <point x="141" y="680" type="line"/>
      <point x="141" y="678" type="line"/>
      <point x="510" y="678" type="line"/>
      <point x="9" y="2" type="line"/>
    </contour>
    <component base="hyphen" xScale="1.1" xOffset="32" yOffset="30"/>
  </outline>
</glyph>
<glyph name="zstroke" format="2">
  <advance width="410"/>
  <unicode hex="01B6"/>
  <anchor x="168.67" y="0" name="bottom"/>
  <anchor x="241.33" y="517" name="top"/>
  <outline>
    <contour>
      <point x="406" y="517" type="line"/>
      <point x="102" y="517" type="line"/>
      <point x="102" y="515" type="line"/>
      <point x="403" y="515" type="line"/>
      <point x="-1" y="2" type="line"/>
      <point x="-1" y="0" type="line"/>
      <point x="323" y="0" type="line"/>
      <point x="323" y="2" type="line"/>
      <point x="2" y="2" type="line"/>
      <point x="406" y="515" type="line"/>
    </contour>
    <component base="hyphen" yOffset="-45"/>
  </outline>
</glyph>
<glyph name="Ezhreversed" format="2">
  <advance width="466"/>
  <unicode hex="01B8"/>
  <anchor x="196.67" y="0" name="bottom"/>
  <anchor x="292.238" y="680" name="top"/>
  <outline>
    <contour>
      <point x="204" y="-9" type="curve" smooth="yes"/>
      <point x="301" y="-9"/>
      <point x="357" y="21"/>
      <point x="409" y="69" type="curve"/>
      <point x="407" y="70" type="line"/>
      <point x="355" y="22"/>
      <point x="300" y="-7"/>
      <point x="204" y="-7" type="curve" smooth="yes"/>
      <point x="101" y="-7"/>
      <point x="40" y="57"/>
      <point x="40" y="152" type="curve" smooth="yes"/>
      <point x="40" y="281"/>
      <point x="134" y="361"/>
      <point x="278" y="361" type="curve" smooth="yes"/>
      <point x="349" y="361" type="line"/>
      <point x="347" y="363" type="line"/>
      <point x="278" y="363" type="line"/>
      <point x="134" y="363"/>
      <point x="38" y="283"/>
      <point x="38" y="152" type="curve" smooth="yes"/>
      <point x="38" y="56"/>
      <point x="100" y="-9"/>
    </contour>
    <contour>
      <point x="349" y="363" type="line"/>
      <point x="141" y="678" type="line"/>
      <point x="487" y="678" type="line"/>
      <point x="487" y="680" type="line"/>
      <point x="138" y="680" type="line"/>
      <point x="138" y="678" type="line"/>
      <point x="346" y="363" type="line"/>
      <point x="349" y="361" type="line"/>
    </contour>
  </outline>
</glyph>
<glyph name="glottalinvertedstroke" format="2">
  <advance width="489"/>
  <unicode hex="01BE"/>
  <anchor x="188" y="0" name="bottom"/>
  <anchor x="245" y="727" name="top"/>
  <outline>
    <contour>
      <point x="150" y="585" type="line"/>
      <point x="150" y="583" type="line"/>
      <point x="223" y="583" type="line"/>
      <point x="345" y="583" type="line"/>
      <point x="345" y="585" type="line"/>
    </contour>
    <component base="glottalstopinverted"/>
  </outline>
</glyph>
<glyph name="dotlessj" format="2">
  <advance width="251.859"/>
  <unicode hex="0237"/>
  <anchor x="63" y="-188" name="bottom"/>
  <anchor x="162" y="517" name="top"/>
  <outline>
    <contour>
      <point x="-34" y="-191" type="line"/>
      <point x="41" y="-154"/>
      <point x="74" y="-118"/>
      <point x="91" y="1" type="curve" smooth="yes"/>
      <point x="163" y="517" type="line"/>
      <point x="161" y="517" type="line"/>
      <point x="89" y="1" type="line" smooth="yes"/>
      <point x="73" y="-117"/>
      <point x="39" y="-153"/>
      <point x="-35" y="-190" type="curve"/>
    </contour>
  </outline>
</glyph>
<glyph name="Cstroke" format="2">
  <advance width="530"/>
  <unicode hex="023B"/>
  <anchor x="228.67" y="0" name="bottom"/>
  <anchor x="324.238" y="680" name="top"/>
  <outline>
    <contour>
      <point x="463" y="728" type="line"/>
      <point x="147" y="-57" type="line"/>
      <point x="149" y="-57" type="line"/>
      <point x="465" y="728" type="line"/>
    </contour>
    <component base="C"/>
  </outline>
</glyph>
<glyph name="cstroke" format="2">
  <advance width="469"/>
  <unicode hex="023C"/>
  <anchor x="249" y="-1" name="bottom"/>
  <anchor x="305" y="517" name="top"/>
  <outline>
    <contour>
      <point x="392" y="580" type="line"/>
      <point x="127" y="-57" type="line"/>
      <point x="129" y="-57" type="line"/>
      <point x="394" y="580" type="line"/>
    </contour>
    <component base="c"/>
  </outline>
</glyph>
<glyph name="Tdiagonalstroke" format="2">
  <advance width="472"/>
  <unicode hex="023E"/>
  <anchor x="199.67" y="0" name="bottom"/>
  <anchor x="295.238" y="680" name="top"/>
  <outline>
    <contour>
      <point x="403" y="728" type="line"/>
      <point x="87" y="-57" type="line"/>
      <point x="89" y="-57" type="line"/>
      <point x="405" y="728" type="line"/>
    </contour>
    <contour>
      <point x="511" y="680" type="line"/>
      <point x="79" y="680" type="line"/>
      <point x="79" y="678" type="line"/>
      <point x="294" y="678" type="line"/>
      <point x="199" y="0" type="line"/>
      <point x="201" y="0" type="line"/>
      <point x="296" y="678" type="line"/>
      <point x="511" y="678" type="line"/>
    </contour>
  </outline>
</glyph>
<glyph name="zswashtail" format="2">
  <advance width="410"/>
  <unicode hex="0240"/>
  <anchor x="241.33" y="517" name="top"/>
  <outline>
    <contour>
      <point x="277" y="-192" type="curve" smooth="yes"/>
      <point x="306" y="-192"/>
      <point x="330" y="-181"/>
      <point x="349" y="-166" type="curve"/>
      <point x="347" y="-165" type="line"/>
      <point x="329" y="-179"/>
      <point x="306" y="-190"/>
      <point x="277" y="-190" type="curve" smooth="yes"/>
      <point x="156" y="-190"/>
      <point x="195" y="-25"/>
      <point x="2" y="2" type="curve"/>
      <point x="406" y="515" type="line"/>
      <point x="406" y="517" type="line"/>
      <point x="102" y="517" type="line"/>
      <point x="102" y="515" type="line"/>
      <point x="403" y="515" type="line"/>
      <point x="-1" y="2" type="line"/>
      <point x="-1" y="0" type="line"/>
      <point x="193" y="-25"/>
      <point x="154" y="-192"/>
    </contour>
  </outline>
</glyph>
<glyph name="Ubar" format="2">
  <advance width="670"/>
  <unicode hex="0244"/>
  <anchor x="299" y="0" name="bottom"/>
  <anchor x="380" y="0" name="ogonek"/>
  <anchor x="395" y="680" name="top"/>
  <anchor x="602" y="680" name="topright"/>
  <outline>
    <contour>
      <point x="622" y="528" type="line"/>
      <point x="569" y="528" type="line"/>
      <point x="122" y="528" type="line"/>
      <point x="122" y="526" type="line"/>
      <point x="175" y="526" type="line"/>
      <point x="622" y="526" type="line"/>
    </contour>
    <component base="U" xOffset="18"/>
  </outline>
</glyph>
<glyph name="Estroke" format="2">
  <advance width="495"/>
  <unicode hex="0246"/>
  <anchor x="211.17" y="0" name="bottom"/>
  <anchor x="389" y="0" name="ogonek"/>
  <anchor x="306.738" y="680" name="top"/>
  <anchor x="139" y="680" name="topleft"/>
  <outline>
    <contour>
      <point x="453" y="728" type="line"/>
      <point x="137" y="-57" type="line"/>
      <point x="139" y="-57" type="line"/>
      <point x="455" y="728" type="line"/>
    </contour>
    <component base="E"/>
  </outline>
</glyph>
<glyph name="qhooktail" format="2">
  <advance width="549"/>
  <unicode hex="024B"/>
  <anchor x="310.83" y="517" name="top"/>
  <outline>
    <contour>
      <point x="421" y="-192" type="curve" smooth="yes"/>
      <point x="435" y="-192"/>
      <point x="449" y="-189"/>
      <point x="463" y="-184" type="curve"/>
      <point x="463" y="-182" type="line"/>
      <point x="449" y="-187"/>
      <point x="435" y="-190"/>
      <point x="421" y="-190" type="curve" smooth="yes"/>
      <point x="381" y="-190"/>
      <point x="367" y="-163"/>
      <point x="373" y="-119" type="curve" smooth="yes"/>
      <point x="390" y="1" type="line"/>
      <point x="388" y="1" type="line"/>
      <point x="371" y="-119" type="line" smooth="yes"/>
      <point x="365" y="-164"/>
      <point x="380" y="-192"/>
    </contour>
    <contour>
      <point x="337" y="527" type="curve" smooth="yes"/>
      <point x="139" y="527"/>
      <point x="74" y="326"/>
      <point x="74" y="183" type="curve" smooth="yes"/>
      <point x="74" y="72"/>
      <point x="129" y="-9"/>
      <point x="227" y="-9" type="curve" smooth="yes"/>
      <point x="291" y="-9"/>
      <point x="358" y="31"/>
      <point x="405" y="118" type="curve"/>
      <point x="388" y="1" type="line"/>
      <point x="390" y="1" type="line"/>
      <point x="462" y="487" type="line"/>
      <point x="428" y="511"/>
      <point x="387" y="527"/>
    </contour>
    <contour>
      <point x="337" y="525" type="curve" smooth="yes"/>
      <point x="386" y="525"/>
      <point x="426" y="510"/>
      <point x="460" y="486" type="curve"/>
      <point x="406" y="124" type="line"/>
      <point x="358" y="33"/>
      <point x="291" y="-7"/>
      <point x="227" y="-7" type="curve" smooth="yes"/>
      <point x="130" y="-7"/>
      <point x="76" y="73"/>
      <point x="76" y="183" type="curve" smooth="yes"/>
      <point x="76" y="325"/>
      <point x="140" y="525"/>
    </contour>
  </outline>
</glyph>
<glyph name="Rstroke" format="2">
  <advance width="556"/>
  <unicode hex="024C"/>
  <anchor x="260" y="0" name="bottom"/>
  <anchor x="335" y="680" name="top"/>
  <outline>
    <contour>
      <point x="217" y="334" type="line"/>
      <point x="211" y="336" type="line"/>
      <point x="136" y="336" type="line"/>
      <point x="41" y="336" type="line"/>
      <point x="41" y="334" type="line"/>
    </contour>
    <component base="R" xOffset="-5"/>
  </outline>
</glyph>
<glyph name="Ystroke" format="2">
  <advance width="480"/>
  <unicode hex="024E"/>
  <anchor x="203.67" y="0" name="bottom"/>
  <anchor x="299.238" y="680" name="top"/>
  <outline>
    <contour>
      <point x="500" y="578" type="line"/>
      <point x="446" y="578" type="line"/>
      <point x="124" y="578" type="line"/>
      <point x="70" y="578" type="line"/>
      <point x="70" y="576" type="line"/>
      <point x="500" y="576" type="line"/>
    </contour>
    <contour>
      <point x="514" y="680" type="line"/>
      <point x="512" y="680" type="line"/>
      <point x="242" y="273" type="line"/>
      <point x="87" y="680" type="line"/>
      <point x="85" y="680" type="line"/>
      <point x="241" y="271" type="line"/>
      <point x="204" y="0" type="line"/>
      <point x="206" y="0" type="line"/>
      <point x="243" y="271" type="line"/>
    </contour>
  </outline>
</glyph>
<glyph name="ystroke" format="2">
  <advance width="424"/>
  <unicode hex="024F"/>
  <anchor x="152" y="-188" name="bottom"/>
  <anchor x="249" y="517" name="top"/>
  <outline>
    <contour>
      <point x="46" y="380" type="line"/>
      <point x="417" y="380" type="line"/>
      <point x="417" y="382" type="line"/>
      <point x="371" y="382" type="line"/>
      <point x="93" y="382" type="line"/>
      <point x="46" y="382" type="line"/>
    </contour>
    <component base="y" xOffset="-4"/>
  </outline>
</glyph>
<glyph name="jdotlessstroke" format="2">
  <advance width="280"/>
  <unicode hex="025F"/>
  <anchor x="77" y="-188" name="bottom"/>
  <anchor x="176" y="517" name="top"/>
  <outline>
    <contour>
      <point x="24" y="243" type="line"/>
      <point x="137" y="243" type="line"/>
      <point x="254" y="243" type="line"/>
      <point x="254" y="245" type="line"/>
      <point x="24" y="245" type="line"/>
    </contour>
    <component base="dotlessj" xOffset="14"/>
  </outline>
</glyph>
<glyph name="hturned" format="2">
  <advance width="574"/>
  <unicode hex="0265"/>
  <anchor x="217" y="-188" name="bottom"/>
  <anchor x="320" y="517" name="top"/>
  <outline>
    <contour>
      <point x="215" y="-10" type="curve" smooth="yes"/>
      <point x="301" y="-10"/>
      <point x="373" y="44"/>
      <point x="442" y="182" type="curve"/>
      <point x="390" y="-191" type="line"/>
      <point x="392" y="-191" type="line"/>
      <point x="491" y="517" type="line"/>
      <point x="489" y="517" type="line"/>
      <point x="443" y="188" type="line"/>
      <point x="372" y="46"/>
      <point x="301" y="-8"/>
      <point x="215" y="-8" type="curve" smooth="yes"/>
      <point x="123" y="-8"/>
      <point x="93" y="51"/>
      <point x="106" y="149" type="curve" smooth="yes"/>
      <point x="158" y="517" type="line"/>
      <point x="156" y="517" type="line"/>
      <point x="104" y="149" type="line" smooth="yes"/>
      <point x="91" y="50"/>
      <point x="122" y="-10"/>
    </contour>
  </outline>
</glyph>
<glyph name="Ismall" format="2">
  <advance width="300"/>
  <unicode hex="026A"/>
  <anchor x="114" y="0" name="bottom"/>
  <anchor x="186" y="517" name="top"/>
  <outline>
    <contour>
      <point x="113" y="0" type="line"/>
      <point x="115" y="0" type="line"/>
      <point x="187" y="517" type="line"/>
      <point x="185" y="517" type="line"/>
    </contour>
    <contour>
      <point x="-1" y="0" type="line"/>
      <point x="229" y="0" type="line"/>
      <point x="229" y="2" type="line"/>
      <point x="-1" y="2" type="line"/>
    </contour>
    <contour>
      <point x="71" y="515" type="line"/>
      <point x="301" y="515" type="line"/>
      <point x="301" y="517" type="line"/>
      <point x="71" y="517" type="line"/>
    </contour>
  </outline>
</glyph>
<glyph name="lbelt" format="2">
  <advance width="296"/>
  <unicode hex="026C"/>
  <anchor x="159" y="0" name="bottom"/>
  <anchor x="293" y="375" name="center"/>
  <anchor x="208" y="730" name="top"/>
  <anchor x="258" y="727" name="topright"/>
  <outline>
    <contour>
      <point x="145" y="290" type="curve"/>
      <point x="147" y="290" type="line"/>
      <point x="181" y="291"/>
      <point x="200" y="293"/>
      <point x="228" y="298" type="curve"/>
      <point x="228" y="300" type="line"/>
      <point x="201" y="295"/>
      <point x="181" y="293"/>
      <point x="147" y="292" type="curve"/>
      <point x="145" y="292" type="line"/>
      <point x="82" y="292"/>
      <point x="50" y="314"/>
      <point x="50" y="357" type="curve" smooth="yes"/>
      <point x="50" y="406"/>
      <point x="89" y="433"/>
      <point x="138" y="433" type="curve" smooth="yes"/>
      <point x="149" y="433"/>
      <point x="158" y="432"/>
      <point x="166" y="431" type="curve"/>
      <point x="166" y="433" type="line"/>
      <point x="158" y="434"/>
      <point x="149" y="435"/>
      <point x="138" y="435" type="curve" smooth="yes"/>
      <point x="88" y="435"/>
      <point x="48" y="407"/>
      <point x="48" y="357" type="curve" smooth="yes"/>
      <point x="48" y="313"/>
      <point x="81" y="290"/>
    </contour>
    <component base="l" xOffset="21"/>
  </outline>
</glyph>
<glyph name="lhookretroflex" format="2">
  <advance width="252"/>
  <unicode hex="026D"/>
  <anchor x="146" y="-188" name="bottom"/>
  <anchor x="191" y="727" name="top"/>
  <outline>
    <contour>
      <point x="193" y="730" type="line"/>
      <point x="191" y="730" type="line"/>
      <point x="89" y="0" type="line"/>
      <point x="91" y="0" type="line"/>
    </contour>
    <component base="hookHELPERright" xOffset="82"/>
  </outline>
</glyph>
<glyph name="rlonglegturned" format="2">
  <advance width="361"/>
  <unicode hex="027A"/>
  <anchor x="301" y="727" name="top"/>
  <anchor x="140" y="0" name="bottom"/>
  <outline>
    <contour>
      <point x="270" y="517" type="line"/>
      <point x="272" y="517" type="line"/>
      <point x="302" y="730" type="line"/>
      <point x="300" y="730" type="line"/>
    </contour>
    <component base="rturned"/>
  </outline>
</glyph>
<glyph name="rhookturned" format="2">
  <advance width="361"/>
  <unicode hex="027B"/>
  <anchor x="150" y="-188" name="bottom"/>
  <anchor x="271" y="517" name="top"/>
  <outline>
    <contour>
      <point x="34" y="-10" type="curve" smooth="yes"/>
      <point x="116" y="-10"/>
      <point x="172" y="31"/>
      <point x="220" y="160" type="curve"/>
      <point x="198" y="0" type="line"/>
      <point x="200" y="0" type="line"/>
      <point x="272" y="517" type="line"/>
      <point x="270" y="517" type="line"/>
      <point x="221" y="168" type="line"/>
      <point x="171" y="32"/>
      <point x="115" y="-8"/>
      <point x="34" y="-8" type="curve" smooth="yes"/>
      <point x="17" y="-8"/>
      <point x="1" y="-5"/>
      <point x="-11" y="-1" type="curve"/>
      <point x="-12" y="-3" type="line"/>
      <point x="1" y="-7"/>
      <point x="16" y="-10"/>
    </contour>
    <component base="hookHELPERright" xOffset="191"/>
  </outline>
</glyph>
<glyph name="rlongleg" format="2">
  <advance width="361"/>
  <unicode hex="027C"/>
  <anchor x="64" y="-188" name="bottom"/>
  <anchor x="266" y="517" name="top"/>
  <outline>
    <contour>
      <point x="327" y="527" type="curve" smooth="yes"/>
      <point x="245" y="527"/>
      <point x="189" y="486"/>
      <point x="141" y="357" type="curve"/>
      <point x="163" y="517" type="line"/>
      <point x="161" y="517" type="line"/>
      <point x="63" y="-191" type="line"/>
      <point x="65" y="-191" type="line"/>
      <point x="140" y="349" type="line"/>
      <point x="190" y="485"/>
      <point x="245.938" y="525"/>
      <point x="327" y="525" type="curve" smooth="yes"/>
      <point x="344" y="525"/>
      <point x="360" y="522"/>
      <point x="372" y="518" type="curve"/>
      <point x="373" y="520" type="line"/>
      <point x="360" y="524"/>
      <point x="345" y="527"/>
    </contour>
  </outline>
</glyph>
<glyph name="rfishhook" format="2">
  <advance width="315"/>
  <unicode hex="027E"/>
  <anchor x="85" y="0" name="bottom"/>
  <anchor x="240" y="518" name="top"/>
  <outline>
    <contour>
      <point x="131" y="328" type="line"/>
      <point x="129" y="328" type="line"/>
      <point x="84" y="0" type="line"/>
      <point x="86" y="0" type="line"/>
    </contour>
    <component base="hookHELPER" xScale="-1" yScale="-1" xOffset="299" yOffset="328"/>
  </outline>
</glyph>
<glyph name="rfishhookreversed" format="2">
  <advance width="315"/>
  <unicode hex="027F"/>
  <anchor x="159" y="0" name="bottom"/>
  <anchor x="150" y="517" name="top"/>
  <outline>
    <contour>
      <point x="207" y="335" type="line"/>
      <point x="205" y="335" type="line"/>
      <point x="158" y="0" type="line"/>
      <point x="160" y="0" type="line"/>
    </contour>
    <component base="hookHELPERright" xScale="-1" yScale="-1" xOffset="214" yOffset="335"/>
  </outline>
</glyph>
<glyph name="esh" format="2">
  <advance width="252"/>
  <unicode hex="0283"/>
  <anchor x="-20" y="-188" name="bottom"/>
  <anchor x="275" y="727" name="top"/>
  <outline>
    <contour>
      <point x="163" y="517" type="line"/>
      <point x="161" y="517" type="line"/>
      <point x="89" y="0" type="line"/>
      <point x="91" y="0" type="line"/>
    </contour>
    <component base="hookHELPER" xOffset="-79"/>
    <component base="hookaboveHELPER2" xOffset="82"/>
  </outline>
</glyph>
<glyph name="jdotlessstrokehook" format="2">
  <advance width="280"/>
  <unicode hex="0284"/>
  <anchor x="81" y="-188" name="bottom"/>
  <anchor x="305" y="727" name="top"/>
  <outline>
    <contour>
      <point x="-20" y="-191" type="line"/>
      <point x="55" y="-154"/>
      <point x="88" y="-118"/>
      <point x="105" y="1" type="curve" smooth="yes"/>
      <point x="177" y="517" type="line"/>
      <point x="175" y="517" type="line"/>
      <point x="103" y="1" type="line" smooth="yes"/>
      <point x="87" y="-117"/>
      <point x="53" y="-153"/>
      <point x="-21" y="-190" type="curve"/>
    </contour>
    <contour>
      <point x="-12" y="0" type="line"/>
      <point x="218" y="0" type="line"/>
      <point x="218" y="2" type="line"/>
      <point x="-12" y="2" type="line"/>
    </contour>
    <component base="hookaboveHELPER2" xOffset="96"/>
  </outline>
</glyph>
<glyph name="eshsquatreversed" format="2">
  <advance width="384"/>
  <unicode hex="0285"/>
  <anchor x="155" y="0" name="bottom"/>
  <anchor x="229" y="517" name="top"/>
  <outline>
    <contour>
      <point x="204" y="335" type="line"/>
      <point x="202" y="335" type="line"/>
      <point x="180" y="183" type="line"/>
      <point x="182" y="183" type="line"/>
    </contour>
    <component base="hookHELPERright" xScale="-1" yScale="-1" xOffset="211" yOffset="335"/>
    <component base="hookHELPERright" xOffset="173" yOffset="183"/>
  </outline>
</glyph>
<glyph name="eshcurl" format="2">
  <advance width="266"/>
  <unicode hex="0286"/>
  <anchor x="-20" y="-188" name="bottom"/>
  <anchor x="295" y="727" name="top"/>
  <outline>
    <contour>
      <point x="177" y="517" type="line"/>
      <point x="175" y="517" type="line"/>
      <point x="97" y="-42" type="line"/>
      <point x="99" y="-42" type="line"/>
    </contour>
    <contour>
      <point x="99" y="-42" type="curve"/>
      <point x="97" y="-42" type="line"/>
      <point x="84" y="-137"/>
      <point x="42" y="-190"/>
      <point x="-40" y="-190" type="curve" smooth="yes"/>
      <point x="-90" y="-190"/>
      <point x="-122" y="-163"/>
      <point x="-122" y="-121" type="curve" smooth="yes"/>
      <point x="-122" y="-65"/>
      <point x="-73" y="-31"/>
      <point x="-3" y="-31" type="curve" smooth="yes"/>
      <point x="37" y="-31"/>
      <point x="62" y="-35"/>
      <point x="98" y="-44" type="curve"/>
      <point x="98" y="-42" type="line"/>
      <point x="61" y="-33"/>
      <point x="37" y="-29"/>
      <point x="-3" y="-29" type="curve" smooth="yes"/>
      <point x="-74" y="-29"/>
      <point x="-124" y="-64"/>
      <point x="-124" y="-121" type="curve" smooth="yes"/>
      <point x="-124" y="-164"/>
      <point x="-91" y="-192"/>
      <point x="-40" y="-192" type="curve" smooth="yes"/>
      <point x="43" y="-192"/>
      <point x="85" y="-138"/>
    </contour>
    <contour>
      <point x="171" y="-74" type="curve"/>
      <point x="171" y="-72" type="line"/>
      <point x="146" y="-59"/>
      <point x="123" y="-49"/>
      <point x="98" y="-42" type="curve"/>
      <point x="98" y="-44" type="line"/>
      <point x="123" y="-51"/>
      <point x="146" y="-61"/>
    </contour>
    <component base="hookaboveHELPER2" xOffset="96"/>
  </outline>
</glyph>
<glyph name="tretroflexhook" format="2">
  <advance width="322"/>
  <unicode hex="0288"/>
  <anchor x="138" y="-188" name="bottom"/>
  <anchor x="173" y="651" name="top"/>
  <outline>
    <contour>
      <point x="174" y="651" type="line"/>
      <point x="172" y="651" type="line"/>
      <point x="153" y="516" type="line"/>
      <point x="81" y="0" type="line"/>
      <point x="83" y="0" type="line"/>
    </contour>
    <contour>
      <point x="301" y="517" type="line"/>
      <point x="66" y="517" type="line"/>
      <point x="66" y="515" type="line"/>
      <point x="301" y="515" type="line"/>
    </contour>
    <component base="hookHELPERright" xOffset="74"/>
  </outline>
</glyph>
<glyph name="yturned" format="2">
  <advance width="434"/>
  <unicode hex="028E"/>
  <anchor x="185" y="0" name="bottom"/>
  <anchor x="277" y="727" name="top"/>
  <outline>
    <contour>
      <point x="-6" y="0" type="line"/>
      <point x="-4" y="0" type="line"/>
      <point x="246" y="516" type="line"/>
      <point x="366" y="0" type="line"/>
      <point x="368" y="0" type="line"/>
      <point x="248" y="517" type="line"/>
      <point x="246" y="517" type="line"/>
      <point x="314" y="658"/>
      <point x="350" y="700"/>
      <point x="456" y="730" type="curve"/>
      <point x="456" y="732" type="line"/>
      <point x="348" y="702"/>
      <point x="312" y="658"/>
      <point x="244" y="517" type="curve" smooth="yes"/>
    </contour>
  </outline>
</glyph>
<glyph name="Ysmall" format="2">
  <advance width="392"/>
  <unicode hex="028F"/>
  <anchor x="160" y="0" name="bottom"/>
  <anchor x="232" y="517" name="top"/>
  <outline>
    <contour>
      <point x="408" y="517" type="line"/>
      <point x="406" y="517" type="line"/>
      <point x="190" y="214" type="line"/>
      <point x="58" y="517" type="line"/>
      <point x="56" y="517" type="line"/>
      <point x="189" y="212" type="line"/>
      <point x="160" y="0" type="line"/>
      <point x="162" y="0" type="line"/>
      <point x="191" y="212" type="line"/>
    </contour>
  </outline>
</glyph>
<glyph name="zretroflexhook" format="2">
  <advance width="410"/>
  <unicode hex="0290"/>
  <anchor x="161" y="-188" name="bottom"/>
  <anchor x="251" y="517" name="top"/>
  <outline>
    <contour>
      <point x="406" y="517" type="line"/>
      <point x="102" y="517" type="line"/>
      <point x="102" y="515" type="line"/>
      <point x="403" y="515" type="line"/>
      <point x="-1" y="2" type="line"/>
      <point x="-1" y="0" type="line"/>
      <point x="328" y="0" type="line"/>
      <point x="328" y="2" type="line"/>
      <point x="2" y="2" type="line"/>
      <point x="406" y="515" type="line"/>
    </contour>
    <component base="hookHELPERright" xOffset="319"/>
  </outline>
</glyph>
<glyph name="eopenclosed" format="2">
  <advance width="543"/>
  <unicode hex="029A"/>
  <anchor x="214" y="0" name="bottom"/>
  <anchor x="292" y="517" name="top"/>
  <outline>
    <contour>
      <point x="211" y="-9" type="curve"/>
      <point x="382" y="-10"/>
      <point x="467" y="144"/>
      <point x="467" y="324" type="curve" smooth="yes"/>
      <point x="467" y="455"/>
      <point x="402" y="527"/>
      <point x="293" y="527" type="curve"/>
      <point x="182" y="527"/>
      <point x="120" y="454"/>
      <point x="120" y="383" type="curve" smooth="yes"/>
      <point x="120" y="322"/>
      <point x="161" y="278"/>
      <point x="237" y="273" type="curve"/>
      <point x="104" y="269"/>
      <point x="62" y="189"/>
      <point x="62" y="123" type="curve" smooth="yes"/>
      <point x="62" y="41"/>
      <point x="121" y="-9"/>
    </contour>
    <contour>
      <point x="211" y="-7" type="curve"/>
      <point x="121" y="-7"/>
      <point x="64" y="43"/>
      <point x="64" y="123" type="curve" smooth="yes"/>
      <point x="64" y="188"/>
      <point x="105" y="272"/>
      <point x="252" y="272" type="curve" smooth="yes"/>
      <point x="301" y="272" type="line"/>
      <point x="301" y="274" type="line"/>
      <point x="255" y="274" type="line" smooth="yes"/>
      <point x="163" y="274"/>
      <point x="122" y="323"/>
      <point x="122" y="383" type="curve" smooth="yes"/>
      <point x="122" y="453"/>
      <point x="183" y="525"/>
      <point x="293" y="525" type="curve"/>
      <point x="401" y="525"/>
      <point x="465" y="453"/>
      <point x="465" y="324" type="curve" smooth="yes"/>
      <point x="465" y="146"/>
      <point x="381" y="-8"/>
    </contour>
  </outline>
</glyph>
<glyph name="kturned" format="2">
  <advance width="443"/>
  <unicode hex="029E"/>
  <anchor x="144" y="-188" name="bottom"/>
  <anchor x="211" y="517" name="top"/>
  <outline>
    <contour>
      <point x="16" y="0" type="line"/>
      <point x="19" y="0" type="line"/>
      <point x="311" y="234" type="line"/>
      <point x="64" y="517" type="line"/>
      <point x="61" y="517" type="line"/>
      <point x="308" y="234" type="line"/>
    </contour>
    <contour>
      <point x="259" y="-189" type="line"/>
      <point x="261" y="-189" type="line"/>
      <point x="359" y="517" type="line"/>
      <point x="357" y="517" type="line"/>
    </contour>
  </outline>
</glyph>
<glyph name="Lsmall" format="2">
  <advance width="396"/>
  <unicode hex="029F"/>
  <anchor x="215" y="0" name="bottom"/>
  <anchor x="162" y="517" name="top"/>
  <outline>
    <contour>
      <point x="163" y="517" type="line"/>
      <point x="161" y="517" type="line"/>
      <point x="89" y="0" type="line"/>
      <point x="340" y="0" type="line"/>
      <point x="340" y="2" type="line"/>
      <point x="91" y="2" type="line"/>
    </contour>
  </outline>
</glyph>
<glyph name="glottalstopstroke" format="2">
  <advance width="421"/>
  <unicode hex="02A1"/>
  <anchor x="103" y="0" name="bottom"/>
  <anchor x="252" y="727" name="top"/>
  <outline>
    <contour>
      <point x="57" y="200" type="line"/>
      <point x="57" y="198" type="line"/>
      <point x="130" y="198" type="line"/>
      <point x="252" y="198" type="line"/>
      <point x="252" y="200" type="line"/>
    </contour>
    <component base="glottalstop"/>
  </outline>
</glyph>
<glyph name="dzaltone" format="2">
  <advance width="821"/>
  <unicode hex="02A3"/>
  <anchor x="374.17" y="0" name="bottom"/>
  <anchor x="283" y="259" name="center"/>
  <anchor x="476.343" y="727" name="top"/>
  <anchor x="556" y="727" name="topright"/>
  <outline>
    <contour>
      <point x="817" y="517" type="line"/>
      <point x="481" y="517" type="line"/>
      <point x="481" y="515" type="line"/>
      <point x="814" y="515" type="line"/>
      <point x="410" y="2" type="line"/>
      <point x="410" y="0" type="line"/>
      <point x="734" y="0" type="line"/>
      <point x="734" y="2" type="line"/>
      <point x="413" y="2" type="line"/>
      <point x="817" y="515" type="line"/>
    </contour>
    <component base="d"/>
  </outline>
</glyph>
<glyph name="dzcurl" format="2">
  <advance width="827"/>
  <unicode hex="02A5"/>
  <anchor x="247" y="0" name="bottom"/>
  <anchor x="283" y="259" name="center"/>
  <anchor x="481.843" y="727" name="top"/>
  <anchor x="556" y="727" name="topright"/>
  <outline>
    <contour>
      <point x="405" y="0" type="line"/>
      <point x="615" y="0" type="line"/>
      <point x="615" y="2" type="line"/>
      <point x="408" y="2" type="line"/>
      <point x="812" y="515" type="line"/>
      <point x="812" y="517" type="line"/>
      <point x="477" y="517" type="line"/>
      <point x="477" y="515" type="line"/>
      <point x="809" y="515" type="line"/>
      <point x="405" y="2" type="line"/>
    </contour>
    <contour>
      <point x="599" y="-102" type="curve"/>
      <point x="601" y="-102" type="line"/>
      <point x="605" y="-69"/>
      <point x="610" y="-34"/>
      <point x="616" y="0" type="curve"/>
      <point x="616" y="1" type="line"/>
      <point x="638" y="132"/>
      <point x="684" y="180"/>
      <point x="754" y="180" type="curve" smooth="yes"/>
      <point x="794" y="180"/>
      <point x="823" y="157"/>
      <point x="823" y="112" type="curve" smooth="yes"/>
      <point x="823" y="19"/>
      <point x="734" y="2"/>
      <point x="615" y="2" type="curve"/>
      <point x="615" y="0" type="line"/>
      <point x="735" y="0"/>
      <point x="825" y="18"/>
      <point x="825" y="112" type="curve" smooth="yes"/>
      <point x="825" y="158"/>
      <point x="795" y="182"/>
      <point x="754" y="182" type="curve" smooth="yes"/>
      <point x="682" y="182"/>
      <point x="636" y="133"/>
      <point x="614" y="2" type="curve"/>
      <point x="614" y="0" type="line"/>
      <point x="608" y="-34"/>
      <point x="603" y="-69"/>
    </contour>
    <component base="d"/>
  </outline>
</glyph>
<glyph name="tesh" format="2">
  <advance width="533"/>
  <unicode hex="02A7"/>
  <anchor x="203" y="-188" name="bottom"/>
  <anchor x="330" y="727" name="top"/>
  <outline>
    <contour>
      <point x="174" y="651" type="line"/>
      <point x="172" y="651" type="line"/>
      <point x="153" y="516" type="line"/>
      <point x="100" y="133" type="line" smooth="yes"/>
      <point x="86" y="40"/>
      <point x="125" y="-9"/>
      <point x="219" y="-9" type="curve" smooth="yes"/>
      <point x="277" y="-9"/>
      <point x="321" y="4"/>
      <point x="375" y="23" type="curve"/>
      <point x="375" y="25" type="line"/>
      <point x="322" y="6"/>
      <point x="277" y="-7"/>
      <point x="219" y="-7" type="curve" smooth="yes"/>
      <point x="126" y="-7"/>
      <point x="88" y="42"/>
      <point x="102" y="133" type="curve" smooth="yes"/>
    </contour>
    <contour>
      <point x="443" y="517" type="line"/>
      <point x="66" y="517" type="line"/>
      <point x="66" y="515" type="line"/>
      <point x="443" y="515" type="line"/>
    </contour>
    <component base="esh" xOffset="281"/>
  </outline>
</glyph>
<glyph name="lzdigraph" format="2">
  <advance width="601"/>
  <unicode hex="02AB"/>
  <anchor x="323" y="0" name="bottom"/>
  <anchor x="393" y="727" name="top"/>
  <outline>
    <contour>
      <point x="190" y="0" type="line"/>
      <point x="514" y="0" type="line"/>
      <point x="514" y="2" type="line"/>
      <point x="193" y="2" type="line"/>
      <point x="597" y="515" type="line"/>
      <point x="597" y="517" type="line"/>
      <point x="293" y="517" type="line"/>
      <point x="293" y="515" type="line"/>
      <point x="594" y="515" type="line"/>
      <point x="190" y="2" type="line"/>
    </contour>
    <contour>
      <point x="145" y="-9" type="curve" smooth="yes"/>
      <point x="160" y="-9"/>
      <point x="174" y="-6"/>
      <point x="190" y="0" type="curve"/>
      <point x="190" y="2" type="line"/>
      <point x="174" y="-4"/>
      <point x="160" y="-7"/>
      <point x="145" y="-7" type="curve" smooth="yes"/>
      <point x="103" y="-7"/>
      <point x="89" y="21"/>
      <point x="95" y="64" type="curve" smooth="yes"/>
      <point x="188" y="730" type="line"/>
      <point x="186" y="730" type="line"/>
      <point x="93" y="64" type="line" smooth="yes"/>
      <point x="87" y="19"/>
      <point x="102" y="-9"/>
    </contour>
  </outline>
</glyph>
<glyph name="primemod" format="2">
  <advance width="270"/>
  <unicode hex="02B9"/>
  <outline>
    <contour>
      <point x="116" y="446" type="line"/>
      <point x="118" y="446" type="line"/>
      <point x="240" y="680" type="line"/>
      <point x="238" y="680" type="line"/>
    </contour>
  </outline>
</glyph>
<glyph name="colontriangularhalfmod" format="2">
  <advance width="118"/>
  <unicode hex="02D1"/>
  <outline>
    <contour>
      <point x="79" y="423" type="line"/>
      <point x="83" y="423" type="line"/>
      <point x="89" y="437" type="line"/>
      <point x="77" y="437" type="line"/>
    </contour>
  </outline>
</glyph>
<glyph name="gammasuperior" format="2">
  <advance width="330"/>
  <unicode hex="02E0"/>
  <outline>
    <contour>
      <point x="173" y="303" type="curve"/>
      <point x="199" y="303"/>
      <point x="211" y="323"/>
      <point x="211" y="345" type="curve" smooth="yes"/>
      <point x="211" y="366"/>
      <point x="203" y="387"/>
      <point x="189" y="421" type="curve"/>
      <point x="188" y="423" type="line"/>
      <point x="118" y="659" type="line"/>
      <point x="116" y="659" type="line"/>
      <point x="187" y="421" type="line"/>
      <point x="188" y="419" type="line"/>
      <point x="201" y="387"/>
      <point x="209" y="365"/>
      <point x="209" y="345" type="curve" smooth="yes"/>
      <point x="209" y="324"/>
      <point x="198" y="305"/>
      <point x="173" y="305" type="curve" smooth="yes"/>
      <point x="155" y="305"/>
      <point x="144" y="315"/>
      <point x="144" y="333" type="curve" smooth="yes"/>
      <point x="144" y="360"/>
      <point x="162" y="384"/>
      <point x="188" y="419" type="curve"/>
      <point x="189" y="421" type="line"/>
      <point x="326" y="659" type="line"/>
      <point x="324" y="659" type="line"/>
      <point x="188" y="423" type="line"/>
      <point x="187" y="421" type="line"/>
      <point x="160" y="384"/>
      <point x="142" y="360"/>
      <point x="142" y="333" type="curve" smooth="yes"/>
      <point x="142" y="314"/>
      <point x="154" y="303"/>
    </contour>
  </outline>
</glyph>
<glyph name="glottalstopreversedsuperior" format="2">
  <advance width="319"/>
  <unicode hex="02E4"/>
  <outline>
    <contour>
      <point x="211" y="400" type="line"/>
      <point x="234" y="562" type="line"/>
      <point x="199" y="568" type="line" smooth="yes"/>
      <point x="156" y="575"/>
      <point x="119" y="599"/>
      <point x="119" y="652" type="curve" smooth="yes"/>
      <point x="119" y="718"/>
      <point x="165" y="765"/>
      <point x="234" y="765" type="curve" smooth="yes"/>
      <point x="277" y="765"/>
      <point x="303" y="747"/>
      <point x="323" y="726" type="curve"/>
      <point x="325" y="727" type="line"/>
      <point x="306" y="749"/>
      <point x="277" y="767"/>
      <point x="234" y="767" type="curve" smooth="yes"/>
      <point x="164" y="767"/>
      <point x="117" y="719"/>
      <point x="117" y="652" type="curve" smooth="yes"/>
      <point x="117" y="598"/>
      <point x="154" y="574"/>
      <point x="197" y="566" type="curve" smooth="yes"/>
      <point x="232" y="560" type="line"/>
      <point x="209" y="400" type="line"/>
    </contour>
  </outline>
</glyph>
<glyph name="tonebarhighmod" format="2">
  <advance width="292"/>
  <unicode hex="02E6"/>
  <outline>
    <contour>
      <point x="319" y="680" type="line"/>
      <point x="292" y="491" type="line"/>
      <point x="62" y="491" type="line"/>
      <point x="62" y="489" type="line"/>
      <point x="292" y="489" type="line"/>
      <point x="224" y="0" type="line"/>
      <point x="226" y="0" type="line"/>
      <point x="321" y="680" type="line"/>
    </contour>
  </outline>
</glyph>
<glyph name="tonebarextralowmod" format="2">
  <advance width="292"/>
  <unicode hex="02E9"/>
  <outline>
    <contour>
      <point x="319" y="680" type="line"/>
      <point x="224" y="2" type="line"/>
      <point x="-6" y="2" type="line"/>
      <point x="-6" y="0" type="line"/>
      <point x="226" y="0" type="line"/>
      <point x="321" y="680" type="line"/>
    </contour>
  </outline>
</glyph>
<glyph name="gravecomb" format="2">
  <unicode hex="0300"/>
  <anchor x="140" y="517" name="_top"/>
  <anchor x="178" y="746" name="top"/>
  <outline>
    <contour>
      <point x="99" y="746" type="line"/>
      <point x="98" y="744" type="line"/>
      <point x="253" y="662" type="line"/>
      <point x="254" y="663" type="line"/>
    </contour>
  </outline>
</glyph>
<glyph name="circumflexcomb" format="2">
  <unicode hex="0302"/>
  <anchor x="176" y="517" name="_top"/>
  <anchor x="209" y="745" name="top"/>
  <outline>
    <contour>
      <point x="89" y="660" type="line"/>
      <point x="209" y="743" type="line"/>
      <point x="303" y="660" type="line"/>
      <point x="305" y="661" type="line"/>
      <point x="210" y="745" type="line"/>
      <point x="208" y="745" type="line"/>
      <point x="87" y="661" type="line"/>
    </contour>
  </outline>
</glyph>
<glyph name="tildecomb" format="2">
  <unicode hex="0303"/>
  <anchor x="188" y="517" name="_top"/>
  <anchor x="217" y="732" name="top"/>
  <outline>
    <contour>
      <point x="269" y="686" type="curve"/>
      <point x="296" y="686"/>
      <point x="313" y="697"/>
      <point x="338" y="724" type="curve"/>
      <point x="336" y="725" type="line"/>
      <point x="312" y="699"/>
      <point x="295" y="688"/>
      <point x="269" y="688" type="curve"/>
      <point x="226" y="688"/>
      <point x="198" y="732"/>
      <point x="160" y="732" type="curve" smooth="yes"/>
      <point x="135" y="732"/>
      <point x="118" y="721"/>
      <point x="91" y="696" type="curve"/>
      <point x="93" y="695" type="line"/>
      <point x="118" y="719"/>
      <point x="136" y="730"/>
      <point x="160" y="730" type="curve" smooth="yes"/>
      <point x="197" y="730"/>
      <point x="225" y="686"/>
    </contour>
  </outline>
</glyph>
<glyph name="macroncomb" format="2">
  <unicode hex="0304"/>
  <anchor x="162" y="517" name="_top"/>
  <anchor x="188" y="691" name="top"/>
  <outline>
    <contour>
      <point x="281" y="689" type="line"/>
      <point x="281" y="691" type="line"/>
      <point x="91" y="691" type="line"/>
      <point x="91" y="689" type="line"/>
    </contour>
  </outline>
</glyph>
<glyph name="brevecomb" format="2">
  <unicode hex="0306"/>
  <anchor x="164" y="517" name="_top"/>
  <anchor x="195" y="737" name="top"/>
  <outline>
    <contour>
      <point x="183" y="666" type="curve"/>
      <point x="238" y="666"/>
      <point x="272" y="698"/>
      <point x="289" y="736" type="curve"/>
      <point x="287" y="737" type="line"/>
      <point x="268" y="693"/>
      <point x="231" y="668"/>
      <point x="183" y="668" type="curve"/>
      <point x="135" y="668"/>
      <point x="105" y="693"/>
      <point x="99" y="737" type="curve"/>
      <point x="97" y="736" type="line"/>
      <point x="102" y="698"/>
      <point x="128" y="666"/>
    </contour>
  </outline>
</glyph>
<glyph name="dotaccentcomb" format="2">
  <unicode hex="0307"/>
  <anchor x="98" y="700" name="_center"/>
  <anchor x="72" y="517" name="_top"/>
  <anchor x="99" y="706" name="top"/>
  <outline>
    <contour>
      <point x="98" y="694" type="curve" smooth="yes"/>
      <point x="102" y="694"/>
      <point x="104" y="697"/>
      <point x="104" y="700" type="curve" smooth="yes"/>
      <point x="104" y="703"/>
      <point x="102" y="706"/>
      <point x="98" y="706" type="curve" smooth="yes"/>
      <point x="94" y="706"/>
      <point x="92" y="703"/>
      <point x="92" y="700" type="curve" smooth="yes"/>
      <point x="92" y="697"/>
      <point x="94" y="694"/>
    </contour>
  </outline>
</glyph>
<glyph name="dieresiscomb" format="2">
  <unicode hex="0308"/>
  <anchor x="147" y="517" name="_top"/>
  <anchor x="173" y="691" name="top"/>
  <outline>
    <contour>
      <point x="96" y="679" type="curve" smooth="yes"/>
      <point x="100" y="679"/>
      <point x="102" y="682"/>
      <point x="102" y="685" type="curve" smooth="yes"/>
      <point x="102" y="688"/>
      <point x="100" y="691"/>
      <point x="96" y="691" type="curve" smooth="yes"/>
      <point x="92" y="691"/>
      <point x="90" y="688"/>
      <point x="90" y="685" type="curve" smooth="yes"/>
      <point x="90" y="682"/>
      <point x="92" y="679"/>
    </contour>
    <contour>
      <point x="245" y="679" type="curve" smooth="yes"/>
      <point x="249" y="679"/>
      <point x="251" y="682"/>
      <point x="251" y="685" type="curve" smooth="yes"/>
      <point x="251" y="688"/>
      <point x="249" y="691"/>
      <point x="245" y="691" type="curve" smooth="yes"/>
      <point x="241" y="691"/>
      <point x="239" y="688"/>
      <point x="239" y="685" type="curve" smooth="yes"/>
      <point x="239" y="682"/>
      <point x="241" y="679"/>
    </contour>
  </outline>
</glyph>
<glyph name="hookabovecomb" format="2">
  <unicode hex="0309"/>
  <anchor x="118" y="517" name="_top"/>
  <anchor x="95" y="488" name="_topright"/>
  <anchor x="172" y="797" name="top"/>
  <outline>
    <contour>
      <point x="132" y="625" type="line"/>
      <point x="134" y="625" type="line"/>
      <point x="142" y="683" type="line"/>
      <point x="187" y="688"/>
      <point x="217" y="706"/>
      <point x="217" y="747" type="curve" smooth="yes"/>
      <point x="217" y="780"/>
      <point x="197" y="797"/>
      <point x="164" y="797" type="curve" smooth="yes"/>
      <point x="139" y="797"/>
      <point x="118" y="788"/>
      <point x="103" y="780" type="curve"/>
      <point x="104" y="778" type="line"/>
      <point x="118" y="786"/>
      <point x="139" y="795"/>
      <point x="164" y="795" type="curve" smooth="yes"/>
      <point x="196" y="795"/>
      <point x="215" y="779"/>
      <point x="215" y="747" type="curve" smooth="yes"/>
      <point x="215" y="706"/>
      <point x="184" y="689"/>
      <point x="140" y="685" type="curve"/>
    </contour>
  </outline>
</glyph>
<glyph name="ringcomb" format="2">
  <unicode hex="030A"/>
  <anchor x="130" y="517" name="_top"/>
  <anchor x="170" y="782" name="top"/>
  <outline>
    <contour>
      <point x="167" y="782" type="curve"/>
      <point x="128" y="782"/>
      <point x="100" y="756"/>
      <point x="95" y="718" type="curve" smooth="yes"/>
      <point x="90" y="681"/>
      <point x="109" y="655"/>
      <point x="150" y="655" type="curve"/>
      <point x="189" y="655"/>
      <point x="216" y="681"/>
      <point x="221" y="719" type="curve" smooth="yes"/>
      <point x="226" y="756"/>
      <point x="208" y="782"/>
    </contour>
    <contour>
      <point x="167" y="780" type="curve"/>
      <point x="207" y="780"/>
      <point x="224" y="756"/>
      <point x="219" y="719" type="curve" smooth="yes"/>
      <point x="215" y="683"/>
      <point x="188" y="657"/>
      <point x="150" y="657" type="curve"/>
      <point x="111" y="657"/>
      <point x="92" y="681"/>
      <point x="97" y="718" type="curve" smooth="yes"/>
      <point x="102" y="755"/>
      <point x="129" y="780"/>
    </contour>
  </outline>
</glyph>
<glyph name="hungarumlautcomb" format="2">
  <unicode hex="030B"/>
  <anchor x="124" y="517" name="_top"/>
  <outline>
    <contour>
      <point x="270" y="785" type="line"/>
      <point x="187" y="662" type="line"/>
      <point x="189" y="661" type="line"/>
      <point x="272" y="784" type="line"/>
    </contour>
    <contour>
      <point x="164" y="782" type="line"/>
      <point x="87" y="664" type="line"/>
      <point x="89" y="663" type="line"/>
      <point x="166" y="781" type="line"/>
    </contour>
  </outline>
</glyph>
<glyph name="caroncomb" format="2">
  <unicode hex="030C"/>
  <anchor x="175" y="517" name="_top"/>
  <anchor x="208" y="733" name="top"/>
  <outline>
    <contour>
      <point x="313" y="733" type="line"/>
      <point x="193" y="650" type="line"/>
      <point x="99" y="733" type="line"/>
      <point x="97" y="732" type="line"/>
      <point x="192" y="648" type="line"/>
      <point x="194" y="648" type="line"/>
      <point x="315" y="732" type="line"/>
    </contour>
  </outline>
</glyph>
<glyph name="verticallineabovecomb" format="2">
  <unicode hex="030D"/>
  <anchor x="67" y="517" name="_top"/>
  <anchor x="101" y="838" name="top"/>
  <outline>
    <contour>
      <point x="84" y="644" type="line"/>
      <point x="86" y="644" type="line"/>
      <point x="113" y="838" type="line"/>
      <point x="111" y="838" type="line"/>
    </contour>
  </outline>
</glyph>
<glyph name="dblgravecomb" format="2">
  <unicode hex="030F"/>
  <anchor x="182" y="517" name="_top"/>
  <anchor x="183" y="785" name="top"/>
  <outline>
    <contour>
      <point x="106" y="785" type="line"/>
      <point x="104" y="784" type="line"/>
      <point x="153" y="661" type="line"/>
      <point x="155" y="662" type="line"/>
    </contour>
    <contour>
      <point x="212" y="782" type="line"/>
      <point x="210" y="781" type="line"/>
      <point x="255" y="663" type="line"/>
      <point x="257" y="664" type="line"/>
    </contour>
  </outline>
</glyph>
<glyph name="breveinvertedcomb" format="2">
  <unicode hex="0311"/>
  <anchor x="164" y="517" name="_top"/>
  <anchor x="192" y="717" name="top"/>
  <outline>
    <contour>
      <point x="86" y="646" type="line"/>
      <point x="105" y="690"/>
      <point x="142" y="715"/>
      <point x="190" y="715" type="curve"/>
      <point x="238" y="715"/>
      <point x="267" y="690"/>
      <point x="274" y="646" type="curve"/>
      <point x="276" y="647" type="line"/>
      <point x="271" y="685"/>
      <point x="245" y="717"/>
      <point x="190" y="717" type="curve"/>
      <point x="135" y="717"/>
      <point x="101" y="685"/>
      <point x="84" y="647" type="curve"/>
    </contour>
  </outline>
</glyph>
<glyph name="lefttackbelowcomb" format="2">
  <unicode hex="0318"/>
  <anchor x="83" y="0" name="_bottom"/>
  <anchor x="48" y="-316" name="bottom"/>
  <outline>
    <contour>
      <point x="123" y="-77" type="line"/>
      <point x="106" y="-196" type="line"/>
      <point x="-34" y="-196" type="line"/>
      <point x="-34" y="-198" type="line"/>
      <point x="106" y="-198" type="line"/>
      <point x="90" y="-316" type="line"/>
      <point x="92" y="-316" type="line"/>
      <point x="125" y="-77" type="line"/>
    </contour>
  </outline>
</glyph>
<glyph name="righttackbelowcomb" format="2">
  <unicode hex="0319"/>
  <anchor x="47" y="0" name="_bottom"/>
  <anchor x="6" y="-316" name="bottom"/>
  <outline>
    <contour>
      <point x="-15" y="-77" type="line"/>
      <point x="-17" y="-77" type="line"/>
      <point x="-50" y="-316" type="line"/>
      <point x="-48" y="-316" type="line"/>
      <point x="-32" y="-198" type="line"/>
      <point x="108" y="-198" type="line"/>
      <point x="108" y="-196" type="line"/>
      <point x="-32" y="-196" type="line"/>
    </contour>
  </outline>
</glyph>
<glyph name="leftangleabovecomb" format="2">
  <unicode hex="031A"/>
  <anchor x="146" y="517" name="_top"/>
  <anchor x="169" y="738" name="top"/>
  <outline>
    <contour>
      <point x="97" y="738" type="line"/>
      <point x="97" y="736" type="line"/>
      <point x="234" y="736" type="line"/>
      <point x="214" y="588" type="line"/>
      <point x="216" y="588" type="line"/>
      <point x="236" y="738" type="line"/>
    </contour>
  </outline>
</glyph>
<glyph name="horncomb" format="2">
  <unicode hex="031B"/>
  <anchor x="77" y="517" name="_topright"/>
  <anchor x="129" y="517" name="topright"/>
  <outline>
    <contour>
      <point x="58" y="462" type="line"/>
      <point x="114" y="466"/>
      <point x="132" y="496"/>
      <point x="132" y="546" type="curve" smooth="yes"/>
      <point x="132" y="565"/>
      <point x="130" y="580"/>
      <point x="126" y="596" type="curve"/>
      <point x="124" y="596" type="line"/>
      <point x="128" y="580"/>
      <point x="130" y="565"/>
      <point x="130" y="546" type="curve" smooth="yes"/>
      <point x="130" y="497"/>
      <point x="113" y="468"/>
      <point x="58" y="464" type="curve"/>
    </contour>
  </outline>
</glyph>
<glyph name="downtackbelowcomb" format="2">
  <unicode hex="031E"/>
  <anchor x="114" y="0" name="_bottom"/>
  <anchor x="76" y="-267" name="bottom"/>
  <outline>
    <contour>
      <point x="215" y="-127" type="line"/>
      <point x="216" y="-125" type="line"/>
      <point x="-23" y="-125" type="line"/>
      <point x="-24" y="-127" type="line"/>
      <point x="94" y="-127" type="line"/>
      <point x="75" y="-267" type="line"/>
      <point x="77" y="-267" type="line"/>
      <point x="96" y="-127" type="line"/>
    </contour>
  </outline>
</glyph>
<glyph name="commaaccentcomb" format="2">
  <unicode hex="0326"/>
  <anchor x="6" y="0" name="_bottom"/>
  <outline>
    <contour>
      <point x="-1" y="-107" type="curve" smooth="yes"/>
      <point x="-4" y="-107"/>
      <point x="-6" y="-109"/>
      <point x="-6" y="-112" type="curve" smooth="yes"/>
      <point x="-6" y="-115"/>
      <point x="-4" y="-117"/>
      <point x="0" y="-117" type="curve"/>
      <point x="-40" y="-239" type="line"/>
      <point x="-39" y="-239" type="line"/>
      <point x="1" y="-123" type="line" smooth="yes"/>
      <point x="3" y="-117"/>
      <point x="4" y="-114"/>
      <point x="4" y="-112" type="curve"/>
      <point x="4" y="-109"/>
      <point x="2" y="-107"/>
    </contour>
  </outline>
</glyph>
<glyph name="cedillacomb" format="2">
  <unicode hex="0327"/>
  <anchor x="45" y="0" name="_bottom"/>
  <anchor x="39" y="-202" name="bottom"/>
  <outline>
    <contour>
      <point x="37" y="-7" type="line"/>
      <point x="35" y="-7" type="line"/>
      <point x="19" y="-85" type="line"/>
      <point x="75" y="-86"/>
      <point x="103" y="-100"/>
      <point x="103" y="-139" type="curve" smooth="yes"/>
      <point x="103" y="-171"/>
      <point x="81" y="-200"/>
      <point x="28" y="-200" type="curve" smooth="yes"/>
      <point x="1" y="-200"/>
      <point x="-16" y="-195"/>
      <point x="-31" y="-184" type="curve"/>
      <point x="-32" y="-186" type="line"/>
      <point x="-17" y="-196"/>
      <point x="-1" y="-202"/>
      <point x="28" y="-202" type="curve" smooth="yes"/>
      <point x="82" y="-202"/>
      <point x="105" y="-172"/>
      <point x="105" y="-139" type="curve" smooth="yes"/>
      <point x="105" y="-99"/>
      <point x="76" y="-84"/>
      <point x="22" y="-83" type="curve"/>
    </contour>
  </outline>
</glyph>
<glyph name="ogonekcomb" format="2">
  <unicode hex="0328"/>
  <anchor x="141" y="0" name="_ogonek"/>
  <outline>
    <contour>
      <point x="130" y="1" type="line"/>
      <point x="61" y="-23"/>
      <point x="-24" y="-62"/>
      <point x="-24" y="-132" type="curve" smooth="yes"/>
      <point x="-24" y="-174"/>
      <point x="3" y="-194"/>
      <point x="43" y="-194" type="curve" smooth="yes"/>
      <point x="62" y="-194"/>
      <point x="75" y="-192"/>
      <point x="97" y="-186" type="curve"/>
      <point x="98" y="-184" type="line"/>
      <point x="75" y="-190"/>
      <point x="62" y="-192"/>
      <point x="44" y="-192" type="curve" smooth="yes"/>
      <point x="5" y="-192"/>
      <point x="-22" y="-173"/>
      <point x="-22" y="-132" type="curve" smooth="yes"/>
      <point x="-22" y="-75"/>
      <point x="34" y="-34"/>
      <point x="131" y="0" type="curve"/>
    </contour>
  </outline>
</glyph>
<glyph name="bridgebelowcomb" format="2">
  <unicode hex="032A"/>
  <anchor x="108" y="0" name="_bottom"/>
  <anchor x="88" y="-206" name="bottom"/>
  <outline>
    <contour>
      <point x="-35" y="-204" type="line"/>
      <point x="-33" y="-204" type="line"/>
      <point x="-20" y="-114" type="line"/>
      <point x="205" y="-114" type="line"/>
      <point x="192" y="-206" type="line"/>
      <point x="194" y="-206" type="line"/>
      <point x="207" y="-112" type="line"/>
      <point x="-22" y="-112" type="line"/>
    </contour>
  </outline>
</glyph>
<glyph name="dblarchinvertedbelowcomb" format="2">
  <unicode hex="032B"/>
  <anchor x="127" y="0" name="_bottom"/>
  <anchor x="114" y="-144" name="bottom"/>
  <outline>
    <contour>
      <point x="165" y="-142" type="curve"/>
      <point x="197" y="-142"/>
      <point x="222" y="-117"/>
      <point x="237" y="-73" type="curve"/>
      <point x="239" y="-73" type="line"/>
      <point x="226" y="-112"/>
      <point x="202" y="-144"/>
      <point x="165" y="-144" type="curve"/>
      <point x="128" y="-144"/>
      <point x="111" y="-112"/>
      <point x="110" y="-73" type="curve"/>
      <point x="112" y="-73" type="line"/>
      <point x="115" y="-117"/>
      <point x="133" y="-142"/>
    </contour>
    <contour>
      <point x="38" y="-142" type="curve"/>
      <point x="70" y="-142"/>
      <point x="95" y="-117"/>
      <point x="110" y="-73" type="curve"/>
      <point x="112" y="-73" type="line"/>
      <point x="99" y="-112"/>
      <point x="75" y="-144"/>
      <point x="38" y="-144" type="curve"/>
      <point x="1" y="-144"/>
      <point x="-15" y="-112"/>
      <point x="-16" y="-73" type="curve"/>
      <point x="-14" y="-73" type="line"/>
      <point x="-12" y="-117"/>
      <point x="6" y="-142"/>
    </contour>
  </outline>
</glyph>
<glyph name="circumflexbelowcomb" format="2">
  <unicode hex="032D"/>
  <anchor x="103" y="0" name="_bottom"/>
  <anchor x="81" y="-170" name="bottom"/>
  <outline>
    <contour>
      <point x="-28" y="-170" type="line"/>
      <point x="92" y="-87" type="line"/>
      <point x="186" y="-170" type="line"/>
      <point x="188" y="-169" type="line"/>
      <point x="93" y="-85" type="line"/>
      <point x="91" y="-85" type="line"/>
      <point x="-30" y="-169" type="line"/>
    </contour>
  </outline>
</glyph>
<glyph name="lowlinecomb" format="2">
  <unicode hex="0332"/>
  <anchor x="136" y="0" name="_bottom"/>
  <anchor x="122" y="-119" name="bottom"/>
  <outline>
    <contour>
      <point x="262" y="-119" type="line"/>
      <point x="262" y="-117" type="line"/>
      <point x="-23" y="-117" type="line"/>
      <point x="-23" y="-119" type="line"/>
    </contour>
  </outline>
</glyph>
<glyph name="ringhalfrightbelowcomb" format="2">
  <unicode hex="0339"/>
  <anchor x="21" y="0" name="_bottom"/>
  <anchor x="4" y="-205" name="bottom"/>
  <outline>
    <contour>
      <point x="-35" y="-205" type="curve"/>
      <point x="-34" y="-203" type="line"/>
      <point x="9" y="-203"/>
      <point x="36" y="-174"/>
      <point x="36" y="-133" type="curve" smooth="yes"/>
      <point x="36" y="-100"/>
      <point x="17" y="-80"/>
      <point x="-17" y="-80" type="curve"/>
      <point x="-16" y="-78" type="line"/>
      <point x="18" y="-78"/>
      <point x="38" y="-99"/>
      <point x="38" y="-133" type="curve" smooth="yes"/>
      <point x="38" y="-175"/>
      <point x="10" y="-205"/>
    </contour>
  </outline>
</glyph>
<glyph name="bridgeinvertedbelowcomb" format="2">
  <unicode hex="033A"/>
  <anchor x="108" y="0" name="_bottom"/>
  <anchor x="89" y="-202" name="bottom"/>
  <outline>
    <contour>
      <point x="-22" y="-110" type="line"/>
      <point x="-34" y="-202" type="line"/>
      <point x="195" y="-202" type="line"/>
      <point x="207" y="-108" type="line"/>
      <point x="205" y="-108" type="line"/>
      <point x="193" y="-200" type="line"/>
      <point x="-32" y="-200" type="line"/>
      <point x="-20" y="-110" type="line"/>
    </contour>
  </outline>
</glyph>
<glyph name="squarebelowcomb" format="2">
  <unicode hex="033B"/>
  <anchor x="104" y="0" name="_bottom"/>
  <anchor x="86" y="-202" name="bottom"/>
  <outline>
    <contour>
      <point x="-34" y="-202" type="line"/>
      <point x="185" y="-202" type="line"/>
      <point x="201" y="-88" type="line"/>
      <point x="-18" y="-88" type="line"/>
    </contour>
    <contour>
      <point x="-32" y="-200" type="line"/>
      <point x="-16" y="-90" type="line"/>
      <point x="199" y="-90" type="line"/>
      <point x="183" y="-200" type="line"/>
    </contour>
  </outline>
</glyph>
<glyph name="seagullbelowcomb" format="2">
  <unicode hex="033C"/>
  <anchor x="117" y="0" name="_bottom"/>
  <anchor x="104" y="-144" name="bottom"/>
  <outline>
    <contour>
      <point x="173" y="-75" type="curve"/>
      <point x="142" y="-75"/>
      <point x="116" y="-100"/>
      <point x="102" y="-144" type="curve"/>
      <point x="100" y="-144" type="line"/>
      <point x="115" y="-98"/>
      <point x="141" y="-73"/>
      <point x="173" y="-73" type="curve"/>
      <point x="207" y="-73"/>
      <point x="226" y="-99"/>
      <point x="229" y="-144" type="curve"/>
      <point x="227" y="-144" type="line"/>
      <point x="223" y="-100"/>
      <point x="206" y="-75"/>
    </contour>
    <contour>
      <point x="46" y="-75" type="curve"/>
      <point x="15" y="-75"/>
      <point x="-11" y="-100"/>
      <point x="-24" y="-144" type="curve"/>
      <point x="-26" y="-144" type="line"/>
      <point x="-13" y="-99"/>
      <point x="14" y="-73"/>
      <point x="47" y="-73" type="curve"/>
      <point x="80" y="-73"/>
      <point x="98" y="-98"/>
      <point x="102" y="-144" type="curve"/>
      <point x="100" y="-144" type="line"/>
      <point x="96" y="-100"/>
      <point x="79" y="-75"/>
    </contour>
  </outline>
</glyph>
<glyph name="ypogegrammenicomb" format="2">
  <unicode hex="0345"/>
  <anchor x="-7" y="0" name="_bottom"/>
  <anchor x="38" y="-142" name="bottom"/>
  <outline>
    <contour>
      <point x="23" y="-142" type="curve" smooth="yes"/>
      <point x="45" y="-142"/>
      <point x="60" y="-133"/>
      <point x="74" y="-125" type="curve"/>
      <point x="73" y="-123" type="line"/>
      <point x="58" y="-132"/>
      <point x="44" y="-140"/>
      <point x="23" y="-140" type="curve" smooth="yes"/>
      <point x="-2" y="-140"/>
      <point x="-17" y="-125"/>
      <point x="-17" y="-101" type="curve" smooth="yes"/>
      <point x="-17" y="-88"/>
      <point x="-15" y="-76"/>
      <point x="-11" y="-49" type="curve"/>
      <point x="-13" y="-49" type="line"/>
      <point x="-17" y="-76"/>
      <point x="-19" y="-87"/>
      <point x="-19" y="-101" type="curve" smooth="yes"/>
      <point x="-19" y="-126"/>
      <point x="-3" y="-142"/>
    </contour>
  </outline>
</glyph>
<glyph name="breveinverteddoublecomb" format="2">
  <unicode hex="0361"/>
  <outline>
    <contour>
      <point x="725" y="648" type="line"/>
      <point x="673" y="699"/>
      <point x="586" y="776"/>
      <point x="422" y="776" type="curve"/>
      <point x="258" y="776"/>
      <point x="149" y="699"/>
      <point x="85" y="648" type="curve"/>
      <point x="85" y="646" type="line"/>
      <point x="149" y="696"/>
      <point x="258" y="774"/>
      <point x="422" y="774" type="curve"/>
      <point x="586" y="774"/>
      <point x="673" y="696"/>
      <point x="724" y="646" type="curve"/>
    </contour>
  </outline>
</glyph>
<glyph name="Archaicsampi" format="2">
  <advance width="494"/>
  <unicode hex="0372"/>
  <anchor x="210.67" y="0" name="bottom"/>
  <anchor x="306.238" y="680" name="top"/>
  <outline>
    <contour>
      <point x="81" y="680" type="line"/>
      <point x="79" y="680" type="line"/>
      <point x="51" y="480" type="line"/>
      <point x="53" y="480" type="line"/>
    </contour>
    <contour>
      <point x="531" y="680" type="line"/>
      <point x="79" y="680" type="line"/>
      <point x="79" y="678" type="line"/>
      <point x="304" y="678" type="line"/>
      <point x="209" y="0" type="line"/>
      <point x="211" y="0" type="line"/>
      <point x="306" y="678" type="line"/>
      <point x="531" y="678" type="line"/>
    </contour>
    <contour>
      <point x="533" y="680" type="line"/>
      <point x="531" y="680" type="line"/>
      <point x="503" y="480" type="line"/>
      <point x="505" y="480" type="line"/>
    </contour>
  </outline>
</glyph>
<glyph name="archaicsampi" format="2">
  <advance width="455"/>
  <unicode hex="0373"/>
  <anchor x="263.83" y="517" name="top"/>
  <outline>
    <contour>
      <point x="254" y="516" type="line"/>
      <point x="252" y="516" type="line"/>
      <point x="153" y="-191" type="line"/>
      <point x="155" y="-191" type="line"/>
    </contour>
    <contour>
      <point x="36" y="507" type="line"/>
      <point x="52" y="513"/>
      <point x="75" y="515"/>
      <point x="107" y="515" type="curve" smooth="yes"/>
      <point x="473" y="515" type="line"/>
      <point x="473" y="517" type="line"/>
      <point x="107" y="517" type="line" smooth="yes"/>
      <point x="75" y="517"/>
      <point x="51" y="515"/>
      <point x="35" y="509" type="curve"/>
    </contour>
  </outline>
</glyph>
<glyph name="tonos" format="2">
  <advance width="94"/>
  <unicode hex="0384"/>
  <anchor x="67" y="517" name="_top"/>
  <outline>
    <contour>
      <point x="124" y="716" type="line"/>
      <point x="79" y="608" type="line"/>
      <point x="81" y="608" type="line"/>
      <point x="126" y="716" type="line"/>
    </contour>
  </outline>
</glyph>
<glyph name="Delta" format="2">
  <advance width="566"/>
  <unicode hex="0394"/>
  <anchor x="246.67" y="0" name="bottom"/>
  <anchor x="342.238" y="680" name="top"/>
  <outline>
    <contour>
      <point x="342" y="678" type="line"/>
      <point x="492" y="2" type="line"/>
      <point x="2" y="2" type="line"/>
    </contour>
    <contour>
      <point x="343" y="680" type="line"/>
      <point x="341" y="680" type="line"/>
      <point x="-1" y="0" type="line"/>
      <point x="495" y="0" type="line"/>
    </contour>
  </outline>
</glyph>
<glyph name="Lambda" format="2">
  <advance width="556"/>
  <unicode hex="039B"/>
  <anchor x="242" y="0" name="bottom"/>
  <anchor x="336" y="680" name="top"/>
  <outline>
    <contour>
      <point x="337" y="680" type="line"/>
      <point x="335" y="680" type="line"/>
      <point x="-1" y="0" type="line"/>
      <point x="1" y="0" type="line"/>
      <point x="336" y="678" type="line"/>
      <point x="483" y="0" type="line"/>
      <point x="485" y="0" type="line"/>
    </contour>
  </outline>
</glyph>
<glyph name="Xi" format="2">
  <advance width="485"/>
  <unicode hex="039E"/>
  <anchor x="206.17" y="0" name="bottom"/>
  <anchor x="301.738" y="680" name="top"/>
  <outline>
    <contour>
      <point x="379" y="2" type="line"/>
      <point x="24" y="2" type="line"/>
      <point x="24" y="0" type="line"/>
      <point x="379" y="0" type="line"/>
    </contour>
    <contour>
      <point x="377" y="362" type="line"/>
      <point x="130" y="362" type="line"/>
      <point x="130" y="360" type="line"/>
      <point x="377" y="360" type="line"/>
    </contour>
    <contour>
      <point x="465" y="680" type="line"/>
      <point x="119" y="680" type="line"/>
      <point x="119" y="678" type="line"/>
      <point x="465" y="678" type="line"/>
    </contour>
  </outline>
</glyph>
<glyph name="Sigma" format="2">
  <advance width="481"/>
  <unicode hex="03A3"/>
  <anchor x="204.17" y="0" name="bottom"/>
  <anchor x="299.738" y="680" name="top"/>
  <outline>
    <contour>
      <point x="480" y="680" type="line"/>
      <point x="119" y="680" type="line"/>
      <point x="119" y="677" type="line"/>
      <point x="314" y="339" type="line"/>
      <point x="24" y="3" type="line"/>
      <point x="24" y="0" type="line"/>
      <point x="385" y="0" type="line"/>
      <point x="385" y="2" type="line"/>
      <point x="26" y="2" type="line"/>
      <point x="316" y="338" type="line"/>
      <point x="316" y="340" type="line"/>
      <point x="121" y="678" type="line"/>
      <point x="480" y="678" type="line"/>
    </contour>
  </outline>
</glyph>
<glyph name="iota" format="2">
  <advance width="246"/>
  <unicode hex="03B9"/>
  <anchor x="86.6702" y="0" name="bottom"/>
  <anchor x="156" y="517" name="top"/>
  <outline>
    <contour>
      <point x="157" y="517" type="line"/>
      <point x="155" y="517" type="line"/>
      <point x="96" y="97" type="line" smooth="yes"/>
      <point x="88" y="39"/>
      <point x="97" y="16"/>
      <point x="138" y="-4" type="curve"/>
      <point x="139" y="-2" type="line"/>
      <point x="99" y="17"/>
      <point x="90" y="41"/>
      <point x="98" y="97" type="curve" smooth="yes"/>
    </contour>
  </outline>
</glyph>
<glyph name="nu" format="2">
  <advance width="429"/>
  <unicode hex="03BD"/>
  <anchor x="178.17" y="0" name="bottom"/>
  <anchor x="250.83" y="517" name="top"/>
  <outline>
    <contour>
      <point x="63" y="520" type="curve"/>
      <point x="61" y="519" type="line"/>
      <point x="108" y="447"/>
      <point x="148" y="309"/>
      <point x="174" y="0" type="curve"/>
      <point x="177" y="0" type="line"/>
      <point x="435" y="517" type="line"/>
      <point x="433" y="518" type="line"/>
      <point x="176" y="2" type="line"/>
      <point x="150" y="310"/>
      <point x="110" y="448"/>
    </contour>
  </outline>
</glyph>
<glyph name="psi" format="2">
  <advance width="725.127"/>
  <unicode hex="03C8"/>
  <anchor x="398.893" y="517" name="top"/>
  <outline>
    <contour>
      <point x="636" y="422" type="curve" smooth="yes"/>
      <point x="636" y="452"/>
      <point x="634" y="483"/>
      <point x="632" y="517" type="curve"/>
      <point x="630" y="517" type="line"/>
      <point x="632" y="483"/>
      <point x="634" y="452"/>
      <point x="634" y="422" type="curve" smooth="yes"/>
      <point x="634" y="191.183"/>
      <point x="590.069" y="1.301"/>
      <point x="325.628" y="-6.98" type="curve"/>
      <point x="399" y="517" type="line"/>
      <point x="397" y="517" type="line"/>
      <point x="323.729" y="-6.998" type="line"/>
      <point x="156.632" y="-6.661"/>
      <point x="84.05" y="60.346"/>
      <point x="104" y="200" type="curve" smooth="yes"/>
      <point x="149" y="517" type="line"/>
      <point x="147" y="517" type="line"/>
      <point x="102" y="200" type="line" smooth="yes"/>
      <point x="82.062" y="58.429"/>
      <point x="156.539" y="-8.586"/>
      <point x="323.449" y="-8.998" type="curve"/>
      <point x="298" y="-191" type="line"/>
      <point x="300" y="-190" type="line"/>
      <point x="325.346" y="-8.989" type="line"/>
      <point x="591.039" y="-0.834"/>
      <point x="636" y="189.102"/>
    </contour>
  </outline>
</glyph>
<glyph name="KaiSymbol" format="2">
  <advance width="550"/>
  <unicode hex="03CF"/>
  <anchor x="248" y="0" name="bottom"/>
  <anchor x="343" y="680" name="top"/>
  <outline>
    <contour>
      <point x="450" y="2" type="line"/>
      <point x="450" y="0" type="line"/>
      <point x="503" y="0" type="line"/>
      <point x="503" y="2" type="line"/>
    </contour>
    <component base="Kappa"/>
    <component base="hookHELPER.case" xOffset="333"/>
  </outline>
</glyph>
<glyph name="KoppaArchaic" format="2">
  <advance width="687"/>
  <unicode hex="03D8"/>
  <anchor x="306" y="0" name="bottom"/>
  <anchor x="401" y="680" name="top"/>
  <anchor x="162" y="679" name="topleft"/>
  <anchor x="577" y="680" name="topright"/>
  <outline>
    <contour>
      <point x="276" y="-188" type="line"/>
      <point x="278" y="-188" type="line"/>
      <point x="304" y="-8" type="line"/>
      <point x="302" y="-8" type="line"/>
    </contour>
    <component base="O"/>
  </outline>
</glyph>
<glyph name="koppaArchaic" format="2">
  <advance width="559"/>
  <unicode hex="03D9"/>
  <anchor x="242" y="0" name="bottom"/>
  <anchor x="316" y="517" name="top"/>
  <anchor x="467" y="517" name="topright"/>
  <outline>
    <contour>
      <point x="237" y="-8" type="line"/>
      <point x="235" y="-8" type="line"/>
      <point x="208" y="-191" type="line"/>
      <point x="210" y="-191" type="line"/>
    </contour>
    <component base="o"/>
  </outline>
</glyph>
<glyph name="Digamma" format="2">
  <advance width="541"/>
  <unicode hex="03DC"/>
  <anchor x="224.17" y="0.0" name="bottom"/>
  <anchor x="106" y="0" name="bottomright"/>
  <anchor x="389" y="680" name="top"/>
  <outline>
    <contour>
      <point x="439" y="340" type="curve"/>
      <point x="440" y="342" type="line"/>
      <point x="422" y="352"/>
      <point x="404" y="359"/>
      <point x="374" y="359" type="curve" smooth="yes"/>
      <point x="145" y="359" type="line"/>
      <point x="144" y="357" type="line"/>
      <point x="372" y="357" type="line" smooth="yes"/>
      <point x="401" y="357"/>
      <point x="422" y="350"/>
    </contour>
    <component base="Gamma"/>
  </outline>
</glyph>
<glyph name="kappaSymbol" format="2">
  <advance width="579"/>
  <unicode hex="03F0"/>
  <anchor x="253.17" y="0" name="bottom"/>
  <anchor x="325.83" y="517" name="top"/>
  <outline>
    <contour>
      <point x="88" y="0" type="line"/>
      <point x="90" y="0" type="line"/>
      <point x="488" y="515" type="line"/>
      <point x="490" y="517" type="line"/>
      <point x="488" y="518" type="line"/>
      <point x="90" y="3" type="line"/>
    </contour>
    <contour>
      <point x="88" y="0" type="line"/>
      <point x="90" y="2" type="line"/>
      <point x="110" y="141"/>
      <point x="129" y="281"/>
      <point x="149" y="420" type="curve" smooth="yes"/>
      <point x="157" y="478"/>
      <point x="148" y="499"/>
      <point x="107" y="519" type="curve"/>
      <point x="106" y="517" type="line"/>
      <point x="146" y="498"/>
      <point x="155" y="476"/>
      <point x="147" y="420" type="curve" smooth="yes"/>
    </contour>
    <contour>
      <point x="471" y="-4" type="curve"/>
      <point x="472" y="-2" type="line"/>
      <point x="432" y="17"/>
      <point x="423" y="41"/>
      <point x="431" y="97" type="curve" smooth="yes"/>
      <point x="490" y="517" type="line"/>
      <point x="488" y="515" type="line"/>
      <point x="468" y="376"/>
      <point x="449" y="236"/>
      <point x="429" y="97" type="curve" smooth="yes"/>
      <point x="421" y="39"/>
      <point x="430" y="16"/>
    </contour>
  </outline>
</glyph>
<glyph name="SigmaLunateSymbol" format="2">
  <advance width="562"/>
  <unicode hex="03F9"/>
  <anchor x="244.67" y="0" name="bottom"/>
  <anchor x="358" y="341" name="center"/>
  <anchor x="340.238" y="680" name="top"/>
  <outline>
    <contour>
      <point x="415" y="690" type="curve" smooth="yes"/>
      <point x="199" y="690"/>
      <point x="93" y="483"/>
      <point x="93" y="273" type="curve" smooth="yes"/>
      <point x="93" y="83"/>
      <point x="186" y="-9"/>
      <point x="317" y="-9" type="curve" smooth="yes"/>
      <point x="409" y="-9"/>
      <point x="461" y="23"/>
      <point x="507" y="50" type="curve"/>
      <point x="506" y="52" type="line"/>
      <point x="460" y="25"/>
      <point x="408" y="-7"/>
      <point x="317" y="-7" type="curve" smooth="yes"/>
      <point x="188" y="-7"/>
      <point x="95" y="84"/>
      <point x="95" y="273" type="curve" smooth="yes"/>
      <point x="95" y="478"/>
      <point x="199" y="688"/>
      <point x="415" y="688" type="curve" smooth="yes"/>
      <point x="498" y="688"/>
      <point x="537" y="662"/>
      <point x="578" y="631" type="curve"/>
      <point x="579" y="633" type="line"/>
      <point x="539" y="664"/>
      <point x="499" y="690"/>
    </contour>
  </outline>
</glyph>
<glyph name="rhoStrokeSymbol" format="2">
  <advance width="556"/>
  <unicode hex="03FC"/>
  <anchor x="326" y="517" name="top"/>
  <outline>
    <contour>
      <point x="-9" y="-90" type="line"/>
      <point x="-9" y="-92" type="line"/>
      <point x="66" y="-92" type="line"/>
      <point x="248" y="-92" type="line"/>
      <point x="248" y="-90" type="line"/>
    </contour>
    <component base="rho"/>
  </outline>
</glyph>
<glyph name="Nje-cy" format="2">
  <advance width="925"/>
  <unicode hex="040A"/>
  <anchor x="426.17" y="0" name="bottom"/>
  <anchor x="521.738" y="680" name="top"/>
  <outline>
    <contour>
      <point x="667" y="367" type="curve" smooth="yes"/>
      <point x="529.143" y="367" type="line"/>
      <point x="573" y="680" type="line"/>
      <point x="571" y="680" type="line"/>
      <point x="527.272" y="367" type="line"/>
      <point x="147" y="367" type="line"/>
      <point x="191" y="680" type="line"/>
      <point x="189" y="680" type="line"/>
      <point x="94" y="0" type="line"/>
      <point x="96" y="0" type="line"/>
      <point x="147" y="365" type="line"/>
      <point x="526.993" y="365" type="line"/>
      <point x="476" y="0" type="line"/>
      <point x="616" y="0" type="line" smooth="yes"/>
      <point x="800" y="0"/>
      <point x="857" y="107"/>
      <point x="857" y="210" type="curve" smooth="yes"/>
      <point x="857" y="302"/>
      <point x="790" y="367"/>
    </contour>
    <contour>
      <point x="616" y="2" type="curve" smooth="yes"/>
      <point x="478" y="2" type="line"/>
      <point x="528.863" y="365" type="line"/>
      <point x="667" y="365" type="line" smooth="yes"/>
      <point x="789" y="365"/>
      <point x="855" y="300"/>
      <point x="855" y="210" type="curve" smooth="yes"/>
      <point x="855" y="116"/>
      <point x="804" y="2"/>
    </contour>
  </outline>
</glyph>
<glyph name="Tshe-cy" format="2">
  <advance width="689"/>
  <unicode hex="040B"/>
  <anchor x="359.17" y="0.0" name="bottom"/>
  <anchor x="583" y="0" name="bottomright"/>
  <anchor x="454.738" y="680.0" name="top"/>
  <outline>
    <contour>
      <point x="511" y="680" type="line"/>
      <point x="79" y="680" type="line"/>
      <point x="79" y="678" type="line"/>
      <point x="511" y="678" type="line"/>
    </contour>
    <component base="Shha-cy" xOffset="102"/>
  </outline>
</glyph>
<glyph name="Ge-cy" format="2">
  <advance width="521"/>
  <unicode hex="0413"/>
  <anchor x="224.17" y="0" name="bottom"/>
  <anchor x="106" y="0" name="bottomright"/>
  <anchor x="389" y="680" name="top"/>
  <outline>
    <contour>
      <point x="189" y="680" type="line"/>
      <point x="94" y="0" type="line"/>
      <point x="96" y="0" type="line"/>
      <point x="191" y="679" type="line"/>
    </contour>
    <contour>
      <point x="560" y="680" type="line" smooth="yes"/>
      <point x="189" y="680" type="line"/>
      <point x="190" y="678" type="line"/>
      <point x="559" y="678" type="line" smooth="yes"/>
    </contour>
  </outline>
</glyph>
<glyph name="De-cy" format="2">
  <advance width="587"/>
  <unicode hex="0414"/>
  <anchor x="465" y="0" name="_bottom"/>
  <anchor x="352.738" y="680" name="top"/>
  <outline>
    <contour>
      <point x="516" y="680" type="line"/>
      <point x="244" y="680" type="line"/>
      <point x="157" y="351" type="line" smooth="yes"/>
      <point x="89" y="95"/>
      <point x="58" y="43"/>
      <point x="-4" y="2" type="curve"/>
      <point x="-4" y="0" type="line"/>
      <point x="421" y="0" type="line"/>
    </contour>
    <contour>
      <point x="514" y="678" type="line"/>
      <point x="419" y="2" type="line"/>
      <point x="-1" y="2" type="line"/>
      <point x="60" y="43"/>
      <point x="91" y="96"/>
      <point x="159" y="351" type="curve" smooth="yes"/>
      <point x="246" y="678" type="line"/>
    </contour>
    <component base="descStraight-cy.case" xOffset="437"/>
    <component base="descStraightleft-cy.case" xOffset="-57"/>
  </outline>
</glyph>
<glyph name="Ii-cy" format="2">
  <advance width="653"/>
  <unicode hex="0418"/>
  <anchor x="290.17" y="0" name="bottom"/>
  <anchor x="497" y="0" name="bottomright"/>
  <anchor x="393" y="680" name="top"/>
  <outline>
    <contour>
      <point x="582" y="680" type="line"/>
      <point x="579" y="680" type="line"/>
      <point x="96" y="2" type="line"/>
      <point x="98" y="13"/>
      <point x="99" y="21"/>
      <point x="100" y="28" type="curve" smooth="yes"/>
      <point x="191" y="680" type="line"/>
      <point x="189" y="680" type="line"/>
      <point x="94" y="0" type="line"/>
      <point x="97" y="0" type="line"/>
      <point x="580" y="678" type="line"/>
      <point x="577" y="661"/>
      <point x="574" y="640"/>
      <point x="573" y="634" type="curve" smooth="yes"/>
      <point x="485" y="0" type="line"/>
      <point x="487" y="0" type="line"/>
    </contour>
  </outline>
</glyph>
<glyph name="Pe-cy" format="2">
  <advance width="654"/>
  <unicode hex="041F"/>
  <anchor x="290.67" y="0" name="bottom"/>
  <anchor x="498" y="0" name="bottomright"/>
  <anchor x="386.238" y="680" name="top"/>
  <outline>
    <contour>
      <point x="583" y="680" type="line"/>
      <point x="189" y="680" type="line"/>
      <point x="94" y="0" type="line"/>
      <point x="96" y="0" type="line"/>
      <point x="191" y="678" type="line"/>
      <point x="581" y="678" type="line"/>
      <point x="486" y="0" type="line"/>
      <point x="488" y="0" type="line"/>
    </contour>
  </outline>
</glyph>
<glyph name="U-cy" format="2">
  <advance width="484"/>
  <unicode hex="0423"/>
  <anchor x="205.67" y="0" name="bottom"/>
  <anchor x="311" y="680" name="top"/>
  <outline>
    <contour>
      <point x="528" y="680" type="line"/>
      <point x="526" y="680" type="line"/>
      <point x="252" y="197" type="line"/>
      <point x="81" y="680" type="line"/>
      <point x="79" y="680" type="line"/>
      <point x="250" y="196" type="line"/>
      <point x="251" y="196" type="line"/>
      <point x="161" y="38"/>
      <point x="148" y="19"/>
      <point x="64" y="-5" type="curve"/>
      <point x="65" y="-7" type="line"/>
      <point x="148" y="16"/>
      <point x="165" y="39"/>
      <point x="253" y="195" type="curve" smooth="yes"/>
    </contour>
  </outline>
</glyph>
<glyph name="Ef-cy" format="2">
  <advance width="778"/>
  <unicode hex="0424"/>
  <anchor x="352.67" y="0" name="bottom"/>
  <anchor x="448.238" y="680" name="top"/>
  <outline>
    <contour>
      <point x="444" y="646" type="curve"/>
      <point x="443" y="644" type="line"/>
      <point x="645" y="641"/>
      <point x="733" y="546"/>
      <point x="733" y="403" type="curve" smooth="yes"/>
      <point x="733" y="249"/>
      <point x="661" y="58"/>
      <point x="360" y="51" type="curve"/>
      <point x="360" y="49" type="line"/>
      <point x="663" y="56"/>
      <point x="735" y="248"/>
      <point x="735" y="403" type="curve" smooth="yes"/>
      <point x="735" y="546"/>
      <point x="647" y="643"/>
    </contour>
    <contour>
      <point x="444" y="646" type="line"/>
      <point x="140" y="639"/>
      <point x="68" y="452"/>
      <point x="68" y="290" type="curve" smooth="yes"/>
      <point x="68" y="148"/>
      <point x="156" y="52"/>
      <point x="360" y="49" type="curve"/>
      <point x="360" y="51" type="line"/>
      <point x="158" y="54"/>
      <point x="70" y="149"/>
      <point x="70" y="290" type="curve" smooth="yes"/>
      <point x="70" y="451"/>
      <point x="142" y="637"/>
      <point x="443" y="644" type="curve"/>
    </contour>
    <contour>
      <point x="453" y="705" type="line"/>
      <point x="451" y="705" type="line"/>
      <point x="442" y="646" type="line"/>
      <point x="442" y="645" type="line"/>
      <point x="359" y="51" type="line"/>
      <point x="359" y="50" type="line"/>
      <point x="349" y="-16" type="line"/>
      <point x="351" y="-16" type="line"/>
      <point x="361" y="50" type="line"/>
      <point x="361" y="51" type="line"/>
      <point x="444" y="645" type="line"/>
      <point x="444" y="646" type="line"/>
    </contour>
  </outline>
</glyph>
<glyph name="Sha-cy" format="2">
  <advance width="888"/>
  <unicode hex="0428"/>
  <anchor x="407.67" y="0" name="bottom"/>
  <anchor x="732" y="0" name="bottomright"/>
  <anchor x="503.238" y="680" name="top"/>
  <outline>
    <contour>
      <point x="818" y="682" type="line"/>
      <point x="816" y="682" type="line"/>
      <point x="720" y="2" type="line"/>
      <point x="409" y="2" type="line"/>
      <point x="505" y="682" type="line"/>
      <point x="503" y="682" type="line"/>
      <point x="407" y="2" type="line"/>
      <point x="96" y="2" type="line"/>
      <point x="192" y="682" type="line"/>
      <point x="190" y="682" type="line"/>
      <point x="94" y="0" type="line"/>
      <point x="722" y="0" type="line"/>
    </contour>
  </outline>
</glyph>
<glyph name="Hardsign-cy" format="2">
  <advance width="577"/>
  <unicode hex="042A"/>
  <anchor x="266.17" y="0.0" name="bottom"/>
  <anchor x="361.738" y="680.0" name="top"/>
  <outline>
    <contour>
      <point x="217" y="678" type="line"/>
      <point x="219" y="680" type="line"/>
      <point x="59" y="680" type="line"/>
      <point x="59" y="678" type="line"/>
    </contour>
    <component base="Softsign-cy" xOffset="28"/>
  </outline>
</glyph>
<glyph name="Yeru-cy" format="2">
  <advance width="761"/>
  <unicode hex="042B"/>
  <anchor x="344.17" y="0" name="bottom"/>
  <anchor x="422" y="680" name="top"/>
  <outline>
    <contour>
      <point x="690" y="680" type="line"/>
      <point x="688" y="680" type="line"/>
      <point x="593" y="0" type="line"/>
      <point x="595" y="0" type="line"/>
    </contour>
    <contour>
      <point x="189" y="680" type="line"/>
      <point x="94" y="0" type="line"/>
      <point x="234" y="0" type="line" smooth="yes"/>
      <point x="418" y="0"/>
      <point x="475" y="137"/>
      <point x="475" y="240" type="curve" smooth="yes"/>
      <point x="475" y="344"/>
      <point x="408" y="399"/>
      <point x="285" y="399" type="curve" smooth="yes"/>
      <point x="151" y="399" type="line"/>
      <point x="151" y="397" type="line"/>
      <point x="285" y="397" type="line" smooth="yes"/>
      <point x="407" y="397"/>
      <point x="473" y="342"/>
      <point x="473" y="240" type="curve" smooth="yes"/>
      <point x="473" y="146"/>
      <point x="422" y="2"/>
      <point x="234" y="2" type="curve" smooth="yes"/>
      <point x="96" y="2" type="line"/>
      <point x="191" y="680" type="line"/>
    </contour>
  </outline>
</glyph>
<glyph name="zhe-cy" format="2">
  <advance width="695"/>
  <unicode hex="0436"/>
  <anchor x="311.17" y="0" name="bottom"/>
  <anchor x="602" y="0" name="bottomright"/>
  <anchor x="389" y="517" name="top"/>
  <outline>
    <contour>
      <point x="668" y="527" type="line"/>
      <point x="619" y="510"/>
      <point x="588" y="497"/>
      <point x="551" y="427" type="curve" smooth="yes"/>
      <point x="470" y="278" type="line"/>
      <point x="357" y="278" type="line"/>
      <point x="391" y="517" type="line"/>
      <point x="389" y="517" type="line"/>
      <point x="355" y="278" type="line"/>
      <point x="248" y="278" type="line"/>
      <point x="173" y="450" type="line" smooth="yes"/>
      <point x="153" y="498"/>
      <point x="141" y="513"/>
      <point x="102" y="527" type="curve"/>
      <point x="102" y="525" type="line"/>
      <point x="139" y="511"/>
      <point x="149" y="501"/>
      <point x="171" y="450" type="curve" smooth="yes"/>
      <point x="246" y="277" type="line"/>
      <point x="37" y="0" type="line"/>
      <point x="40" y="0" type="line"/>
      <point x="248" y="276" type="line"/>
      <point x="355" y="276" type="line"/>
      <point x="316" y="0" type="line"/>
      <point x="318" y="0" type="line"/>
      <point x="357" y="276" type="line"/>
      <point x="470" y="276" type="line"/>
      <point x="592" y="0" type="line"/>
      <point x="594" y="0" type="line"/>
      <point x="472" y="277" type="line"/>
      <point x="553" y="427" type="line" smooth="yes"/>
      <point x="591" y="496"/>
      <point x="619" y="508"/>
      <point x="668" y="525" type="curve"/>
    </contour>
  </outline>
</glyph>
<glyph name="em-cy" format="2">
  <advance width="643"/>
  <unicode hex="043C"/>
  <anchor x="285.17" y="0" name="bottom"/>
  <anchor x="532" y="0" name="bottomright"/>
  <anchor x="357.83" y="517" name="top"/>
  <outline>
    <contour>
      <point x="549" y="517" type="line"/>
      <point x="547" y="517" type="line"/>
      <point x="297" y="83" type="line"/>
      <point x="168" y="517" type="line"/>
      <point x="166" y="517" type="line"/>
      <point x="49" y="0" type="line"/>
      <point x="51" y="0" type="line"/>
      <point x="160" y="482" type="line"/>
      <point x="164" y="500"/>
      <point x="165" y="503"/>
      <point x="167" y="515" type="curve"/>
      <point x="295" y="81" type="line"/>
      <point x="298" y="81" type="line"/>
      <point x="548" y="515" type="line"/>
      <point x="546" y="499"/>
      <point x="546" y="493"/>
      <point x="545" y="478" type="curve"/>
      <point x="520" y="0" type="line"/>
      <point x="522" y="0" type="line"/>
    </contour>
  </outline>
</glyph>
<glyph name="en-cy" format="2">
  <advance width="578"/>
  <unicode hex="043D"/>
  <anchor x="253" y="0" name="bottom"/>
  <anchor x="427" y="0" name="bottomright"/>
  <anchor x="325" y="517" name="top"/>
  <outline>
    <contour>
      <point x="415" y="0" type="line"/>
      <point x="417" y="0" type="line"/>
      <point x="489" y="517" type="line"/>
      <point x="487" y="517" type="line"/>
      <point x="453" y="273" type="line"/>
      <point x="129" y="273" type="line"/>
      <point x="163" y="517" type="line"/>
      <point x="161" y="517" type="line"/>
      <point x="89" y="0" type="line"/>
      <point x="91" y="0" type="line"/>
      <point x="129" y="271" type="line"/>
      <point x="453" y="271" type="line"/>
    </contour>
  </outline>
</glyph>
<glyph name="pe-cy" format="2">
  <advance width="573"/>
  <unicode hex="043F"/>
  <anchor x="250.17" y="0" name="bottom"/>
  <anchor x="422" y="0" name="bottomright"/>
  <anchor x="322.83" y="517" name="top"/>
  <outline>
    <contour>
      <point x="410" y="0" type="line"/>
      <point x="412" y="0" type="line"/>
      <point x="484" y="517" type="line"/>
      <point x="161" y="517" type="line"/>
      <point x="89" y="0" type="line"/>
      <point x="91" y="0" type="line"/>
      <point x="163" y="515" type="line"/>
      <point x="482" y="515" type="line"/>
    </contour>
  </outline>
</glyph>
<glyph name="che-cy" format="2">
  <advance width="520"/>
  <unicode hex="0447"/>
  <anchor x="223.67" y="0" name="bottom"/>
  <anchor x="329" y="0" name="bottomleft"/>
  <anchor x="369" y="0" name="bottomright"/>
  <anchor x="271" y="517" name="top"/>
  <outline>
    <contour>
      <point x="431" y="517" type="line"/>
      <point x="429" y="517" type="line"/>
      <point x="399" y="301" type="line"/>
      <point x="354" y="251"/>
      <point x="295" y="192"/>
      <point x="204" y="192" type="curve" smooth="yes"/>
      <point x="119" y="192"/>
      <point x="75" y="239"/>
      <point x="87" y="327" type="curve" smooth="yes"/>
      <point x="113" y="517" type="line"/>
      <point x="111" y="517" type="line"/>
      <point x="85" y="327" type="line" smooth="yes"/>
      <point x="73" y="238"/>
      <point x="118" y="190"/>
      <point x="204" y="190" type="curve" smooth="yes"/>
      <point x="294" y="190"/>
      <point x="355" y="249"/>
      <point x="399" y="299" type="curve"/>
      <point x="357" y="0" type="line"/>
      <point x="359" y="0" type="line"/>
    </contour>
  </outline>
</glyph>
<glyph name="hardsign-cy" format="2">
  <advance width="527"/>
  <unicode hex="044A"/>
  <anchor x="244.67" y="0.0" name="bottom"/>
  <anchor x="317.33" y="517.0" name="top"/>
  <outline>
    <contour>
      <point x="196" y="515" type="line"/>
      <point x="198" y="517" type="line"/>
      <point x="46" y="517" type="line"/>
      <point x="46" y="515" type="line"/>
    </contour>
    <component base="softsign-cy" xOffset="35"/>
  </outline>
</glyph>
<glyph name="ereversed-cy" format="2">
  <advance width="466"/>
  <unicode hex="044D"/>
  <anchor x="196.17" y="0" name="bottom"/>
  <anchor x="247" y="517" name="top"/>
  <outline>
    <contour>
      <point x="163" y="-11" type="curve" smooth="yes"/>
      <point x="320" y="-11"/>
      <point x="392" y="166"/>
      <point x="392" y="344" type="curve" smooth="yes"/>
      <point x="392" y="469"/>
      <point x="337" y="527"/>
      <point x="241" y="527" type="curve" smooth="yes"/>
      <point x="178" y="527"/>
      <point x="132" y="505"/>
      <point x="91" y="474" type="curve"/>
      <point x="91" y="472" type="line"/>
      <point x="133" y="503"/>
      <point x="178" y="525"/>
      <point x="241" y="525" type="curve" smooth="yes"/>
      <point x="336" y="525"/>
      <point x="390" y="468"/>
      <point x="390" y="344" type="curve" smooth="yes"/>
      <point x="390" y="322"/>
      <point x="389" y="297"/>
      <point x="386" y="269" type="curve"/>
      <point x="386" y="268" type="line"/>
      <point x="373" y="161"/>
      <point x="318" y="-9"/>
      <point x="163" y="-9" type="curve" smooth="yes"/>
      <point x="99" y="-9"/>
      <point x="56" y="19"/>
      <point x="27" y="51" type="curve"/>
      <point x="26" y="49" type="line"/>
      <point x="55" y="17"/>
      <point x="99" y="-11"/>
    </contour>
    <contour>
      <point x="123" y="268" type="line"/>
      <point x="387" y="268" type="line"/>
      <point x="387" y="270" type="line"/>
      <point x="123" y="270" type="line"/>
    </contour>
  </outline>
</glyph>
<glyph name="nje-cy" format="2">
  <advance width="798"/>
  <unicode hex="045A"/>
  <anchor x="362.67" y="0" name="bottom"/>
  <anchor x="435.33" y="517" name="top"/>
  <outline>
    <contour>
      <point x="563" y="309" type="curve" smooth="yes"/>
      <point x="449" y="309" type="line"/>
      <point x="478" y="517" type="line"/>
      <point x="476" y="517" type="line"/>
      <point x="447" y="309" type="line"/>
      <point x="134" y="310" type="line"/>
      <point x="163" y="518" type="line"/>
      <point x="161" y="518" type="line"/>
      <point x="89" y="1" type="line"/>
      <point x="91" y="1" type="line"/>
      <point x="134" y="308" type="line"/>
      <point x="447" y="307" type="line"/>
      <point x="406" y="15" type="line"/>
      <point x="451" y="-2"/>
      <point x="492" y="-10"/>
      <point x="536" y="-9" type="curve" smooth="yes"/>
      <point x="684" y="-5"/>
      <point x="732" y="96"/>
      <point x="732" y="186" type="curve" smooth="yes"/>
      <point x="732" y="265"/>
      <point x="683" y="309"/>
    </contour>
    <contour>
      <point x="536" y="-7" type="curve" smooth="yes"/>
      <point x="493" y="-8"/>
      <point x="451" y="0"/>
      <point x="408" y="16" type="curve"/>
      <point x="449" y="307" type="line"/>
      <point x="563" y="307" type="line" smooth="yes"/>
      <point x="682" y="307"/>
      <point x="730" y="264"/>
      <point x="730" y="186" type="curve" smooth="yes"/>
      <point x="730" y="97"/>
      <point x="683" y="-3"/>
    </contour>
  </outline>
</glyph>
<glyph name="dzhe-cy" format="2">
  <advance width="574"/>
  <unicode hex="045F"/>
  <anchor x="250" y="0" name="bottom"/>
  <anchor x="422" y="0" name="bottomright"/>
  <anchor x="423" y="0" name="ogonek"/>
  <anchor x="320" y="517" name="top"/>
  <anchor x="495" y="517" name="topright"/>
  <outline>
    <contour>
      <point x="213" y="-7" type="line"/>
      <point x="196" y="-131" type="line"/>
      <point x="198" y="-131" type="line"/>
      <point x="215" y="-8" type="line"/>
    </contour>
    <component base="u"/>
  </outline>
</glyph>
<glyph name="Yat-cy" format="2">
  <advance width="567"/>
  <unicode hex="0462"/>
  <anchor x="247.17" y="0" name="bottom"/>
  <anchor x="342.738" y="680" name="top"/>
  <outline>
    <contour>
      <point x="112" y="0" type="line"/>
      <point x="262" y="0" type="line" smooth="yes"/>
      <point x="446" y="0"/>
      <point x="503" y="137"/>
      <point x="503" y="240" type="curve" smooth="yes"/>
      <point x="503" y="344"/>
      <point x="436" y="399"/>
      <point x="313" y="399" type="curve" smooth="yes"/>
      <point x="169" y="399" type="line"/>
      <point x="169" y="397" type="line"/>
      <point x="313" y="397" type="line" smooth="yes"/>
      <point x="435" y="397"/>
      <point x="501" y="342"/>
      <point x="501" y="240" type="curve" smooth="yes"/>
      <point x="501" y="146"/>
      <point x="450" y="2"/>
      <point x="262" y="2" type="curve" smooth="yes"/>
      <point x="114" y="2" type="line"/>
      <point x="209" y="680" type="line"/>
      <point x="207" y="680" type="line"/>
    </contour>
    <contour>
      <point x="43" y="560" type="line"/>
      <point x="191" y="560" type="line"/>
      <point x="351" y="560" type="line"/>
      <point x="351" y="562" type="line"/>
      <point x="193" y="562" type="line"/>
      <point x="43" y="562" type="line"/>
    </contour>
  </outline>
</glyph>
<glyph name="Eiotified-cy" format="2">
  <advance width="727"/>
  <unicode hex="0464"/>
  <anchor x="327.17" y="0" name="bottom"/>
  <anchor x="422.738" y="680" name="top"/>
  <outline>
    <contour>
      <point x="191" y="680" type="line"/>
      <point x="189" y="680" type="line"/>
      <point x="94" y="0" type="line"/>
      <point x="96" y="0" type="line"/>
      <point x="146" y="356" type="line"/>
      <point x="278" y="356" type="line"/>
      <point x="278" y="358" type="line"/>
      <point x="146" y="358" type="line"/>
    </contour>
    <component base="E-cy" xOffset="178"/>
  </outline>
</glyph>
<glyph name="eiotified-cy" format="2">
  <advance width="669"/>
  <unicode hex="0465"/>
  <anchor x="298.17" y="0" name="bottom"/>
  <anchor x="370.83" y="517" name="top"/>
  <outline>
    <contour>
      <point x="163" y="517" type="line"/>
      <point x="161" y="517" type="line"/>
      <point x="91" y="0" type="line"/>
      <point x="93" y="0" type="line"/>
      <point x="129" y="267" type="line"/>
      <point x="285" y="267" type="line"/>
      <point x="285" y="269" type="line"/>
      <point x="129" y="269" type="line"/>
    </contour>
    <component base="e-cy" xOffset="194"/>
  </outline>
</glyph>
<glyph name="Yuslittle-cy" format="2">
  <advance width="556"/>
  <unicode hex="0466"/>
  <anchor x="241.67" y="0" name="bottom"/>
  <anchor x="337.238" y="680" name="top"/>
  <outline>
    <contour>
      <point x="337" y="680" type="line"/>
      <point x="335" y="680" type="line"/>
      <point x="-1" y="0" type="line"/>
      <point x="1" y="0" type="line"/>
      <point x="336" y="678" type="line"/>
      <point x="483" y="0" type="line"/>
      <point x="485" y="0" type="line"/>
    </contour>
    <contour>
      <point x="406" y="363" type="line"/>
      <point x="179" y="363" type="line"/>
      <point x="179" y="361" type="line"/>
      <point x="406" y="361" type="line"/>
    </contour>
    <contour>
      <point x="291" y="362" type="line"/>
      <point x="289" y="362" type="line"/>
      <point x="238" y="0" type="line"/>
      <point x="240" y="0" type="line"/>
    </contour>
  </outline>
</glyph>
<glyph name="yuslittle-cy" format="2">
  <advance width="481"/>
  <unicode hex="0467"/>
  <anchor x="204.17" y="0" name="bottom"/>
  <anchor x="276.83" y="517" name="top"/>
  <outline>
    <contour>
      <point x="276" y="517" type="line"/>
      <point x="274" y="517" type="line"/>
      <point x="-6" y="0" type="line"/>
      <point x="-4" y="0" type="line"/>
      <point x="275" y="515" type="line"/>
      <point x="413" y="0" type="line"/>
      <point x="415" y="0" type="line"/>
    </contour>
    <contour>
      <point x="341" y="275" type="line"/>
      <point x="144" y="275" type="line"/>
      <point x="143" y="273" type="line"/>
      <point x="341" y="273" type="line"/>
    </contour>
    <contour>
      <point x="240" y="274" type="line"/>
      <point x="201" y="0" type="line"/>
      <point x="203" y="0" type="line"/>
      <point x="242" y="274" type="line"/>
    </contour>
  </outline>
</glyph>
<glyph name="Yuslittleiotified-cy" format="2">
  <advance width="725"/>
  <unicode hex="0468"/>
  <anchor x="326.17" y="0" name="bottom"/>
  <anchor x="421.738" y="680" name="top"/>
  <outline>
    <contour>
      <point x="389" y="361" type="line"/>
      <point x="389" y="363" type="line"/>
      <point x="147" y="363" type="line"/>
      <point x="191" y="680" type="line"/>
      <point x="189" y="680" type="line"/>
      <point x="94" y="0" type="line"/>
      <point x="96" y="0" type="line"/>
      <point x="147" y="361" type="line"/>
    </contour>
    <component base="Yuslittle-cy" xOffset="169"/>
  </outline>
</glyph>
<glyph name="Yusbig-cy" format="2">
  <advance width="676"/>
  <unicode hex="046A"/>
  <anchor x="301.67" y="0" name="bottom"/>
  <anchor x="397.238" y="680" name="top"/>
  <outline>
    <contour>
      <point x="4" y="0" type="line"/>
      <point x="7" y="0" type="line"/>
      <point x="235" y="356" type="line"/>
      <point x="350" y="356" type="line"/>
      <point x="301" y="0" type="line"/>
      <point x="303" y="0" type="line"/>
      <point x="352" y="356" type="line"/>
      <point x="472" y="356" type="line"/>
      <point x="597" y="0" type="line"/>
      <point x="600" y="0" type="line"/>
      <point x="473" y="358" type="line"/>
      <point x="234" y="358" type="line"/>
    </contour>
    <contour>
      <point x="350" y="356" type="line"/>
      <point x="352" y="356" type="line"/>
      <point x="615" y="678" type="line"/>
      <point x="615" y="679" type="line"/>
      <point x="613" y="678" type="line"/>
      <point x="351" y="358" type="line"/>
      <point x="181" y="678" type="line"/>
      <point x="179" y="679" type="line"/>
      <point x="179" y="678" type="line"/>
    </contour>
    <contour>
      <point x="179" y="678" type="line"/>
      <point x="615" y="678" type="line"/>
      <point x="615" y="680" type="line"/>
      <point x="179" y="680" type="line"/>
    </contour>
  </outline>
</glyph>
<glyph name="yusbig-cy" format="2">
  <advance width="642"/>
  <unicode hex="046B"/>
  <anchor x="284.67" y="0" name="bottom"/>
  <anchor x="357.33" y="517" name="top"/>
  <outline>
    <contour>
      <point x="28" y="0" type="line"/>
      <point x="31" y="0" type="line"/>
      <point x="207" y="276" type="line"/>
      <point x="323" y="276" type="line"/>
      <point x="284" y="0" type="line"/>
      <point x="286" y="0" type="line"/>
      <point x="325" y="276" type="line"/>
      <point x="441" y="276" type="line"/>
      <point x="539" y="0" type="line"/>
      <point x="542" y="0" type="line"/>
      <point x="442" y="278" type="line"/>
      <point x="206" y="278" type="line"/>
    </contour>
    <contour>
      <point x="323" y="276" type="line"/>
      <point x="325" y="276" type="line"/>
      <point x="528" y="515" type="line"/>
      <point x="528" y="517" type="line"/>
      <point x="525" y="515" type="line"/>
      <point x="324" y="278" type="line"/>
      <point x="176" y="515" type="line"/>
      <point x="173" y="517" type="line"/>
      <point x="173" y="515" type="line"/>
    </contour>
    <contour>
      <point x="174" y="515" type="line"/>
      <point x="528" y="515" type="line"/>
      <point x="528" y="517" type="line"/>
      <point x="173" y="517" type="line"/>
    </contour>
  </outline>
</glyph>
<glyph name="yusbigiotified-cy" format="2">
  <advance width="716"/>
  <unicode hex="046D"/>
  <anchor x="321.67" y="0" name="bottom"/>
  <anchor x="394.33" y="517" name="top"/>
  <outline>
    <contour>
      <point x="142" y="0" type="line"/>
      <point x="144" y="0" type="line"/>
      <point x="311" y="276" type="line"/>
      <point x="417" y="276" type="line"/>
      <point x="378" y="0" type="line"/>
      <point x="380" y="0" type="line"/>
      <point x="419" y="276" type="line"/>
      <point x="525" y="276" type="line"/>
      <point x="614" y="0" type="line"/>
      <point x="616" y="0" type="line"/>
      <point x="526" y="278" type="line"/>
      <point x="310" y="278" type="line"/>
    </contour>
    <contour>
      <point x="89" y="0" type="line"/>
      <point x="91" y="0" type="line"/>
      <point x="130" y="276" type="line"/>
      <point x="327" y="276" type="line"/>
      <point x="327" y="278" type="line"/>
      <point x="130" y="278" type="line"/>
      <point x="163" y="517" type="line"/>
      <point x="161" y="517" type="line"/>
    </contour>
    <contour>
      <point x="417" y="276" type="line"/>
      <point x="419" y="276" type="line"/>
      <point x="611" y="515" type="line"/>
      <point x="611" y="517" type="line"/>
      <point x="609" y="515" type="line"/>
      <point x="418" y="278" type="line"/>
      <point x="280" y="515" type="line"/>
      <point x="278" y="517" type="line"/>
      <point x="278" y="515" type="line"/>
    </contour>
    <contour>
      <point x="278" y="515" type="line"/>
      <point x="611" y="515" type="line"/>
      <point x="611" y="517" type="line"/>
      <point x="278" y="517" type="line"/>
    </contour>
  </outline>
</glyph>
<glyph name="Gheupturn-cy" format="2">
  <advance width="521"/>
  <unicode hex="0490"/>
  <anchor x="224.17" y="0.0" name="bottom"/>
  <anchor x="106" y="0" name="bottomright"/>
  <anchor x="389" y="680" name="top"/>
  <outline>
    <contour>
      <point x="558" y="679" type="line"/>
      <point x="560" y="680" type="line"/>
      <point x="574" y="777" type="line"/>
      <point x="572" y="777" type="line"/>
    </contour>
    <component base="Ge-cy"/>
  </outline>
</glyph>
<glyph name="gheupturn-cy" format="2">
  <advance width="456"/>
  <unicode hex="0491"/>
  <anchor x="101" y="0" name="bottomright"/>
  <outline>
    <contour>
      <point x="434" y="516" type="line"/>
      <point x="436" y="517" type="line"/>
      <point x="449" y="610" type="line"/>
      <point x="447" y="610" type="line"/>
    </contour>
    <contour>
      <point x="91" y="0" type="line"/>
      <point x="163" y="515" type="line"/>
      <point x="435" y="515" type="line"/>
      <point x="436" y="517" type="line"/>
      <point x="161" y="517" type="line"/>
      <point x="89" y="0" type="line"/>
    </contour>
  </outline>
</glyph>
<glyph name="Ghestroke-cy" format="2">
  <advance width="522.719"/>
  <unicode hex="0492"/>
  <anchor x="226.17" y="0.0" name="bottom"/>
  <anchor x="108" y="0" name="bottomright"/>
  <anchor x="391" y="680" name="top"/>
  <outline>
    <contour>
      <point x="316" y="379" type="line"/>
      <point x="52" y="379" type="line"/>
      <point x="51" y="377" type="line"/>
      <point x="149" y="377" type="line"/>
      <point x="315" y="377" type="line"/>
    </contour>
    <component base="Ge-cy" xOffset="2"/>
  </outline>
</glyph>
<glyph name="kaverticalstroke-cy" format="2">
  <advance width="518"/>
  <unicode hex="049D"/>
  <anchor x="222.67" y="0" name="bottom"/>
  <anchor x="295.33" y="517" name="top"/>
  <outline>
    <contour>
      <point x="249" y="278" type="line"/>
      <point x="345" y="429" type="line" smooth="yes"/>
      <point x="390" y="499"/>
      <point x="412" y="510"/>
      <point x="450" y="525" type="curve"/>
      <point x="449" y="527" type="line"/>
      <point x="410" y="511"/>
      <point x="390" y="503"/>
      <point x="343" y="430" type="curve" smooth="yes"/>
      <point x="247" y="279" type="line"/>
      <point x="198" y="279" type="line"/>
      <point x="215" y="393" type="line"/>
      <point x="213" y="393" type="line"/>
      <point x="196" y="279" type="line"/>
      <point x="130" y="279" type="line"/>
      <point x="164" y="517" type="line"/>
      <point x="162" y="517" type="line"/>
      <point x="89" y="0" type="line"/>
      <point x="91" y="0" type="line"/>
      <point x="130" y="277" type="line"/>
      <point x="196" y="277" type="line"/>
      <point x="175" y="126" type="line"/>
      <point x="177" y="126" type="line"/>
      <point x="198" y="277" type="line"/>
      <point x="247" y="277" type="line"/>
      <point x="395" y="0" type="line"/>
      <point x="397" y="0" type="line"/>
    </contour>
  </outline>
</glyph>
<glyph name="Kastroke-cy" format="2">
  <advance width="530"/>
  <unicode hex="049E"/>
  <anchor x="225.67" y="0.0" name="bottom"/>
  <anchor x="462" y="0" name="bottomright"/>
  <anchor x="348" y="680" name="top"/>
  <outline>
    <contour>
      <point x="296" y="574" type="line"/>
      <point x="168" y="574" type="line"/>
      <point x="74" y="574" type="line"/>
      <point x="74" y="572" type="line"/>
      <point x="296" y="572" type="line"/>
    </contour>
    <component base="Ka-cy" xOffset="-6"/>
  </outline>
</glyph>
<glyph name="kabashkir-cy" format="2">
  <advance width="533"/>
  <unicode hex="04A1"/>
  <anchor x="247.67" y="0.0" name="bottom"/>
  <anchor x="440" y="0" name="bottomright"/>
  <anchor x="305" y="517" name="top"/>
  <outline>
    <contour>
      <point x="196" y="515" type="line"/>
      <point x="198" y="517" type="line"/>
      <point x="46" y="517" type="line"/>
      <point x="46" y="515" type="line"/>
    </contour>
    <component base="ka-cy" xOffset="35"/>
  </outline>
</glyph>
<glyph name="Enghe-cy" format="2">
  <advance width="669"/>
  <unicode hex="04A4"/>
  <anchor x="304" y="0" name="bottom"/>
  <anchor x="498" y="0" name="bottomright"/>
  <anchor x="338" y="340" name="center"/>
  <anchor x="385" y="680" name="top"/>
  <anchor x="139" y="680" name="topleft"/>
  <outline>
    <contour>
      <point x="581" y="680" type="line"/>
      <point x="582" y="678" type="line"/>
      <point x="728" y="678" type="line"/>
      <point x="728" y="680" type="line"/>
    </contour>
    <component base="H"/>
  </outline>
</glyph>
<glyph name="Pemiddlehook-cy" format="2">
  <advance width="980"/>
  <unicode hex="04A6"/>
  <anchor x="290.67" y="0.0" name="bottom"/>
  <anchor x="498" y="0" name="bottomright"/>
  <anchor x="549.238" y="680" name="top"/>
  <outline>
    <contour>
      <point x="754" y="410" type="curve" smooth="yes"/>
      <point x="664" y="410"/>
      <point x="595" y="369"/>
      <point x="528" y="295" type="curve"/>
      <point x="528" y="292" type="line"/>
      <point x="597" y="369"/>
      <point x="664" y="408"/>
      <point x="754" y="408" type="curve" smooth="yes"/>
      <point x="872" y="408"/>
      <point x="908" y="336"/>
      <point x="894" y="244" type="curve" smooth="yes"/>
      <point x="861" y="0" type="line"/>
      <point x="863" y="0" type="line"/>
      <point x="896" y="244" type="line" smooth="yes"/>
      <point x="910" y="339"/>
      <point x="871" y="410"/>
    </contour>
    <component base="Pe-cy"/>
    <component base="hookHELPER.case" xOffset="693"/>
  </outline>
</glyph>
<glyph name="pemiddlehook-cy" format="2">
  <advance width="871"/>
  <unicode hex="04A7"/>
  <anchor x="250.17" y="0.0" name="bottom"/>
  <anchor x="422" y="0" name="bottomright"/>
  <anchor x="471.83" y="517" name="top"/>
  <outline>
    <contour>
      <point x="742" y="0" type="line"/>
      <point x="744" y="0" type="line"/>
      <point x="769" y="178" type="line" smooth="yes"/>
      <point x="783" y="277"/>
      <point x="752" y="337"/>
      <point x="657" y="337" type="curve" smooth="yes"/>
      <point x="569" y="337"/>
      <point x="498" y="285"/>
      <point x="438" y="199" type="curve"/>
      <point x="439" y="197" type="line"/>
      <point x="499" y="283"/>
      <point x="570" y="335"/>
      <point x="657" y="335" type="curve" smooth="yes"/>
      <point x="751" y="335"/>
      <point x="781" y="276"/>
      <point x="767" y="178" type="curve" smooth="yes"/>
    </contour>
    <component base="pe-cy"/>
    <component base="hookHELPER" xOffset="574"/>
  </outline>
</glyph>
<glyph name="Ustraitstroke-cy" format="2">
  <advance width="479"/>
  <unicode hex="04B0"/>
  <anchor x="204" y="0" name="bottom"/>
  <anchor x="299" y="680" name="top"/>
  <anchor x="73" y="680" name="topleft"/>
  <outline>
    <contour>
      <point x="360" y="272" type="line"/>
      <point x="240" y="272" type="line"/>
      <point x="122" y="272" type="line"/>
      <point x="122" y="270" type="line"/>
      <point x="242" y="270" type="line"/>
      <point x="360" y="270" type="line"/>
    </contour>
    <component base="Y"/>
  </outline>
</glyph>
<glyph name="Tetse-cy" format="2">
  <advance width="765"/>
  <unicode hex="04B4"/>
  <anchor x="394" y="0" name="bottom"/>
  <anchor x="599" y="0" name="bottomright"/>
  <anchor x="441.738" y="680" name="top"/>
  <outline>
    <contour>
      <point x="511" y="680" type="line"/>
      <point x="79" y="680" type="line"/>
      <point x="79" y="678" type="line"/>
      <point x="294" y="678" type="line"/>
      <point x="296" y="678" type="line"/>
      <point x="511" y="678" type="line"/>
    </contour>
    <component base="Tse-cy" xOffset="105"/>
  </outline>
</glyph>
<glyph name="tetse-cy" format="2">
  <advance width="632"/>
  <unicode hex="04B5"/>
  <anchor x="515" y="0" name="_bottom"/>
  <anchor x="298" y="0" name="bottom"/>
  <anchor x="470" y="0" name="bottomright"/>
  <anchor x="471" y="0" name="ogonek"/>
  <anchor x="352.33" y="517" name="top"/>
  <anchor x="543" y="517" name="topright"/>
  <outline>
    <contour>
      <point x="393" y="517" type="line"/>
      <point x="36" y="517" type="line"/>
      <point x="36" y="515" type="line"/>
      <point x="203" y="515" type="line"/>
      <point x="205" y="515" type="line"/>
      <point x="393" y="515" type="line"/>
    </contour>
    <component base="tse-cy" xOffset="48"/>
  </outline>
</glyph>
<glyph name="Cheverticalstroke-cy" format="2">
  <advance width="566"/>
  <unicode hex="04B8"/>
  <anchor x="246.67" y="0.0" name="bottom"/>
  <anchor x="378" y="0" name="bottomleft"/>
  <anchor x="410" y="0" name="bottomright"/>
  <anchor x="307" y="680" name="top"/>
  <outline>
    <contour>
      <point x="284" y="512" type="line"/>
      <point x="282" y="512" type="line"/>
      <point x="226" y="111" type="line"/>
      <point x="228" y="111" type="line"/>
    </contour>
    <component base="Che-cy"/>
  </outline>
</glyph>
<glyph name="cheverticalstroke-cy" format="2">
  <advance width="520"/>
  <unicode hex="04B9"/>
  <anchor x="223.67" y="0.0" name="bottom"/>
  <anchor x="329" y="0" name="bottomleft"/>
  <anchor x="369" y="0" name="bottomright"/>
  <anchor x="271" y="517" name="top"/>
  <outline>
    <contour>
      <point x="241" y="368" type="line"/>
      <point x="239" y="368" type="line"/>
      <point x="200" y="101" type="line"/>
      <point x="202" y="101" type="line"/>
    </contour>
    <component base="che-cy"/>
  </outline>
</glyph>
<glyph name="Shha-cy" format="2">
  <advance width="587"/>
  <unicode hex="04BA"/>
  <anchor x="257.17" y="0" name="bottom"/>
  <anchor x="481" y="0" name="bottomright"/>
  <anchor x="352.738" y="680" name="top"/>
  <outline>
    <contour>
      <point x="362" y="410" type="curve" smooth="yes"/>
      <point x="272" y="410"/>
      <point x="203" y="369"/>
      <point x="136" y="295" type="curve"/>
      <point x="136" y="292" type="line"/>
      <point x="205" y="369"/>
      <point x="272" y="408"/>
      <point x="362" y="408" type="curve" smooth="yes"/>
      <point x="480" y="408"/>
      <point x="516" y="336"/>
      <point x="502" y="244" type="curve" smooth="yes"/>
      <point x="469" y="0" type="line"/>
      <point x="471" y="0" type="line"/>
      <point x="504" y="244" type="line" smooth="yes"/>
      <point x="518" y="339"/>
      <point x="479" y="410"/>
    </contour>
    <contour>
      <point x="191" y="680" type="line"/>
      <point x="189" y="680" type="line"/>
      <point x="94" y="0" type="line"/>
      <point x="96" y="0" type="line"/>
    </contour>
  </outline>
</glyph>
<glyph name="Kahook-cy" format="2">
  <advance width="578"/>
  <unicode hex="04C3"/>
  <anchor x="348.238" y="680" name="top"/>
  <outline>
    <contour>
      <point x="94" y="1" type="line"/>
      <point x="96" y="1" type="line"/>
      <point x="145" y="349" type="line"/>
      <point x="306" y="349" type="line"/>
      <point x="307" y="350" type="line"/>
      <point x="426" y="552" type="line" smooth="yes"/>
      <point x="471" y="629"/>
      <point x="509" y="671"/>
      <point x="555" y="688" type="curve"/>
      <point x="555" y="690" type="line"/>
      <point x="509" y="673"/>
      <point x="470" y="631"/>
      <point x="425" y="554" type="curve" smooth="yes"/>
      <point x="305" y="351" type="line"/>
      <point x="145" y="351" type="line"/>
      <point x="191" y="680" type="line"/>
      <point x="189" y="680" type="line"/>
    </contour>
    <contour>
      <point x="459" y="0" type="line"/>
      <point x="461" y="0" type="line"/>
      <point x="481" y="146" type="line" smooth="yes"/>
      <point x="501" y="289"/>
      <point x="455" y="351"/>
      <point x="306" y="351" type="curve"/>
      <point x="306" y="349" type="line"/>
      <point x="454" y="349"/>
      <point x="499" y="288"/>
      <point x="479" y="146" type="curve" smooth="yes"/>
    </contour>
    <component base="hookHELPER.case" xOffset="291"/>
  </outline>
</glyph>
<glyph name="kahook-cy" format="2">
  <advance width="498"/>
  <unicode hex="04C4"/>
  <anchor x="285.33" y="517" name="top"/>
  <outline>
    <contour>
      <point x="455" y="525" type="curve"/>
      <point x="454" y="527" type="line"/>
      <point x="406" y="510"/>
      <point x="386" y="483"/>
      <point x="328" y="401" type="curve" smooth="yes"/>
      <point x="234" y="268" type="line"/>
      <point x="128" y="268" type="line"/>
      <point x="163" y="517" type="line"/>
      <point x="161" y="517" type="line"/>
      <point x="89" y="0" type="line"/>
      <point x="91" y="0" type="line"/>
      <point x="128" y="266" type="line"/>
      <point x="231" y="266" type="line"/>
      <point x="236" y="267" type="line"/>
      <point x="330" y="400" type="line" smooth="yes"/>
      <point x="388" y="482"/>
      <point x="407" y="508"/>
    </contour>
    <contour>
      <point x="226" y="268" type="curve"/>
      <point x="226" y="266" type="line"/>
      <point x="366" y="266"/>
      <point x="392" y="217"/>
      <point x="377" y="118" type="curve" smooth="yes"/>
      <point x="361" y="0" type="line"/>
      <point x="363" y="0" type="line"/>
      <point x="379" y="118" type="line" smooth="yes"/>
      <point x="394" y="218"/>
      <point x="367" y="268"/>
    </contour>
    <component base="hookHELPER" xOffset="193"/>
  </outline>
</glyph>
<glyph name="Chekhakassian-cy" format="2">
  <advance width="566"/>
  <unicode hex="04CB"/>
  <anchor x="246.67" y="0" name="bottom"/>
  <anchor x="378" y="0" name="bottomleft"/>
  <anchor x="410" y="0" name="bottomright"/>
  <anchor x="307" y="680" name="top"/>
  <outline>
    <contour>
      <point x="234" y="239" type="curve" smooth="yes"/>
      <point x="321" y="239"/>
      <point x="393" y="276"/>
      <point x="447" y="340" type="curve"/>
      <point x="447" y="342" type="line"/>
      <point x="392" y="278"/>
      <point x="321" y="241"/>
      <point x="234" y="241" type="curve" smooth="yes"/>
      <point x="132" y="241"/>
      <point x="69" y="304"/>
      <point x="83" y="412" type="curve" smooth="yes"/>
      <point x="121" y="680" type="line"/>
      <point x="119" y="680" type="line"/>
      <point x="81" y="412" type="line" smooth="yes"/>
      <point x="67" y="303"/>
      <point x="130" y="239"/>
    </contour>
    <contour>
      <point x="325" y="-131" type="line"/>
      <point x="327" y="-131" type="line"/>
      <point x="346" y="0" type="line"/>
      <point x="399" y="0" type="line"/>
      <point x="399" y="2" type="line"/>
      <point x="344" y="2" type="line"/>
    </contour>
    <contour>
      <point x="398" y="0" type="line"/>
      <point x="400" y="0" type="line"/>
      <point x="495" y="680" type="line"/>
      <point x="493" y="680" type="line"/>
    </contour>
  </outline>
</glyph>
<glyph name="Obarred-cy" format="2">
  <advance width="686"/>
  <unicode hex="04E8"/>
  <anchor x="306.67" y="0" name="bottom"/>
  <anchor x="402" y="680" name="top"/>
  <outline>
    <contour>
      <point x="403" y="690" type="curve" smooth="yes"/>
      <point x="248" y="690"/>
      <point x="126" y="557"/>
      <point x="97" y="342" type="curve" smooth="yes"/>
      <point x="92" y="310"/>
      <point x="90" y="280"/>
      <point x="90" y="252" type="curve" smooth="yes"/>
      <point x="90" y="84"/>
      <point x="170" y="-9"/>
      <point x="306" y="-9" type="curve" smooth="yes"/>
      <point x="473" y="-9"/>
      <point x="582" y="119"/>
      <point x="614" y="342" type="curve" smooth="yes"/>
      <point x="618" y="373"/>
      <point x="621" y="403"/>
      <point x="621" y="430" type="curve" smooth="yes"/>
      <point x="621" y="596"/>
      <point x="541" y="690"/>
    </contour>
    <contour>
      <point x="403" y="688" type="curve" smooth="yes"/>
      <point x="540" y="688"/>
      <point x="619" y="595"/>
      <point x="619" y="430" type="curve" smooth="yes"/>
      <point x="619" y="403"/>
      <point x="616" y="373"/>
      <point x="612" y="342" type="curve" smooth="yes"/>
      <point x="581" y="121"/>
      <point x="472" y="-7"/>
      <point x="306" y="-7" type="curve" smooth="yes"/>
      <point x="171" y="-7"/>
      <point x="92" y="86"/>
      <point x="92" y="252" type="curve" smooth="yes"/>
      <point x="92" y="280"/>
      <point x="94" y="310"/>
      <point x="99" y="342" type="curve" smooth="yes"/>
      <point x="128" y="555"/>
      <point x="249" y="688"/>
    </contour>
    <contour>
      <point x="613" y="343" type="line"/>
      <point x="98" y="343" type="line"/>
      <point x="98" y="341" type="line"/>
      <point x="613" y="341" type="line"/>
    </contour>
  </outline>
</glyph>
<glyph name="gedescender-cy" format="2">
  <advance width="457"/>
  <unicode hex="04F7"/>
  <anchor x="192.17" y="0.0" name="bottom"/>
  <anchor x="270" y="517" name="top"/>
  <outline>
    <contour>
      <point x="194" y="-7" type="line"/>
      <point x="177" y="-131" type="line"/>
      <point x="179" y="-131" type="line"/>
      <point x="196" y="-8" type="line"/>
    </contour>
    <component base="ge-cy"/>
  </outline>
</glyph>
<glyph name="Gestrokehook-cy" format="2">
  <advance width="523"/>
  <unicode hex="04FA"/>
  <anchor x="226.17" y="0.0" name="bottom"/>
  <anchor x="108" y="0" name="bottomright"/>
  <anchor x="391" y="680" name="top"/>
  <outline>
    <contour>
      <point x="97" y="2" type="line"/>
      <point x="97" y="0" type="line"/>
      <point x="151" y="0" type="line"/>
      <point x="151" y="2" type="line"/>
    </contour>
    <component base="Ghestroke-cy"/>
    <component base="hookHELPER.case" xOffset="-19"/>
  </outline>
</glyph>
<glyph name="Hahook-cy" format="2">
  <advance width="495"/>
  <unicode hex="04FC"/>
  <anchor x="197.17" y="0.0" name="bottom"/>
  <anchor x="418" y="0" name="bottomright"/>
  <anchor x="292.738" y="680.0" name="top"/>
  <outline>
    <contour>
      <point x="409" y="2" type="line"/>
      <point x="410" y="0" type="line"/>
      <point x="463" y="0" type="line"/>
      <point x="463" y="2" type="line"/>
    </contour>
    <component base="hookHELPER.case" xOffset="293"/>
    <component base="X"/>
  </outline>
</glyph>
<glyph name="hahook-cy" format="2">
  <advance width="455"/>
  <unicode hex="04FD"/>
  <anchor x="169" y="0" name="bottom"/>
  <anchor x="371" y="0" name="bottomright"/>
  <anchor x="263.83" y="517" name="top"/>
  <outline>
    <contour>
      <point x="361" y="2" type="line"/>
      <point x="361" y="0" type="line"/>
      <point x="413" y="0" type="line"/>
      <point x="413" y="2" type="line"/>
    </contour>
    <component base="hookHELPER" xOffset="243"/>
    <component base="x"/>
  </outline>
</glyph>
<glyph name="Hastroke-cy" format="2">
  <advance width="467"/>
  <unicode hex="04FE"/>
  <anchor x="197.17" y="0" name="bottom"/>
  <anchor x="418" y="0" name="bottomright"/>
  <anchor x="292.738" y="680" name="top"/>
  <outline>
    <contour>
      <point x="112" y="680" type="line"/>
      <point x="110" y="680" type="line"/>
      <point x="247" y="370" type="line"/>
      <point x="249" y="369" type="line"/>
      <point x="409" y="0" type="line"/>
      <point x="411" y="0" type="line"/>
      <point x="251" y="370" type="line"/>
      <point x="249" y="371" type="line"/>
    </contour>
    <contour>
      <point x="475" y="680" type="line"/>
      <point x="473" y="680" type="line"/>
      <point x="249" y="371" type="line"/>
      <point x="247" y="370" type="line"/>
      <point x="-16" y="0" type="line"/>
      <point x="-14" y="0" type="line"/>
      <point x="249" y="369" type="line"/>
      <point x="251" y="370" type="line"/>
    </contour>
    <component base="hyphen" xScale="1.5" xOffset="-64" yOffset="58"/>
  </outline>
</glyph>
<glyph name="hastroke-cy" format="2">
  <advance width="424"/>
  <unicode hex="04FF"/>
  <anchor x="175.67" y="0" name="bottom"/>
  <anchor x="371" y="0" name="bottomright"/>
  <anchor x="248.33" y="517" name="top"/>
  <outline>
    <contour>
      <point x="90" y="517" type="line"/>
      <point x="88" y="517" type="line"/>
      <point x="212" y="278" type="line"/>
      <point x="213" y="277" type="line"/>
      <point x="361" y="0" type="line"/>
      <point x="363" y="0" type="line"/>
      <point x="214" y="278" type="line"/>
      <point x="213" y="279" type="line"/>
    </contour>
    <contour>
      <point x="408" y="517" type="line"/>
      <point x="406" y="517" type="line"/>
      <point x="213" y="279" type="line"/>
      <point x="212" y="278" type="line"/>
      <point x="-11" y="0" type="line"/>
      <point x="-9" y="0" type="line"/>
      <point x="213" y="277" type="line"/>
      <point x="214" y="278" type="line"/>
    </contour>
    <component base="hyphen" xScale="1.3" xOffset="-54" yOffset="-34"/>
  </outline>
</glyph>
<glyph name="Komide-cy" format="2">
  <advance width="551"/>
  <unicode hex="0500"/>
  <anchor x="239.17" y="0" name="bottom"/>
  <anchor x="334.738" y="680" name="top"/>
  <outline>
    <contour>
      <point x="478" y="680" type="line"/>
      <point x="383" y="2" type="line"/>
      <point x="237" y="2" type="line" smooth="yes"/>
      <point x="124" y="2"/>
      <point x="48" y="53"/>
      <point x="52" y="182" type="curve" smooth="yes"/>
      <point x="56" y="301"/>
      <point x="147" y="397"/>
      <point x="302" y="397" type="curve" smooth="yes"/>
      <point x="440" y="397" type="line"/>
      <point x="440" y="399" type="line"/>
      <point x="302" y="399" type="line" smooth="yes"/>
      <point x="148" y="399"/>
      <point x="54" y="304"/>
      <point x="50" y="182" type="curve" smooth="yes"/>
      <point x="46" y="52"/>
      <point x="123" y="0"/>
      <point x="237" y="0" type="curve" smooth="yes"/>
      <point x="385" y="0" type="line"/>
      <point x="480" y="680" type="line"/>
    </contour>
  </outline>
</glyph>
<glyph name="Komidzje-cy" format="2">
  <advance width="478"/>
  <unicode hex="0506"/>
  <anchor x="451" y="0" name="_bottom"/>
  <anchor x="298.238" y="680" name="top"/>
  <outline>
    <contour>
      <point x="256" y="680" type="curve" smooth="yes"/>
      <point x="139" y="680" type="line"/>
      <point x="139" y="678" type="line"/>
      <point x="256" y="678" type="line" smooth="yes"/>
      <point x="393" y="678"/>
      <point x="448" y="631"/>
      <point x="448" y="534" type="curve" smooth="yes"/>
      <point x="448" y="419"/>
      <point x="373" y="336"/>
      <point x="247" y="336" type="curve" smooth="yes"/>
      <point x="122" y="336" type="line"/>
      <point x="122" y="334" type="line"/>
      <point x="253" y="334" type="line"/>
      <point x="375" y="337"/>
      <point x="450" y="417"/>
      <point x="450" y="534" type="curve" smooth="yes"/>
      <point x="450" y="632"/>
      <point x="394" y="680"/>
    </contour>
    <contour>
      <point x="254" y="335" type="line"/>
      <point x="252" y="335" type="line"/>
      <point x="397" y="0" type="line"/>
      <point x="399" y="0" type="line"/>
    </contour>
    <component base="descStraight-cy.case" xOffset="423"/>
  </outline>
</glyph>
<glyph name="Komitje-cy" format="2">
  <advance width="648"/>
  <unicode hex="050E"/>
  <anchor x="287.67" y="0" name="bottom"/>
  <anchor x="383.238" y="680" name="top"/>
  <outline>
    <contour>
      <point x="343" y="-9" type="curve" smooth="yes"/>
      <point x="499" y="-9"/>
      <point x="573" y="164"/>
      <point x="579" y="379" type="curve"/>
      <point x="577" y="379" type="line"/>
      <point x="571" y="165"/>
      <point x="498" y="-7"/>
      <point x="343" y="-7" type="curve" smooth="yes"/>
      <point x="256" y="-7"/>
      <point x="208" y="50"/>
      <point x="222" y="148" type="curve" smooth="yes"/>
      <point x="296" y="678" type="line"/>
      <point x="511" y="678" type="line"/>
      <point x="511" y="680" type="line"/>
      <point x="79" y="680" type="line"/>
      <point x="79" y="678" type="line"/>
      <point x="294" y="678" type="line"/>
      <point x="220" y="148" type="line" smooth="yes"/>
      <point x="206" y="49"/>
      <point x="255" y="-9"/>
    </contour>
  </outline>
</glyph>
<glyph name="lha-cy" format="2">
  <advance width="648"/>
  <unicode hex="0515"/>
  <anchor x="287.67" y="0" name="bottom"/>
  <anchor x="595" y="0" name="bottomright"/>
  <anchor x="360.33" y="517" name="top"/>
  <outline>
    <contour>
      <point x="196" y="517" type="line"/>
      <point x="197" y="515" type="line"/>
      <point x="314" y="515" type="line"/>
      <point x="314" y="517" type="line"/>
    </contour>
    <contour>
      <point x="198" y="515" type="line"/>
      <point x="196" y="517" type="line"/>
      <point x="156" y="285" type="line" smooth="yes"/>
      <point x="117" y="67"/>
      <point x="95" y="23"/>
      <point x="30" y="1" type="curve"/>
      <point x="30" y="-1" type="line"/>
      <point x="97" y="22"/>
      <point x="119" y="65"/>
      <point x="158" y="285" type="curve" smooth="yes"/>
    </contour>
    <component base="x" xOffset="224"/>
  </outline>
</glyph>
<glyph name="Aleutka-cy" format="2">
  <advance width="550"/>
  <unicode hex="051E"/>
  <anchor x="231.67" y="0.0" name="bottom"/>
  <anchor x="468" y="0" name="bottomright"/>
  <anchor x="354" y="680" name="top"/>
  <outline>
    <contour>
      <point x="298" y="617" type="line"/>
      <point x="550" y="490" type="line"/>
      <point x="551" y="492" type="line"/>
      <point x="299" y="619" type="line"/>
    </contour>
    <component base="Ka-cy"/>
  </outline>
</glyph>
<glyph name="aleutka-cy" format="2">
  <advance width="498"/>
  <unicode hex="051F"/>
  <anchor x="212.67" y="0" name="bottom"/>
  <anchor x="405" y="0" name="bottomright"/>
  <anchor x="285.33" y="517" name="top"/>
  <outline>
    <contour>
      <point x="223" y="463" type="line"/>
      <point x="435" y="349" type="line"/>
      <point x="436" y="351" type="line"/>
      <point x="224" y="465" type="line"/>
    </contour>
    <component base="ka-cy"/>
  </outline>
</glyph>
<glyph name="Elmiddlehook-cy" format="2">
  <advance width="957"/>
  <unicode hex="0520"/>
  <anchor x="279.17" y="0.0" name="bottom"/>
  <anchor x="475" y="0" name="bottomright"/>
  <anchor x="537.738" y="680" name="top"/>
  <outline>
    <contour>
      <point x="731" y="410" type="curve" smooth="yes"/>
      <point x="641" y="410"/>
      <point x="572" y="369"/>
      <point x="505" y="295" type="curve"/>
      <point x="505" y="292" type="line"/>
      <point x="574" y="369"/>
      <point x="641" y="408"/>
      <point x="731" y="408" type="curve" smooth="yes"/>
      <point x="849" y="408"/>
      <point x="885" y="336"/>
      <point x="871" y="244" type="curve" smooth="yes"/>
      <point x="838" y="0" type="line"/>
      <point x="840" y="0" type="line"/>
      <point x="873" y="244" type="line" smooth="yes"/>
      <point x="887" y="339"/>
      <point x="848" y="410"/>
    </contour>
    <component base="El-cy"/>
    <component base="hookHELPER.case" xOffset="670"/>
  </outline>
</glyph>
<glyph name="Enmiddlehook-cy" format="2">
  <advance width="980"/>
  <unicode hex="0522"/>
  <anchor x="304" y="0" name="bottom"/>
  <anchor x="498" y="0" name="bottomright"/>
  <anchor x="338" y="340" name="center"/>
  <anchor x="549.238" y="680" name="top"/>
  <anchor x="139" y="680" name="topleft"/>
  <outline>
    <contour>
      <point x="754" y="410" type="curve" smooth="yes"/>
      <point x="664" y="410"/>
      <point x="595" y="369"/>
      <point x="528" y="295" type="curve"/>
      <point x="528" y="292" type="line"/>
      <point x="597" y="369"/>
      <point x="664" y="408"/>
      <point x="754" y="408" type="curve" smooth="yes"/>
      <point x="872" y="408"/>
      <point x="908" y="336"/>
      <point x="894" y="244" type="curve" smooth="yes"/>
      <point x="861" y="0" type="line"/>
      <point x="863" y="0" type="line"/>
      <point x="896" y="244" type="line" smooth="yes"/>
      <point x="910" y="339"/>
      <point x="871" y="410"/>
    </contour>
    <component base="H"/>
    <component base="hookHELPER.case" xOffset="693"/>
  </outline>
</glyph>
<glyph name="enmiddlehook-cy" format="2">
  <advance width="876"/>
  <unicode hex="0523"/>
  <anchor x="253" y="0" name="bottom"/>
  <anchor x="427" y="0" name="bottomright"/>
  <anchor x="474.33" y="517" name="top"/>
  <outline>
    <contour>
      <point x="747" y="0" type="line"/>
      <point x="749" y="0" type="line"/>
      <point x="774" y="178" type="line" smooth="yes"/>
      <point x="788" y="277"/>
      <point x="757" y="337"/>
      <point x="662" y="337" type="curve" smooth="yes"/>
      <point x="574" y="337"/>
      <point x="503" y="285"/>
      <point x="443" y="199" type="curve"/>
      <point x="444" y="197" type="line"/>
      <point x="504" y="283"/>
      <point x="575" y="335"/>
      <point x="662" y="335" type="curve" smooth="yes"/>
      <point x="756" y="335"/>
      <point x="786" y="276"/>
      <point x="772" y="178" type="curve" smooth="yes"/>
    </contour>
    <component base="en-cy"/>
    <component base="hookHELPER" xOffset="579"/>
  </outline>
</glyph>
<glyph name="Dzzhe-cy" format="2">
  <advance width="852"/>
  <unicode hex="052A"/>
  <anchor x="401" y="0" name="_bottom"/>
  <anchor x="485.238" y="680" name="top"/>
  <outline>
    <contour>
      <point x="246" y="680" type="line"/>
      <point x="159" y="351" type="line" smooth="yes"/>
      <point x="91" y="95"/>
      <point x="60" y="43"/>
      <point x="-2" y="2" type="curve"/>
      <point x="-2" y="0" type="line"/>
      <point x="344" y="0" type="line"/>
      <point x="439" y="680" type="line"/>
    </contour>
    <contour>
      <point x="1" y="2" type="line"/>
      <point x="62" y="43"/>
      <point x="93" y="96"/>
      <point x="161" y="351" type="curve" smooth="yes"/>
      <point x="248" y="678" type="line"/>
      <point x="437" y="678" type="line"/>
      <point x="342" y="2" type="line"/>
    </contour>
    <contour>
      <point x="394" y="359" type="line"/>
      <point x="511" y="359" type="line"/>
      <point x="511" y="361" type="line"/>
      <point x="394" y="361" type="line"/>
    </contour>
    <contour>
      <point x="459" y="0" type="line"/>
      <point x="461" y="0" type="line"/>
      <point x="511" y="359" type="line"/>
      <point x="604" y="359" type="line"/>
      <point x="756" y="0" type="line"/>
      <point x="758" y="0" type="line"/>
      <point x="606" y="360" type="line"/>
      <point x="759" y="579" type="line" smooth="yes"/>
      <point x="810" y="653"/>
      <point x="825" y="666"/>
      <point x="877" y="688" type="curve"/>
      <point x="877" y="690" type="line"/>
      <point x="825" y="669"/>
      <point x="808" y="654"/>
      <point x="757" y="580" type="curve" smooth="yes"/>
      <point x="604" y="361" type="line"/>
      <point x="511" y="361" type="line"/>
      <point x="556" y="680" type="line"/>
      <point x="554" y="680" type="line"/>
    </contour>
    <contour>
      <point x="316" y="2" type="line"/>
      <point x="316" y="0" type="line"/>
      <point x="461" y="0" type="line"/>
      <point x="461" y="2" type="line"/>
    </contour>
    <component base="descStraight-cy.case" xOffset="373"/>
    <component base="descStraightleft-cy.case" xOffset="-57"/>
  </outline>
</glyph>
<glyph name="dzzhe-cy" format="2">
  <advance width="821"/>
  <unicode hex="052B"/>
  <anchor x="45" y="0" name="_bottom"/>
  <anchor x="446.83" y="517" name="top"/>
  <outline>
    <contour>
      <point x="80" y="0" type="line"/>
      <point x="360" y="0" type="line"/>
      <point x="432" y="517" type="line"/>
      <point x="261" y="517" type="line"/>
      <point x="218" y="306" type="line" smooth="yes"/>
      <point x="172" y="87"/>
      <point x="137" y="36"/>
      <point x="80" y="2" type="curve"/>
      <point x="82" y="1" type="line"/>
      <point x="140" y="35"/>
      <point x="174" y="88"/>
      <point x="220" y="306" type="curve" smooth="yes"/>
      <point x="263" y="515" type="line"/>
      <point x="430" y="515" type="line"/>
      <point x="358" y="2" type="line"/>
      <point x="80" y="2" type="line"/>
    </contour>
    <contour>
      <point x="354" y="0" type="line"/>
      <point x="459" y="0" type="line"/>
      <point x="459" y="2" type="line"/>
      <point x="354" y="2" type="line"/>
    </contour>
    <contour>
      <point x="397" y="277" type="line"/>
      <point x="566" y="277" type="line"/>
      <point x="566" y="279" type="line"/>
      <point x="397" y="279" type="line"/>
    </contour>
    <contour>
      <point x="720" y="0" type="line"/>
      <point x="566" y="278" type="line"/>
      <point x="676" y="417" type="line" smooth="yes"/>
      <point x="703" y="451"/>
      <point x="744" y="510"/>
      <point x="791" y="525" type="curve"/>
      <point x="790" y="527" type="line"/>
      <point x="742" y="511"/>
      <point x="703" y="454"/>
      <point x="675" y="419" type="curve" smooth="yes"/>
      <point x="564" y="279" type="line"/>
      <point x="499" y="279" type="line"/>
      <point x="532" y="517" type="line"/>
      <point x="530" y="517" type="line"/>
      <point x="458" y="0" type="line"/>
      <point x="460" y="0" type="line"/>
      <point x="499" y="277" type="line"/>
      <point x="564" y="277" type="line"/>
      <point x="717" y="0" type="line"/>
    </contour>
    <component base="descStraightleft-cy" xOffset="17"/>
    <component base="descStraight-cy" xOffset="382"/>
  </outline>
</glyph>
<glyph name="dche-cy" format="2">
  <advance width="623"/>
  <unicode hex="052D"/>
  <anchor x="498" y="0" name="_bottom"/>
  <anchor x="347.83" y="517" name="top"/>
  <outline>
    <contour>
      <point x="78" y="2" type="curve"/>
      <point x="80" y="1" type="line"/>
      <point x="138" y="35"/>
      <point x="182" y="88"/>
      <point x="228" y="306" type="curve" smooth="yes"/>
      <point x="271" y="515" type="line"/>
      <point x="519" y="515" type="line"/>
      <point x="447" y="2" type="line"/>
      <point x="78" y="2" type="line"/>
      <point x="78" y="0" type="line"/>
      <point x="449" y="0" type="line"/>
      <point x="521" y="517" type="line"/>
      <point x="269" y="517" type="line"/>
      <point x="226" y="306" type="line" smooth="yes"/>
      <point x="180" y="87"/>
      <point x="135" y="36"/>
    </contour>
    <contour>
      <point x="488" y="290" type="line"/>
      <point x="489" y="292" type="line"/>
      <point x="256" y="292" type="line"/>
      <point x="169" y="292"/>
      <point x="136" y="323"/>
      <point x="136" y="388" type="curve" smooth="yes"/>
      <point x="136" y="410"/>
      <point x="139" y="432"/>
      <point x="151" y="517" type="curve"/>
      <point x="149" y="517" type="line"/>
      <point x="138" y="436"/>
      <point x="134" y="411"/>
      <point x="134" y="388" type="curve" smooth="yes"/>
      <point x="134" y="321"/>
      <point x="168" y="291"/>
      <point x="255" y="290" type="curve"/>
    </contour>
    <component base="descStraight-cy" xOffset="470"/>
    <component base="descStraightleft-cy" xOffset="12"/>
  </outline>
</glyph>
<glyph name="uni1D6D" format="2">
  <advance width="631"/>
  <unicode hex="1D6D"/>
  <anchor x="242" y="0" name="bottom"/>
  <anchor x="278" y="259" name="center"/>
  <anchor x="334" y="727" name="top"/>
  <anchor x="551" y="727" name="topright"/>
  <outline>
    <contour>
      <point x="558" y="604" type="curve"/>
      <point x="594" y="604"/>
      <point x="619" y="625"/>
      <point x="635" y="649" type="curve"/>
      <point x="633" y="649" type="line"/>
      <point x="617" y="626"/>
      <point x="593" y="606"/>
      <point x="558" y="606" type="curve"/>
      <point x="512" y="606"/>
      <point x="472" y="661"/>
      <point x="424" y="661" type="curve"/>
      <point x="390" y="661"/>
      <point x="365" y="640"/>
      <point x="346" y="616" type="curve"/>
      <point x="348" y="616" type="line"/>
      <point x="367" y="639"/>
      <point x="391" y="659"/>
      <point x="424" y="659" type="curve"/>
      <point x="472" y="659"/>
      <point x="511" y="604"/>
    </contour>
    <component base="d" xOffset="-5"/>
  </outline>
</glyph>
